<mxfile host="app.diagrams.net" agent="Mozilla/5.0 (Windows NT 10.0; Win64; x64) AppleWebKit/537.36 (KHTML, like Gecko) Chrome/136.0.0.0 Safari/537.36" version="27.1.1">
  <diagram id="f106602c-feb2-e66a-4537-3a34d633f6aa" name="Page-1">
    <mxGraphModel dx="1543" dy="1937" grid="0" gridSize="10" guides="1" tooltips="1" connect="1" arrows="1" fold="1" page="1" pageScale="1" pageWidth="1169" pageHeight="827" background="light-dark(#FFFFFF,#CCE5FF)" math="0" shadow="0">
      <root>
        <mxCell id="0" />
        <mxCell id="1" parent="0" />
        <mxCell id="Lif8JBEafslfNm7ranTe-1" value="&lt;b&gt;Google &lt;/b&gt;Cloud Platform" style="fillColor=light-dark(#DAE8FC,#72A4EB);strokeColor=light-dark(#6C8EBF,#445878);shadow=0;gradientColor=none;fontSize=14;align=left;spacing=10;9E9E9E;verticalAlign=top;spacingTop=-4;fontStyle=0;spacingLeft=40;html=1;container=0;" parent="1" vertex="1">
          <mxGeometry x="810" y="-507" width="1271" height="1009" as="geometry" />
        </mxCell>
        <mxCell id="zcXtujwmY136qcEb4Mnf-36" value="&lt;b&gt;&lt;font style=&quot;font-size: 13px;&quot;&gt;Network VPC&lt;/font&gt;&lt;/b&gt;" style="rounded=1;absoluteArcSize=1;arcSize=2;html=1;strokeColor=#0e8088;shadow=0;dashed=0;fontSize=12;align=left;verticalAlign=top;spacing=10;spacingTop=-4;fillColor=#b0e3e6;" parent="1" vertex="1">
          <mxGeometry x="890" y="-480" width="450" height="352" as="geometry" />
        </mxCell>
        <mxCell id="bZfns3RA5erKDMG97pNH-27" value="Services to services" style="whiteSpace=wrap;html=1;fillColor=light-dark(#FFFFFF,#002E5C);align=left;verticalAlign=top;" parent="1" vertex="1">
          <mxGeometry x="1165" y="-444" width="165" height="307" as="geometry" />
        </mxCell>
        <mxCell id="zcXtujwmY136qcEb4Mnf-34" value="&lt;b&gt;&lt;font style=&quot;font-size: 13px;&quot;&gt;Application VPC&lt;/font&gt;&lt;/b&gt;" style="rounded=1;absoluteArcSize=1;arcSize=2;html=1;strokeColor=#3A5431;shadow=0;dashed=0;fontSize=12;fontColor=#ffffff;align=left;verticalAlign=top;spacing=10;spacingTop=-4;fillColor=#6d8764;" parent="1" vertex="1">
          <mxGeometry x="1370" y="-480" width="670" height="740" as="geometry" />
        </mxCell>
        <mxCell id="zcXtujwmY136qcEb4Mnf-32" value="&lt;b&gt;Backend layer&lt;/b&gt;" style="rounded=1;absoluteArcSize=1;arcSize=2;html=1;strokeColor=#6D1F00;shadow=0;dashed=0;fontSize=12;fontColor=#ffffff;align=left;verticalAlign=top;spacing=10;spacingTop=-4;fillColor=#a0522d;" parent="1" vertex="1">
          <mxGeometry x="1730" y="-410" width="300" height="332" as="geometry" />
        </mxCell>
        <mxCell id="bZfns3RA5erKDMG97pNH-3" value="&lt;b&gt;backend-subnet:&amp;nbsp;&lt;/b&gt;&lt;b&gt;172.18.2.0/24&lt;/b&gt;" style="rounded=1;absoluteArcSize=1;arcSize=2;html=1;strokeColor=light-dark(#314354,#4D4D4D);shadow=0;dashed=0;fontSize=12;fontColor=#ffffff;align=left;verticalAlign=bottom;spacing=10;spacingTop=-4;fillColor=light-dark(#647687,#FFCE9F);" parent="1" vertex="1">
          <mxGeometry x="1769" y="-359.5" width="222" height="145.5" as="geometry" />
        </mxCell>
        <mxCell id="zcXtujwmY136qcEb4Mnf-31" value="&lt;b&gt;Frontend layer&lt;/b&gt;" style="rounded=1;absoluteArcSize=1;arcSize=2;html=1;strokeColor=light-dark(#314354,#4D4D4D);shadow=0;dashed=0;fontSize=12;fontColor=#ffffff;align=left;verticalAlign=top;spacing=10;spacingTop=-4;fillColor=#647687;" parent="1" vertex="1">
          <mxGeometry x="1390" y="-410" width="260" height="332" as="geometry" />
        </mxCell>
        <mxCell id="bZfns3RA5erKDMG97pNH-1" value="&lt;b&gt;frontend-subnet:&amp;nbsp;&lt;/b&gt;&lt;b&gt;172.18.1.0/24&lt;/b&gt;" style="rounded=1;absoluteArcSize=1;arcSize=2;html=1;strokeColor=light-dark(#314354,#4D4D4D);shadow=0;dashed=0;fontSize=12;fontColor=#ffffff;align=left;verticalAlign=bottom;spacing=10;spacingTop=-4;fillColor=light-dark(#647687,#FFCE9F);" parent="1" vertex="1">
          <mxGeometry x="1410" y="-352.5" width="222" height="242.5" as="geometry" />
        </mxCell>
        <mxCell id="zcXtujwmY136qcEb4Mnf-197" value="" style="edgeStyle=orthogonalEdgeStyle;rounded=0;orthogonalLoop=1;jettySize=auto;html=1;" parent="1" source="Lif8JBEafslfNm7ranTe-4" target="Lif8JBEafslfNm7ranTe-1" edge="1">
          <mxGeometry relative="1" as="geometry" />
        </mxCell>
        <mxCell id="Lif8JBEafslfNm7ranTe-4" value="&lt;b&gt;&lt;font style=&quot;font-size: 22px;&quot;&gt;ABC&#39;s hospital system architecture&lt;/font&gt;&lt;/b&gt;" style="fillColor=#4DA1F5;strokeColor=none;shadow=1;gradientColor=none;fontSize=25;align=left;spacingLeft=50;fontColor=#ffffff;html=1;verticalAlign=top;whiteSpace=wrap;" parent="1" vertex="1">
          <mxGeometry x="480" y="415" width="265" height="87" as="geometry" />
        </mxCell>
        <mxCell id="Lif8JBEafslfNm7ranTe-6" value="" style="fillColor=light-dark(#FFFFFF,#666666);shadow=0;strokeWidth=1;rounded=1;absoluteArcSize=1;arcSize=2;labelPosition=center;verticalLabelPosition=middle;align=center;verticalAlign=bottom;spacingLeft=0;fontSize=12;whiteSpace=wrap;spacingBottom=2;html=1;strokeColor=light-dark(#000000, #1028da);" parent="1" vertex="1">
          <mxGeometry x="600" y="-390" width="70" height="70" as="geometry" />
        </mxCell>
        <mxCell id="Lif8JBEafslfNm7ranTe-7" value="" style="dashed=0;connectable=0;html=1;fillColor=#757575;strokeColor=none;shape=mxgraph.gcp2.mobile_devices;part=1;" parent="Lif8JBEafslfNm7ranTe-6" vertex="1">
          <mxGeometry x="0.5" width="50" height="36.5" relative="1" as="geometry">
            <mxPoint x="-25" y="16.75" as="offset" />
          </mxGeometry>
        </mxCell>
        <mxCell id="Lif8JBEafslfNm7ranTe-9" value="" style="strokeColor=#dddddd;fillColor=light-dark(#FFFFFF,#666666);shadow=1;strokeWidth=1;rounded=1;absoluteArcSize=1;arcSize=2;labelPosition=center;verticalLabelPosition=middle;align=center;verticalAlign=bottom;spacingLeft=0;fontColor=#999999;fontSize=12;whiteSpace=wrap;spacingBottom=2;html=1;" parent="1" vertex="1">
          <mxGeometry x="600" y="-300.5" width="70" height="70" as="geometry" />
        </mxCell>
        <mxCell id="Lif8JBEafslfNm7ranTe-10" value="" style="dashed=0;connectable=0;html=1;fillColor=#757575;strokeColor=none;shape=mxgraph.gcp2.laptop;part=1;" parent="Lif8JBEafslfNm7ranTe-9" vertex="1">
          <mxGeometry x="0.5" width="50" height="33" relative="1" as="geometry">
            <mxPoint x="-25" y="18.5" as="offset" />
          </mxGeometry>
        </mxCell>
        <mxCell id="zcXtujwmY136qcEb4Mnf-87" value="&lt;b&gt;&lt;font style=&quot;font-size: 13px;&quot;&gt;Internal ABC&#39;s Hospital Network&lt;/font&gt;&lt;/b&gt;" style="rounded=1;absoluteArcSize=1;arcSize=2;html=1;strokeColor=light-dark(#AE4132,#402723);shadow=0;dashed=0;fontSize=12;align=left;verticalAlign=top;spacing=10;spacingTop=-4;fillColor=light-dark(#FAD9D5,#635050);" parent="1" vertex="1">
          <mxGeometry x="480" y="-140" width="260" height="500" as="geometry" />
        </mxCell>
        <mxCell id="zcXtujwmY136qcEb4Mnf-104" style="edgeStyle=orthogonalEdgeStyle;rounded=0;orthogonalLoop=1;jettySize=auto;html=1;entryX=0;entryY=0.5;entryDx=0;entryDy=0;" parent="1" source="zcXtujwmY136qcEb4Mnf-88" target="zcXtujwmY136qcEb4Mnf-101" edge="1">
          <mxGeometry relative="1" as="geometry">
            <Array as="points">
              <mxPoint x="555" y="106" />
            </Array>
          </mxGeometry>
        </mxCell>
        <mxCell id="zcXtujwmY136qcEb4Mnf-88" value="" style="strokeColor=#dddddd;fillColor=light-dark(#FFFFFF,#666666);shadow=1;strokeWidth=1;rounded=1;absoluteArcSize=1;arcSize=2;labelPosition=center;verticalLabelPosition=middle;align=center;verticalAlign=bottom;spacingLeft=0;fontColor=#999999;fontSize=12;whiteSpace=wrap;spacingBottom=2;html=1;" parent="1" vertex="1">
          <mxGeometry x="520" y="220" width="70" height="70" as="geometry" />
        </mxCell>
        <mxCell id="zcXtujwmY136qcEb4Mnf-89" value="" style="dashed=0;connectable=0;html=1;fillColor=#757575;strokeColor=none;shape=mxgraph.gcp2.laptop;part=1;" parent="zcXtujwmY136qcEb4Mnf-88" vertex="1">
          <mxGeometry x="0.5" width="50" height="33" relative="1" as="geometry">
            <mxPoint x="-25" y="18.5" as="offset" />
          </mxGeometry>
        </mxCell>
        <mxCell id="zcXtujwmY136qcEb4Mnf-105" style="edgeStyle=orthogonalEdgeStyle;rounded=0;orthogonalLoop=1;jettySize=auto;html=1;entryX=0;entryY=0.5;entryDx=0;entryDy=0;" parent="1" source="zcXtujwmY136qcEb4Mnf-98" target="zcXtujwmY136qcEb4Mnf-101" edge="1">
          <mxGeometry relative="1" as="geometry" />
        </mxCell>
        <mxCell id="zcXtujwmY136qcEb4Mnf-98" value="" style="strokeColor=#dddddd;fillColor=light-dark(#FFFFFF,#666666);shadow=1;strokeWidth=1;rounded=1;absoluteArcSize=1;arcSize=2;labelPosition=center;verticalLabelPosition=middle;align=center;verticalAlign=bottom;spacingLeft=0;fontColor=#999999;fontSize=12;whiteSpace=wrap;spacingBottom=2;html=1;" parent="1" vertex="1">
          <mxGeometry x="630" y="220" width="70" height="70" as="geometry" />
        </mxCell>
        <mxCell id="zcXtujwmY136qcEb4Mnf-99" value="" style="dashed=0;connectable=0;html=1;fillColor=#757575;strokeColor=none;shape=mxgraph.gcp2.laptop;part=1;" parent="zcXtujwmY136qcEb4Mnf-98" vertex="1">
          <mxGeometry x="0.5" width="50" height="33" relative="1" as="geometry">
            <mxPoint x="-25" y="18.5" as="offset" />
          </mxGeometry>
        </mxCell>
        <mxCell id="zcXtujwmY136qcEb4Mnf-101" value="" style="image;html=1;image=img/lib/clip_art/networking/Firewall_02_128x128.png" parent="1" vertex="1">
          <mxGeometry x="700" y="66" width="80" height="80" as="geometry" />
        </mxCell>
        <mxCell id="zcXtujwmY136qcEb4Mnf-107" style="edgeStyle=orthogonalEdgeStyle;rounded=0;orthogonalLoop=1;jettySize=auto;html=1;entryX=0;entryY=0.5;entryDx=0;entryDy=0;" parent="1" source="zcXtujwmY136qcEb4Mnf-102" target="zcXtujwmY136qcEb4Mnf-101" edge="1">
          <mxGeometry relative="1" as="geometry">
            <Array as="points">
              <mxPoint x="590" y="-50" />
              <mxPoint x="590" y="106" />
            </Array>
          </mxGeometry>
        </mxCell>
        <mxCell id="zcXtujwmY136qcEb4Mnf-102" value="" style="image;html=1;image=img/lib/clip_art/computers/Server_Tower_128x128.png" parent="1" vertex="1">
          <mxGeometry x="490" y="-90" width="80" height="80" as="geometry" />
        </mxCell>
        <mxCell id="zcXtujwmY136qcEb4Mnf-106" style="edgeStyle=orthogonalEdgeStyle;rounded=0;orthogonalLoop=1;jettySize=auto;html=1;entryX=0;entryY=0.5;entryDx=0;entryDy=0;" parent="1" source="zcXtujwmY136qcEb4Mnf-103" target="zcXtujwmY136qcEb4Mnf-101" edge="1">
          <mxGeometry relative="1" as="geometry">
            <Array as="points">
              <mxPoint x="690" y="-50" />
              <mxPoint x="690" y="106" />
            </Array>
          </mxGeometry>
        </mxCell>
        <mxCell id="zcXtujwmY136qcEb4Mnf-103" value="" style="image;html=1;image=img/lib/clip_art/computers/Server_Tower_128x128.png" parent="1" vertex="1">
          <mxGeometry x="590" y="-90" width="80" height="80" as="geometry" />
        </mxCell>
        <mxCell id="zcXtujwmY136qcEb4Mnf-168" value="Public Facing" style="whiteSpace=wrap;html=1;fillColor=light-dark(#FFFFFF,#5C5749);align=left;verticalAlign=top;" parent="1" vertex="1">
          <mxGeometry x="903" y="-444" width="253" height="307" as="geometry" />
        </mxCell>
        <mxCell id="Lif8JBEafslfNm7ranTe-2" value="" style="shape=mxgraph.gcp2.google_cloud_platform;fillColor=#F6F6F6;strokeColor=none;shadow=0;gradientColor=none;" parent="1" vertex="1">
          <mxGeometry x="830" y="-500" width="23" height="20" as="geometry">
            <mxPoint x="20" y="10" as="offset" />
          </mxGeometry>
        </mxCell>
        <mxCell id="zcXtujwmY136qcEb4Mnf-33" value="&lt;b&gt;&lt;font&gt;Data layer&lt;/font&gt;&lt;/b&gt;" style="rounded=1;absoluteArcSize=1;arcSize=2;html=1;strokeColor=#56517e;shadow=0;dashed=0;fontSize=12;align=left;verticalAlign=top;spacing=10;spacingTop=-4;fillColor=#d0cee2;" parent="1" vertex="1">
          <mxGeometry x="1390" y="-40" width="640" height="252" as="geometry" />
        </mxCell>
        <mxCell id="bZfns3RA5erKDMG97pNH-14" style="edgeStyle=orthogonalEdgeStyle;rounded=0;orthogonalLoop=1;jettySize=auto;html=1;strokeColor=light-dark(#000000,#00FF00);entryX=0.5;entryY=1;entryDx=0;entryDy=0;" parent="1" source="zcXtujwmY136qcEb4Mnf-37" target="zcXtujwmY136qcEb4Mnf-161" edge="1">
          <mxGeometry relative="1" as="geometry">
            <mxPoint x="1010" y="-260" as="targetPoint" />
            <Array as="points">
              <mxPoint x="1515" y="-253" />
              <mxPoint x="1010" y="-253" />
            </Array>
          </mxGeometry>
        </mxCell>
        <mxCell id="zcXtujwmY136qcEb4Mnf-37" value="" style="fillColor=#ffffff;strokeColor=#dddddd;shadow=1;strokeWidth=1;rounded=1;absoluteArcSize=1;arcSize=2;" parent="1" vertex="1">
          <mxGeometry x="1430" y="-340" width="170" height="60" as="geometry" />
        </mxCell>
        <mxCell id="zcXtujwmY136qcEb4Mnf-38" value="&lt;font color=&quot;#000000&quot;&gt;Web server&lt;/font&gt;&lt;br&gt;Compute Engine" style="editableCssRules=.*;html=1;fontColor=#999999;shape=image;verticalLabelPosition=middle;verticalAlign=middle;labelPosition=right;align=left;spacingLeft=20;part=1;points=[];imageAspect=0;image=data:image/svg+xml,PHN2ZyB4bWxucz0iaHR0cDovL3d3dy53My5vcmcvMjAwMC9zdmciIHhtbG5zOnY9Imh0dHBzOi8vdmVjdGEuaW8vbmFubyIgd2lkdGg9IjIwIiBoZWlnaHQ9IjIwIiB2aWV3Qm94PSIwIDAgMjAgMjAiPiYjeGE7CTxzdHlsZSB0eXBlPSJ0ZXh0L2NzcyI+JiN4YTsJLnN0MHtmaWxsOiM0Mjg1ZjQ7fSYjeGE7CS5zdDF7ZmlsbDojNjY5ZGY2O30mI3hhOwkuc3Qye2ZpbGw6I2FlY2JmYTt9JiN4YTsJPC9zdHlsZT4mI3hhOwk8cGF0aCBjbGFzcz0ic3QyIiBkPSJNNyA3aDZ2Nkg3eiIvPiYjeGE7CTxwYXRoIGNsYXNzPSJzdDEiIGQ9Ik05IDBoMnY0SDl6TTUgMGgydjRINXptOCAwaDJ2NGgtMnoiLz4mI3hhOwk8cGF0aCBjbGFzcz0ic3QwIiBkPSJNOSAxNmgydjRIOXptLTQgMGgydjRINXptOCAwaDJ2NGgtMnptMy01VjloNHYyem0wIDR2LTJoNHYyem0wLThWNWg0djJ6Ii8+JiN4YTsJPHBhdGggY2xhc3M9InN0MSIgZD0iTTAgMTFWOWg0djJ6bTAgNHYtMmg0djJ6bTAtOFY1aDR2MnoiLz4mI3hhOwk8cGF0aCBjbGFzcz0ic3QyIiBkPSJNMyAzdjE0aDE0VjN6bTEyIDEySDVWNWgxMHoiLz4mI3hhOwk8cGF0aCBjbGFzcz0ic3QxIiBkPSJNMTAgMTBsLTMgM2g2eiIvPiYjeGE7CTxwYXRoIGNsYXNzPSJzdDAiIGQ9Ik0xMyA3bC0zIDMgMyAzeiIvPiYjeGE7PC9zdmc+;" parent="zcXtujwmY136qcEb4Mnf-37" vertex="1">
          <mxGeometry width="30" height="30" relative="1" as="geometry">
            <mxPoint x="15" y="15" as="offset" />
          </mxGeometry>
        </mxCell>
        <mxCell id="zcXtujwmY136qcEb4Mnf-39" value="" style="fillColor=#ffffff;strokeColor=#dddddd;shadow=1;strokeWidth=1;rounded=1;absoluteArcSize=1;arcSize=2;" parent="1" vertex="1">
          <mxGeometry x="1790" y="-340" width="170" height="60" as="geometry" />
        </mxCell>
        <mxCell id="zcXtujwmY136qcEb4Mnf-40" value="&lt;font color=&quot;#ededed&quot;&gt;Backend server&lt;/font&gt;&lt;div&gt;Compute Engine&lt;/div&gt;" style="editableCssRules=.*;html=1;fontColor=#999999;shape=image;verticalLabelPosition=middle;verticalAlign=middle;labelPosition=right;align=left;spacingLeft=20;part=1;points=[];imageAspect=0;image=data:image/svg+xml,PHN2ZyB4bWxucz0iaHR0cDovL3d3dy53My5vcmcvMjAwMC9zdmciIHhtbG5zOnY9Imh0dHBzOi8vdmVjdGEuaW8vbmFubyIgd2lkdGg9IjIwIiBoZWlnaHQ9IjIwIiB2aWV3Qm94PSIwIDAgMjAgMjAiPiYjeGE7CTxzdHlsZSB0eXBlPSJ0ZXh0L2NzcyI+JiN4YTsJLnN0MHtmaWxsOiM0Mjg1ZjQ7fSYjeGE7CS5zdDF7ZmlsbDojNjY5ZGY2O30mI3hhOwkuc3Qye2ZpbGw6I2FlY2JmYTt9JiN4YTsJPC9zdHlsZT4mI3hhOwk8cGF0aCBjbGFzcz0ic3QyIiBkPSJNNyA3aDZ2Nkg3eiIvPiYjeGE7CTxwYXRoIGNsYXNzPSJzdDEiIGQ9Ik05IDBoMnY0SDl6TTUgMGgydjRINXptOCAwaDJ2NGgtMnoiLz4mI3hhOwk8cGF0aCBjbGFzcz0ic3QwIiBkPSJNOSAxNmgydjRIOXptLTQgMGgydjRINXptOCAwaDJ2NGgtMnptMy01VjloNHYyem0wIDR2LTJoNHYyem0wLThWNWg0djJ6Ii8+JiN4YTsJPHBhdGggY2xhc3M9InN0MSIgZD0iTTAgMTFWOWg0djJ6bTAgNHYtMmg0djJ6bTAtOFY1aDR2MnoiLz4mI3hhOwk8cGF0aCBjbGFzcz0ic3QyIiBkPSJNMyAzdjE0aDE0VjN6bTEyIDEySDVWNWgxMHoiLz4mI3hhOwk8cGF0aCBjbGFzcz0ic3QxIiBkPSJNMTAgMTBsLTMgM2g2eiIvPiYjeGE7CTxwYXRoIGNsYXNzPSJzdDAiIGQ9Ik0xMyA3bC0zIDMgMyAzeiIvPiYjeGE7PC9zdmc+;" parent="zcXtujwmY136qcEb4Mnf-39" vertex="1">
          <mxGeometry width="30" height="30" relative="1" as="geometry">
            <mxPoint x="15" y="15" as="offset" />
          </mxGeometry>
        </mxCell>
        <mxCell id="bZfns3RA5erKDMG97pNH-8" style="edgeStyle=orthogonalEdgeStyle;rounded=0;orthogonalLoop=1;jettySize=auto;html=1;strokeColor=light-dark(#000000,#CC6600);" parent="1" source="zcXtujwmY136qcEb4Mnf-50" target="zcXtujwmY136qcEb4Mnf-37" edge="1">
          <mxGeometry relative="1" as="geometry">
            <Array as="points">
              <mxPoint x="1010" y="-434" />
              <mxPoint x="1515" y="-434" />
            </Array>
          </mxGeometry>
        </mxCell>
        <mxCell id="zcXtujwmY136qcEb4Mnf-50" value="" style="fillColor=#ffffff;strokeColor=#dddddd;shadow=1;strokeWidth=1;rounded=1;absoluteArcSize=1;arcSize=2;" parent="1" vertex="1">
          <mxGeometry x="910" y="-413" width="209" height="68" as="geometry" />
        </mxCell>
        <mxCell id="zcXtujwmY136qcEb4Mnf-51" value="&lt;div&gt;&lt;font color=&quot;#ededed&quot;&gt;External HTTPS&lt;/font&gt;&lt;/div&gt;&lt;div&gt;Cloud Load Balancing&lt;/div&gt;" style="editableCssRules=.*;html=1;fontColor=#999999;shape=image;verticalLabelPosition=middle;verticalAlign=middle;labelPosition=right;align=left;spacingLeft=20;part=1;points=[];imageAspect=0;image=data:image/svg+xml,PHN2ZyB4bWxucz0iaHR0cDovL3d3dy53My5vcmcvMjAwMC9zdmciIHhtbG5zOnY9Imh0dHBzOi8vdmVjdGEuaW8vbmFubyIgd2lkdGg9IjIwIiBoZWlnaHQ9IjIwIiB2aWV3Qm94PSIwIDAgMjAgMjAiPiYjeGE7CTxzdHlsZSB0eXBlPSJ0ZXh0L2NzcyI+JiN4YTsJLnN0MHtmaWxsOiM0Mjg1ZjQ7fSYjeGE7CS5zdDF7ZmlsbDojNjY5ZGY2O30mI3hhOwkuc3Qye2ZpbGw6I2FlY2JmYTt9JiN4YTsJPC9zdHlsZT4mI3hhOwk8cGF0aCBjbGFzcz0ic3QxIiBkPSJNMTYgMTBoMnY0aC0yem0tNyAwaDJ2NEg5em0tNyAwaDJ2NEgyeiIvPiYjeGE7CTxwYXRoIGNsYXNzPSJzdDAiIGQ9Ik05IDVoMnY0SDl6Ii8+JiN4YTsJPHBhdGggY2xhc3M9InN0MSIgZD0iTTIgOWgxNnYySDJ6Ii8+JiN4YTsJPHBhdGggY2xhc3M9InN0MiIgZD0iTTQgMGgxMnY1SDR6Ii8+JiN4YTsJPHBhdGggY2xhc3M9InN0MSIgZD0iTTEwIDBoNnY1aC02eiIvPiYjeGE7CTxwYXRoIGNsYXNzPSJzdDIiIGQ9Ik0xNCAxNGg2djZoLTZ6TTAgMTRoNnY2SDB6Ii8+JiN4YTsJPHBhdGggY2xhc3M9InN0MSIgZD0iTTMgMTRoM3Y2SDN6Ii8+JiN4YTsJPHBhdGggY2xhc3M9InN0MiIgZD0iTTcgMTRoNnY2SDd6Ii8+JiN4YTsJPHBhdGggY2xhc3M9InN0MSIgZD0iTTEwIDE0aDN2NmgtM3ptNyAwaDN2NmgtM3oiLz4mI3hhOzwvc3ZnPg==;" parent="zcXtujwmY136qcEb4Mnf-50" vertex="1">
          <mxGeometry width="30" height="30" relative="1" as="geometry">
            <mxPoint x="15" y="15" as="offset" />
          </mxGeometry>
        </mxCell>
        <mxCell id="bZfns3RA5erKDMG97pNH-33" value="Domain: abchospital.com" style="text;strokeColor=none;align=left;fillColor=none;html=1;verticalAlign=middle;whiteSpace=wrap;rounded=0;" parent="zcXtujwmY136qcEb4Mnf-50" vertex="1">
          <mxGeometry x="55" y="38" width="154" height="30" as="geometry" />
        </mxCell>
        <mxCell id="bZfns3RA5erKDMG97pNH-10" style="edgeStyle=orthogonalEdgeStyle;rounded=0;orthogonalLoop=1;jettySize=auto;html=1;entryX=0.5;entryY=0;entryDx=0;entryDy=0;strokeColor=light-dark(#000000,#CC6600);" parent="1" source="zcXtujwmY136qcEb4Mnf-52" target="bZfns3RA5erKDMG97pNH-3" edge="1">
          <mxGeometry relative="1" as="geometry">
            <Array as="points">
              <mxPoint x="1545" y="-370" />
              <mxPoint x="1880" y="-371" />
            </Array>
          </mxGeometry>
        </mxCell>
        <mxCell id="zcXtujwmY136qcEb4Mnf-52" value="" style="fillColor=#ffffff;strokeColor=#dddddd;shadow=1;strokeWidth=1;rounded=1;absoluteArcSize=1;arcSize=2;" parent="1" vertex="1">
          <mxGeometry x="1175" y="-400" width="151" height="67.5" as="geometry" />
        </mxCell>
        <mxCell id="zcXtujwmY136qcEb4Mnf-53" value="&lt;div&gt;&lt;font color=&quot;#d1d1d1&quot;&gt;Internal&lt;/font&gt;&lt;/div&gt;&lt;div&gt;&lt;span style=&quot;background-color: transparent; color: light-dark(rgb(153, 153, 153), rgb(106, 106, 106));&quot;&gt;Cloud Load Balancing&lt;/span&gt;&lt;/div&gt;" style="editableCssRules=.*;html=1;fontColor=#999999;shape=image;verticalLabelPosition=middle;verticalAlign=middle;labelPosition=right;align=left;spacingLeft=20;part=1;points=[];imageAspect=0;image=data:image/svg+xml,PHN2ZyB4bWxucz0iaHR0cDovL3d3dy53My5vcmcvMjAwMC9zdmciIHhtbG5zOnY9Imh0dHBzOi8vdmVjdGEuaW8vbmFubyIgd2lkdGg9IjIwIiBoZWlnaHQ9IjIwIiB2aWV3Qm94PSIwIDAgMjAgMjAiPiYjeGE7CTxzdHlsZSB0eXBlPSJ0ZXh0L2NzcyI+JiN4YTsJLnN0MHtmaWxsOiM0Mjg1ZjQ7fSYjeGE7CS5zdDF7ZmlsbDojNjY5ZGY2O30mI3hhOwkuc3Qye2ZpbGw6I2FlY2JmYTt9JiN4YTsJPC9zdHlsZT4mI3hhOwk8cGF0aCBjbGFzcz0ic3QxIiBkPSJNMTYgMTBoMnY0aC0yem0tNyAwaDJ2NEg5em0tNyAwaDJ2NEgyeiIvPiYjeGE7CTxwYXRoIGNsYXNzPSJzdDAiIGQ9Ik05IDVoMnY0SDl6Ii8+JiN4YTsJPHBhdGggY2xhc3M9InN0MSIgZD0iTTIgOWgxNnYySDJ6Ii8+JiN4YTsJPHBhdGggY2xhc3M9InN0MiIgZD0iTTQgMGgxMnY1SDR6Ii8+JiN4YTsJPHBhdGggY2xhc3M9InN0MSIgZD0iTTEwIDBoNnY1aC02eiIvPiYjeGE7CTxwYXRoIGNsYXNzPSJzdDIiIGQ9Ik0xNCAxNGg2djZoLTZ6TTAgMTRoNnY2SDB6Ii8+JiN4YTsJPHBhdGggY2xhc3M9InN0MSIgZD0iTTMgMTRoM3Y2SDN6Ii8+JiN4YTsJPHBhdGggY2xhc3M9InN0MiIgZD0iTTcgMTRoNnY2SDd6Ii8+JiN4YTsJPHBhdGggY2xhc3M9InN0MSIgZD0iTTEwIDE0aDN2NmgtM3ptNyAwaDN2NmgtM3oiLz4mI3hhOzwvc3ZnPg==;" parent="zcXtujwmY136qcEb4Mnf-52" vertex="1">
          <mxGeometry width="30" height="30" relative="1" as="geometry">
            <mxPoint x="15" y="15" as="offset" />
          </mxGeometry>
        </mxCell>
        <mxCell id="bZfns3RA5erKDMG97pNH-34" value="domain: api.abchospital.com" style="text;strokeColor=none;align=center;fillColor=none;html=1;verticalAlign=middle;whiteSpace=wrap;rounded=0;" parent="zcXtujwmY136qcEb4Mnf-52" vertex="1">
          <mxGeometry y="37.5" width="151" height="30" as="geometry" />
        </mxCell>
        <mxCell id="bZfns3RA5erKDMG97pNH-20" style="edgeStyle=orthogonalEdgeStyle;rounded=0;orthogonalLoop=1;jettySize=auto;html=1;entryX=0;entryY=0.75;entryDx=0;entryDy=0;fillColor=#60a917;strokeColor=light-dark(#000000,#00FF00);" parent="1" edge="1">
          <mxGeometry relative="1" as="geometry">
            <mxPoint x="1110" y="66" as="sourcePoint" />
            <mxPoint x="1370" y="71" as="targetPoint" />
            <Array as="points">
              <mxPoint x="1240" y="66" />
              <mxPoint x="1240" y="68" />
              <mxPoint x="1370" y="68" />
            </Array>
          </mxGeometry>
        </mxCell>
        <mxCell id="Emlw189iFecIY5IHkh1l-32" style="edgeStyle=orthogonalEdgeStyle;rounded=0;orthogonalLoop=1;jettySize=auto;html=1;entryX=0;entryY=0.5;entryDx=0;entryDy=0;strokeColor=light-dark(#000000,#CC6600);align=center;verticalAlign=middle;fontFamily=Helvetica;fontSize=11;fontColor=default;labelBackgroundColor=default;endArrow=classic;" edge="1" parent="1" source="zcXtujwmY136qcEb4Mnf-95" target="bZfns3RA5erKDMG97pNH-1">
          <mxGeometry relative="1" as="geometry" />
        </mxCell>
        <mxCell id="zcXtujwmY136qcEb4Mnf-95" value="" style="fillColor=#ffffff;strokeColor=#dddddd;shadow=1;strokeWidth=1;rounded=1;absoluteArcSize=1;arcSize=2;" parent="1" vertex="1">
          <mxGeometry x="910" y="-227" width="126" height="60" as="geometry" />
        </mxCell>
        <mxCell id="zcXtujwmY136qcEb4Mnf-96" value="&lt;font color=&quot;#000000&quot;&gt;Name&lt;/font&gt;&lt;br&gt;Cloud VPN" style="editableCssRules=.*;html=1;fontColor=#999999;shape=image;verticalLabelPosition=middle;verticalAlign=middle;labelPosition=right;align=left;spacingLeft=20;part=1;points=[];imageAspect=0;image=data:image/svg+xml,PHN2ZyB4bWxucz0iaHR0cDovL3d3dy53My5vcmcvMjAwMC9zdmciIHhtbG5zOnY9Imh0dHBzOi8vdmVjdGEuaW8vbmFubyIgd2lkdGg9IjE3Ljk1MDAwMDc2MjkzOTQ1MyIgaGVpZ2h0PSIyMCIgdmlld0JveD0iMCAwIDE3Ljk1MDAwMDc2MjkzOTQ1MyAyMCI+JiN4YTsJPHN0eWxlIHR5cGU9InRleHQvY3NzIj4mI3hhOwkuc3Qwe2ZpbGw6IzQyODVmNDt9JiN4YTsJLnN0MXtmaWxsOiM2NjlkZjY7fSYjeGE7CTwvc3R5bGU+JiN4YTsJPGcgY2xhc3M9InN0MSI+JiN4YTsJCTxwYXRoIGQ9Ik0xMS43IDkuMjhoNC4xOHYxLjM4SDExLjd6Ii8+JiN4YTsJCTxwYXRoIGQ9Ik0xNC45MiA0LjEyaDEuMzh2MTEuNzFoLTEuMzh6Ii8+JiN4YTsJPC9nPiYjeGE7CTxnIGNsYXNzPSJzdDAiPiYjeGE7CQk8cmVjdCB4PSIxMy4yNyIgeT0iMTUuMzIiIHdpZHRoPSI0LjY4IiBoZWlnaHQ9IjQuNjgiIHJ4PSIuMjgiLz4mI3hhOwkJPHJlY3QgeD0iMTMuMjciIHdpZHRoPSI0LjY4IiBoZWlnaHQ9IjQuNjgiIHJ4PSIuMjgiLz4mI3hhOwk8L2c+JiN4YTsJPHBhdGggY2xhc3M9InN0MSIgZD0iTTMuOTUgOS4yOGg0LjI4djEuMzhIMy45NXoiLz4mI3hhOwk8ZyBjbGFzcz0ic3QwIj4mI3hhOwkJPHJlY3QgeT0iNy42MyIgd2lkdGg9IjQuNjgiIGhlaWdodD0iNC42OCIgcng9Ii4yOCIvPiYjeGE7CQk8cGF0aCBkPSJNOS45NyAxMi4xN2EyLjIgMi4yIDAgMSAxIDAtNC40IDIuMiAyLjIgMCAwIDEgMi4yIDIuMiAyLjE5IDIuMTkgMCAwIDEtMi4yIDIuMnptMC0zLjU3YTEuMzggMS4zOCAwIDAgMC0xLjA1IDIuMzNBMS4zOCAxLjM4IDAgMCAwIDExLjMgMTBhMS4zNyAxLjM3IDAgMCAwLTEuMzMtMS40eiIvPiYjeGE7CTwvZz4mI3hhOzwvc3ZnPg==;" parent="zcXtujwmY136qcEb4Mnf-95" vertex="1">
          <mxGeometry width="27" height="30" relative="1" as="geometry">
            <mxPoint x="16.5" y="15" as="offset" />
          </mxGeometry>
        </mxCell>
        <mxCell id="zcXtujwmY136qcEb4Mnf-161" value="" style="fillColor=#ffffff;strokeColor=#dddddd;shadow=1;strokeWidth=1;rounded=1;absoluteArcSize=1;arcSize=2;" parent="1" vertex="1">
          <mxGeometry x="910" y="-330" width="200" height="60" as="geometry" />
        </mxCell>
        <mxCell id="zcXtujwmY136qcEb4Mnf-162" value="&lt;div&gt;&lt;span style=&quot;background-color: transparent;&quot;&gt;&lt;font color=&quot;#212121&quot;&gt;NAT gateway&lt;/font&gt;&lt;/span&gt;&lt;/div&gt;&lt;div&gt;&lt;span style=&quot;background-color: transparent; color: light-dark(rgb(153, 153, 153), rgb(106, 106, 106));&quot;&gt;GCP NAT&lt;/span&gt;&lt;/div&gt;" style="editableCssRules=.*;html=1;fontColor=#999999;shape=image;verticalLabelPosition=middle;verticalAlign=middle;labelPosition=right;align=left;spacingLeft=20;part=1;points=[];imageAspect=0;image=data:image/svg+xml,PHN2ZyB4bWxucz0iaHR0cDovL3d3dy53My5vcmcvMjAwMC9zdmciIHhtbG5zOnY9Imh0dHBzOi8vdmVjdGEuaW8vbmFubyIgd2lkdGg9IjIwIiBoZWlnaHQ9IjIwIiB2aWV3Qm94PSIwIDAgMjAgMjAiPiYjeGE7CTxzdHlsZSB0eXBlPSJ0ZXh0L2NzcyI+JiN4YTsJLnN0MHtmaWxsOiM0Mjg1ZjQ7fSYjeGE7CS5zdDF7ZmlsbDojNjY5ZGY2O30mI3hhOwkuc3Qye2ZpbGw6I2FlY2JmYTt9JiN4YTsJPC9zdHlsZT4mI3hhOwk8cGF0aCBjbGFzcz0ic3QxIiBkPSJNMTYgMTBoMnY0aC0yem0tNyAwaDJ2NEg5em0tNyAwaDJ2NEgyeiIvPiYjeGE7CTxwYXRoIGNsYXNzPSJzdDAiIGQ9Ik05IDVoMnY0SDl6Ii8+JiN4YTsJPHBhdGggY2xhc3M9InN0MSIgZD0iTTIgOWgxNnYySDJ6Ii8+JiN4YTsJPHBhdGggY2xhc3M9InN0MiIgZD0iTTQgMGgxMnY1SDR6Ii8+JiN4YTsJPHBhdGggY2xhc3M9InN0MSIgZD0iTTEwIDBoNnY1aC02eiIvPiYjeGE7CTxwYXRoIGNsYXNzPSJzdDIiIGQ9Ik0xNCAxNGg2djZoLTZ6TTAgMTRoNnY2SDB6Ii8+JiN4YTsJPHBhdGggY2xhc3M9InN0MSIgZD0iTTMgMTRoM3Y2SDN6Ii8+JiN4YTsJPHBhdGggY2xhc3M9InN0MiIgZD0iTTcgMTRoNnY2SDd6Ii8+JiN4YTsJPHBhdGggY2xhc3M9InN0MSIgZD0iTTEwIDE0aDN2NmgtM3ptNyAwaDN2NmgtM3oiLz4mI3hhOzwvc3ZnPg==;" parent="zcXtujwmY136qcEb4Mnf-161" vertex="1">
          <mxGeometry width="30" height="30" relative="1" as="geometry">
            <mxPoint x="15" y="15" as="offset" />
          </mxGeometry>
        </mxCell>
        <mxCell id="zcXtujwmY136qcEb4Mnf-160" value="" style="shape=image;verticalLabelPosition=bottom;labelBackgroundColor=default;verticalAlign=top;aspect=fixed;imageAspect=0;image=https://miro.medium.com/v2/resize:fit:308/1*BunLkF4m0IU-48L5qX4l0Q.png;" parent="zcXtujwmY136qcEb4Mnf-161" vertex="1">
          <mxGeometry x="16" y="15" width="28" height="28" as="geometry" />
        </mxCell>
        <mxCell id="zcXtujwmY136qcEb4Mnf-188" value="&lt;b&gt;&lt;font style=&quot;font-size: 13px;&quot;&gt;Monitoring and Logging&lt;/font&gt;&lt;/b&gt;" style="rounded=1;absoluteArcSize=1;arcSize=2;html=1;strokeColor=#82B366;shadow=0;dashed=0;fontSize=12;align=left;verticalAlign=top;spacing=10;spacingTop=-4;fillColor=light-dark(#D5E8D4,#4D754B);" parent="1" vertex="1">
          <mxGeometry x="889" y="276" width="1152" height="178" as="geometry" />
        </mxCell>
        <mxCell id="zcXtujwmY136qcEb4Mnf-190" value="" style="fillColor=#ffffff;strokeColor=#dddddd;shadow=1;strokeWidth=1;rounded=1;absoluteArcSize=1;arcSize=2;" parent="1" vertex="1">
          <mxGeometry x="946" y="337" width="120" height="60" as="geometry" />
        </mxCell>
        <mxCell id="zcXtujwmY136qcEb4Mnf-191" value="Cloud&#xa;Logging" style="editableCssRules=.*;html=1;fontColor=#999999;shape=image;verticalLabelPosition=middle;verticalAlign=middle;labelPosition=right;align=left;spacingLeft=20;part=1;points=[];imageAspect=0;image=data:image/svg+xml,PHN2ZyB4bWxucz0iaHR0cDovL3d3dy53My5vcmcvMjAwMC9zdmciIHhtbG5zOnY9Imh0dHBzOi8vdmVjdGEuaW8vbmFubyIgd2lkdGg9IjIwIiBoZWlnaHQ9IjE5IiB2aWV3Qm94PSIwIDAgMjAgMTkiPiYjeGE7CTxzdHlsZSB0eXBlPSJ0ZXh0L2NzcyI+JiN4YTsJLnN0MHtmaWxsOiM0Mjg1ZjQ7fSYjeGE7CS5zdDF7ZmlsbDojNjY5ZGY2O30mI3hhOwkuc3Qye2ZpbGw6I2FlY2JmYTt9JiN4YTsJPC9zdHlsZT4mI3hhOwk8ZyBjbGFzcz0ic3QwIj4mI3hhOwkJPHBhdGggZD0iTTQgOWg0djJINHptLTIgN2g2djJIMnoiLz4mI3hhOwkJPHBhdGggZD0iTTQgNEgydjEyaDJ6Ii8+JiN4YTsJPC9nPiYjeGE7CTxwYXRoIGNsYXNzPSJzdDEiIGQ9Ik0yMCAxSDd2NGgxM3ptMCA3SDd2NGgxM3ptMCA3SDd2NGgxM3oiLz4mI3hhOwk8cGF0aCBjbGFzcz0ic3QyIiBkPSJNNiAwSDB2Nmg2eiIvPiYjeGE7PC9zdmc+;" parent="zcXtujwmY136qcEb4Mnf-190" vertex="1">
          <mxGeometry width="30" height="28" relative="1" as="geometry">
            <mxPoint x="15" y="16" as="offset" />
          </mxGeometry>
        </mxCell>
        <mxCell id="zcXtujwmY136qcEb4Mnf-192" value="" style="fillColor=#ffffff;strokeColor=#dddddd;shadow=1;strokeWidth=1;rounded=1;absoluteArcSize=1;arcSize=2;" parent="1" vertex="1">
          <mxGeometry x="1119" y="337" width="170" height="60" as="geometry" />
        </mxCell>
        <mxCell id="zcXtujwmY136qcEb4Mnf-193" value="&lt;font color=&quot;#000000&quot;&gt;Name&lt;/font&gt;&lt;br&gt;Cloud Monitoring" style="editableCssRules=.*;html=1;fontColor=#999999;shape=image;verticalLabelPosition=middle;verticalAlign=middle;labelPosition=right;align=left;spacingLeft=20;part=1;points=[];imageAspect=0;image=data:image/svg+xml,PHN2ZyB4bWxucz0iaHR0cDovL3d3dy53My5vcmcvMjAwMC9zdmciIHhtbG5zOnY9Imh0dHBzOi8vdmVjdGEuaW8vbmFubyIgd2lkdGg9IjIwIiBoZWlnaHQ9IjEzLjUyOTk5OTczMjk3MTE5MSIgdmlld0JveD0iLTIuOTMyMDk3ODk3ODEyMDE0ZS05IC01LjI1ODAxNTA0MTgzNzk1NmUtMTUgMjAgMTMuNTI5OTk5NzMyOTcxMTkxIj4mI3hhOwk8c3R5bGUgdHlwZT0idGV4dC9jc3MiPiYjeGE7CS5zdDB7ZmlsbDojNDI4NWY0O30mI3hhOwkuc3Qxe2ZpbGw6IzY2OWRmNjt9JiN4YTsJPC9zdHlsZT4mI3hhOwk8cGF0aCBjbGFzcz0ic3QxIiBkPSJNOC44MyAxMC41OGgyLjMzdjIuNjRIOC44M3oiLz4mI3hhOwk8cGF0aCBjbGFzcz0ic3QwIiBkPSJNMTYuNDggOC42MWEuNTYuNTYgMCAwIDEtLjQtLjE3TDEyIDQuMjEgOS4yNiA3LjFhLjU3LjU3IDAgMCAxLS43Ni4wNUw2LjQyIDUuNDdsLTIuMiAyLjkyYS41Ni41NiAwIDAgMS0uNDUuMjJIMHYxLjcxYS43NS43NSAwIDAgMCAuNzQuNzVoMTguNTJhLjc1Ljc1IDAgMCAwIC43NC0uNzVWOC42MXoiLz4mI3hhOwk8cGF0aCBjbGFzcz0ic3QxIiBkPSJNMy41IDcuNWwyLjM4LTMuMTZhLjU1LjU1IDAgMCAxIC4zNy0uMjIuNjMuNjMgMCAwIDEgLjQyLjEybDIuMTIgMS43MiAyLjgtMi45NGEuNTQuNTQgMCAwIDEgLjQtLjE3aDBhLjU0LjU0IDAgMCAxIC40LjE3bDQuMzMgNC40OEgyMFYuNzRhLjc0Ljc0IDAgMCAwLS43NC0uNzRILjc0QS43NC43NCAwIDAgMCAwIC43NHY2LjgxeiIvPiYjeGE7CTxyZWN0IGNsYXNzPSJzdDAiIHg9IjYuNjciIHk9IjEyLjkyIiB3aWR0aD0iNi42NyIgaGVpZ2h0PSIuNjEiIHJ4PSIuMyIvPiYjeGE7PC9zdmc+;" parent="zcXtujwmY136qcEb4Mnf-192" vertex="1">
          <mxGeometry width="30" height="21" relative="1" as="geometry">
            <mxPoint x="15" y="19.5" as="offset" />
          </mxGeometry>
        </mxCell>
        <mxCell id="zcXtujwmY136qcEb4Mnf-196" style="edgeStyle=orthogonalEdgeStyle;rounded=0;orthogonalLoop=1;jettySize=auto;html=1;exitX=0.5;exitY=0;exitDx=0;exitDy=0;entryX=0.75;entryY=0;entryDx=0;entryDy=0;" parent="1" edge="1">
          <mxGeometry relative="1" as="geometry">
            <mxPoint x="1428.9999999999995" y="341" as="sourcePoint" />
            <mxPoint x="1439.5" y="341" as="targetPoint" />
          </mxGeometry>
        </mxCell>
        <mxCell id="zcXtujwmY136qcEb4Mnf-92" style="edgeStyle=orthogonalEdgeStyle;rounded=0;orthogonalLoop=1;jettySize=auto;html=1;entryX=0;entryY=0.25;entryDx=0;entryDy=0;strokeColor=light-dark(#000000,#CC6600);" parent="1" target="zcXtujwmY136qcEb4Mnf-95" edge="1">
          <mxGeometry relative="1" as="geometry">
            <mxPoint x="781" y="106" as="sourcePoint" />
            <Array as="points">
              <mxPoint x="853" y="106" />
              <mxPoint x="853" y="-212" />
            </Array>
          </mxGeometry>
        </mxCell>
        <mxCell id="bZfns3RA5erKDMG97pNH-18" value="Tunnel 1" style="edgeLabel;html=1;align=center;verticalAlign=middle;resizable=0;points=[];" parent="zcXtujwmY136qcEb4Mnf-92" vertex="1" connectable="0">
          <mxGeometry x="0.5271" relative="1" as="geometry">
            <mxPoint x="-10" y="-51" as="offset" />
          </mxGeometry>
        </mxCell>
        <mxCell id="zcXtujwmY136qcEb4Mnf-85" style="edgeStyle=orthogonalEdgeStyle;rounded=0;orthogonalLoop=1;jettySize=auto;html=1;entryX=0;entryY=0.5;entryDx=0;entryDy=0;strokeColor=light-dark(#000000,#990000);" parent="1" source="Lif8JBEafslfNm7ranTe-9" target="zcXtujwmY136qcEb4Mnf-50" edge="1">
          <mxGeometry relative="1" as="geometry" />
        </mxCell>
        <mxCell id="zcXtujwmY136qcEb4Mnf-84" style="edgeStyle=orthogonalEdgeStyle;rounded=0;orthogonalLoop=1;jettySize=auto;html=1;entryX=0;entryY=0.5;entryDx=0;entryDy=0;strokeColor=light-dark(#000000,#990000);" parent="1" source="Lif8JBEafslfNm7ranTe-6" target="zcXtujwmY136qcEb4Mnf-50" edge="1">
          <mxGeometry relative="1" as="geometry" />
        </mxCell>
        <mxCell id="bZfns3RA5erKDMG97pNH-5" value="&lt;b&gt;data-subnet 172.18.3.0/24&lt;/b&gt;" style="rounded=1;absoluteArcSize=1;arcSize=2;html=1;strokeColor=light-dark(#314354,#4D4D4D);shadow=0;dashed=0;fontSize=12;fontColor=#ffffff;align=left;verticalAlign=bottom;spacing=10;spacingTop=-4;fillColor=light-dark(#647687,#FFCE9F);" parent="1" vertex="1">
          <mxGeometry x="1434" y="-4" width="222" height="186.75" as="geometry" />
        </mxCell>
        <mxCell id="zcXtujwmY136qcEb4Mnf-41" value="" style="fillColor=#ffffff;strokeColor=#dddddd;shadow=1;strokeWidth=1;rounded=1;absoluteArcSize=1;arcSize=2;" parent="1" vertex="1">
          <mxGeometry x="1440" y="18" width="210" height="60" as="geometry" />
        </mxCell>
        <mxCell id="zcXtujwmY136qcEb4Mnf-42" value="&lt;font color=&quot;#000000&quot;&gt;Postgres - Transaction DB&lt;/font&gt;&lt;br&gt;Cloud SQL" style="editableCssRules=.*;html=1;fontColor=#999999;shape=image;verticalLabelPosition=middle;verticalAlign=middle;labelPosition=right;align=left;spacingLeft=20;part=1;points=[];imageAspect=0;image=data:image/svg+xml,PHN2ZyB4bWxucz0iaHR0cDovL3d3dy53My5vcmcvMjAwMC9zdmciIHhtbG5zOnY9Imh0dHBzOi8vdmVjdGEuaW8vbmFubyIgd2lkdGg9IjE0LjY1OTk5OTg0NzQxMjExIiBoZWlnaHQ9IjIwIiB2aWV3Qm94PSIwIDAgMTQuNjU5OTk5ODQ3NDEyMTEgMjAiPiYjeGE7CTxzdHlsZSB0eXBlPSJ0ZXh0L2NzcyI+JiN4YTsJLnN0MHtmaWxsOiM0Mjg1ZjQ7fSYjeGE7CS5zdDF7ZmlsbDojNjY5ZGY2O30mI3hhOwkuc3Qye2ZpbGw6I2FlY2JmYTt9JiN4YTsJPC9zdHlsZT4mI3hhOwk8c3R5bGU+JiN4YTsJCS5Ee2ZpbGwtcnVsZTpldmVub2RkfSYjeGE7CTwvc3R5bGU+JiN4YTsJPHBhdGggZD0iTTcuMzMgMTUuMzV2LTMuMDFMMCA4LjQ0djMuMDF6bTAgNC42NXYtMy4wMUwwIDEzLjA5djMuMDF6IiBjbGFzcz0ic3QyIEQiLz4mI3hhOwk8cGF0aCBkPSJNMTQuNjYgOC40NGwtNy4zMyAzLjl2My4wMWw3LjMzLTMuOXptMCA0LjY1bC03LjMzIDMuOVYyMGw3LjMzLTMuOXoiIGNsYXNzPSJzdDEgRCIvPiYjeGE7CTxwYXRoIGQ9Ik03LjMzIDB2My4wMWw3LjMzIDMuOVYzLjl6IiBjbGFzcz0ic3QwIEQiLz4mI3hhOwk8cGF0aCBkPSJNMCA2LjkxbDcuMzMtMy45VjBMMCAzLjl6IiBjbGFzcz0iRCBzdDEiLz4mI3hhOwk8cGF0aCBkPSJNNy4zMyAxMC43OVY3Ljc3TDAgMy44N3YzLjAyeiIgY2xhc3M9IkQgc3QyIi8+JiN4YTsJPHBhdGggZD0iTTE0LjY2IDMuODdsLTcuMzMgMy45djMuMDJsNy4zMy0zLjl6IiBjbGFzcz0iRCBzdDEiLz4mI3hhOzwvc3ZnPg==;" parent="zcXtujwmY136qcEb4Mnf-41" vertex="1">
          <mxGeometry width="22" height="30" relative="1" as="geometry">
            <mxPoint x="19" y="15" as="offset" />
          </mxGeometry>
        </mxCell>
        <mxCell id="bZfns3RA5erKDMG97pNH-6" value="&lt;b&gt;private-connect&lt;/b&gt;" style="rounded=1;absoluteArcSize=1;arcSize=2;html=1;strokeColor=light-dark(#314354,#4D4D4D);shadow=0;dashed=0;fontSize=12;fontColor=#ffffff;align=left;verticalAlign=bottom;spacing=10;spacingTop=-4;fillColor=light-dark(#647687,#FFCE9F);" parent="1" vertex="1">
          <mxGeometry x="1761" y="-4" width="222" height="186.75" as="geometry" />
        </mxCell>
        <mxCell id="zcXtujwmY136qcEb4Mnf-43" value="" style="fillColor=#ffffff;strokeColor=#dddddd;shadow=1;strokeWidth=1;rounded=1;absoluteArcSize=1;arcSize=2;" parent="1" vertex="1">
          <mxGeometry x="1773" y="18" width="181" height="60" as="geometry" />
        </mxCell>
        <mxCell id="zcXtujwmY136qcEb4Mnf-44" value="&lt;font color=&quot;#000000&quot;&gt;Documents storage&lt;/font&gt;&lt;br&gt;Cloud Storage" style="editableCssRules=.*;html=1;fontColor=#999999;shape=image;verticalLabelPosition=middle;verticalAlign=middle;labelPosition=right;align=left;spacingLeft=20;part=1;points=[];imageAspect=0;image=data:image/svg+xml,PHN2ZyB4bWxucz0iaHR0cDovL3d3dy53My5vcmcvMjAwMC9zdmciIHhtbG5zOnY9Imh0dHBzOi8vdmVjdGEuaW8vbmFubyIgd2lkdGg9IjIwIiBoZWlnaHQ9IjE2IiB2aWV3Qm94PSIwIDAgMjAgMTYiPiYjeGE7CTxzdHlsZSB0eXBlPSJ0ZXh0L2NzcyI+JiN4YTsJLnN0MHtmaWxsOiM0Mjg1ZjQ7fSYjeGE7CS5zdDF7ZmlsbDojNjY5ZGY2O30mI3hhOwkuc3Qye2ZpbGw6I2FlY2JmYTt9JiN4YTsJLnN0M3tmaWxsOiNmZmY7fSYjeGE7CTwvc3R5bGU+JiN4YTsJPHBhdGggY2xhc3M9InN0MiIgZD0iTTAgMGgyMHY3SDB6Ii8+JiN4YTsJPHBhdGggY2xhc3M9InN0MSIgZD0iTTE4IDBoMnY3aC0yeiIvPiYjeGE7CTxwYXRoIGNsYXNzPSJzdDAiIGQ9Ik0xOCA3bDItN2gtMnoiLz4mI3hhOwk8cGF0aCBjbGFzcz0ic3QxIiBkPSJNMCAwaDJ2N0gweiIvPiYjeGE7CTxnIGNsYXNzPSJzdDMiPiYjeGE7CQk8cGF0aCBkPSJNNCAzaDZ2MUg0eiIvPiYjeGE7CQk8cmVjdCB4PSIxMyIgeT0iMiIgd2lkdGg9IjMiIGhlaWdodD0iMyIgcng9IjEuNSIvPiYjeGE7CTwvZz4mI3hhOwk8cGF0aCBjbGFzcz0ic3QyIiBkPSJNMCA5aDIwdjdIMHoiLz4mI3hhOwk8cGF0aCBjbGFzcz0ic3QxIiBkPSJNMTggOWgydjdoLTJ6Ii8+JiN4YTsJPHBhdGggY2xhc3M9InN0MCIgZD0iTTE4IDE2bDItN2gtMnoiLz4mI3hhOwk8cGF0aCBjbGFzcz0ic3QxIiBkPSJNMCA5aDJ2N0gweiIvPiYjeGE7CTxnIGNsYXNzPSJzdDMiPiYjeGE7CQk8cGF0aCBkPSJNNCAxMmg2djFINHoiLz4mI3hhOwkJPHJlY3QgeD0iMTMiIHk9IjExIiB3aWR0aD0iMyIgaGVpZ2h0PSIzIiByeD0iMS41Ii8+JiN4YTsJPC9nPiYjeGE7PC9zdmc+;" parent="zcXtujwmY136qcEb4Mnf-43" vertex="1">
          <mxGeometry width="30" height="24" relative="1" as="geometry">
            <mxPoint x="15" y="18" as="offset" />
          </mxGeometry>
        </mxCell>
        <mxCell id="bZfns3RA5erKDMG97pNH-35" value="" style="sketch=0;html=1;verticalAlign=top;labelPosition=center;verticalLabelPosition=bottom;align=center;spacingTop=-6;fontSize=11;fontStyle=1;fontColor=#999999;shape=image;aspect=fixed;imageAspect=0;image=data:image/svg+xml,PHN2ZyB4bWxucz0iaHR0cDovL3d3dy53My5vcmcvMjAwMC9zdmciIHhtbG5zOnY9Imh0dHBzOi8vdmVjdGEuaW8vbmFubyIgd2lkdGg9IjE2LjQyMDAwMDA3NjI5Mzk0NSIgaGVpZ2h0PSIyMC4wNDk5OTkyMzcwNjA1NDciIGZpbGwtcnVsZT0iZXZlbm9kZCIgdmlld0JveD0iMCAwIDE2LjQyMDAwMDA3NjI5Mzk0NSAyMC4wNDk5OTkyMzcwNjA1NDciPiYjeGE7CTxzdHlsZSB0eXBlPSJ0ZXh0L2NzcyI+JiN4YTsJLnN0MHtmaWxsOiM0Mjg1ZjQ7fSYjeGE7CS5zdDF7ZmlsbDojNjY5ZGY2O30mI3hhOwk8L3N0eWxlPiYjeGE7CTxwYXRoIGNsYXNzPSJzdDEiIGQ9Ik04LjIxIDBMMCAzLjQydjUuNjNjMCA1LjA2IDMuNSA5LjggOC4yMSAxMSA0LjcxLTEuMTUgOC4yMS01Ljg5IDguMjEtMTAuOTVWMy40MnptMCAzLjc5YTIuNjMgMi42MyAwIDAgMSAxLjAwNSA1LjA2QTIuNjMgMi42MyAwIDAgMSA2LjM1IDQuNTZhMi42MyAyLjYzIDAgMCAxIDEuODYtLjc3em00LjExIDExLjE1YTguNjQgOC42NCAwIDAgMS00LjExIDIuOTMgOC42NCA4LjY0IDAgMCAxLTQuMTEtMi45M3YtMi4yNWMwLTEuNjcgMi43NC0yLjUyIDQuMTEtMi41MnM0LjExLjg1IDQuMTEgMi41MnoiLz4mI3hhOwk8cGF0aCBjbGFzcz0ic3QwIiBkPSJNOC4yMSAwdjMuNzlhMi42MyAyLjYzIDAgMSAxIDAgNS4yNnYxLjEyYzEuMzcgMCA0LjExLjg1IDQuMTEgMi41MnYyLjI1YTguNjQgOC42NCAwIDAgMS00LjExIDIuOTNWMjBjNC43MS0xLjE1IDguMjEtNS44OSA4LjIxLTEwLjk1VjMuNDJ6Ii8+JiN4YTs8L3N2Zz4=;" parent="zcXtujwmY136qcEb4Mnf-43" vertex="1">
          <mxGeometry x="6" y="35" width="10.53" height="13" as="geometry" />
        </mxCell>
        <mxCell id="zcXtujwmY136qcEb4Mnf-45" value="" style="fillColor=#ffffff;strokeColor=#dddddd;shadow=1;strokeWidth=1;rounded=1;absoluteArcSize=1;arcSize=2;" parent="1" vertex="1">
          <mxGeometry x="1773" y="93" width="180" height="60" as="geometry" />
        </mxCell>
        <mxCell id="zcXtujwmY136qcEb4Mnf-46" value="&lt;font color=&quot;#000000&quot;&gt;Static files storage&lt;/font&gt;&lt;br&gt;Cloud Storage" style="editableCssRules=.*;html=1;fontColor=#999999;shape=image;verticalLabelPosition=middle;verticalAlign=middle;labelPosition=right;align=left;spacingLeft=20;part=1;points=[];imageAspect=0;image=data:image/svg+xml,PHN2ZyB4bWxucz0iaHR0cDovL3d3dy53My5vcmcvMjAwMC9zdmciIHhtbG5zOnY9Imh0dHBzOi8vdmVjdGEuaW8vbmFubyIgd2lkdGg9IjIwIiBoZWlnaHQ9IjE2IiB2aWV3Qm94PSIwIDAgMjAgMTYiPiYjeGE7CTxzdHlsZSB0eXBlPSJ0ZXh0L2NzcyI+JiN4YTsJLnN0MHtmaWxsOiM0Mjg1ZjQ7fSYjeGE7CS5zdDF7ZmlsbDojNjY5ZGY2O30mI3hhOwkuc3Qye2ZpbGw6I2FlY2JmYTt9JiN4YTsJLnN0M3tmaWxsOiNmZmY7fSYjeGE7CTwvc3R5bGU+JiN4YTsJPHBhdGggY2xhc3M9InN0MiIgZD0iTTAgMGgyMHY3SDB6Ii8+JiN4YTsJPHBhdGggY2xhc3M9InN0MSIgZD0iTTE4IDBoMnY3aC0yeiIvPiYjeGE7CTxwYXRoIGNsYXNzPSJzdDAiIGQ9Ik0xOCA3bDItN2gtMnoiLz4mI3hhOwk8cGF0aCBjbGFzcz0ic3QxIiBkPSJNMCAwaDJ2N0gweiIvPiYjeGE7CTxnIGNsYXNzPSJzdDMiPiYjeGE7CQk8cGF0aCBkPSJNNCAzaDZ2MUg0eiIvPiYjeGE7CQk8cmVjdCB4PSIxMyIgeT0iMiIgd2lkdGg9IjMiIGhlaWdodD0iMyIgcng9IjEuNSIvPiYjeGE7CTwvZz4mI3hhOwk8cGF0aCBjbGFzcz0ic3QyIiBkPSJNMCA5aDIwdjdIMHoiLz4mI3hhOwk8cGF0aCBjbGFzcz0ic3QxIiBkPSJNMTggOWgydjdoLTJ6Ii8+JiN4YTsJPHBhdGggY2xhc3M9InN0MCIgZD0iTTE4IDE2bDItN2gtMnoiLz4mI3hhOwk8cGF0aCBjbGFzcz0ic3QxIiBkPSJNMCA5aDJ2N0gweiIvPiYjeGE7CTxnIGNsYXNzPSJzdDMiPiYjeGE7CQk8cGF0aCBkPSJNNCAxMmg2djFINHoiLz4mI3hhOwkJPHJlY3QgeD0iMTMiIHk9IjExIiB3aWR0aD0iMyIgaGVpZ2h0PSIzIiByeD0iMS41Ii8+JiN4YTsJPC9nPiYjeGE7PC9zdmc+;" parent="zcXtujwmY136qcEb4Mnf-45" vertex="1">
          <mxGeometry width="30" height="24" relative="1" as="geometry">
            <mxPoint x="15" y="18" as="offset" />
          </mxGeometry>
        </mxCell>
        <mxCell id="bZfns3RA5erKDMG97pNH-36" value="" style="sketch=0;html=1;verticalAlign=top;labelPosition=center;verticalLabelPosition=bottom;align=center;spacingTop=-6;fontSize=11;fontStyle=1;fontColor=#999999;shape=image;aspect=fixed;imageAspect=0;image=data:image/svg+xml,PHN2ZyB4bWxucz0iaHR0cDovL3d3dy53My5vcmcvMjAwMC9zdmciIHhtbG5zOnY9Imh0dHBzOi8vdmVjdGEuaW8vbmFubyIgd2lkdGg9IjE2LjQyMDAwMDA3NjI5Mzk0NSIgaGVpZ2h0PSIyMC4wNDk5OTkyMzcwNjA1NDciIGZpbGwtcnVsZT0iZXZlbm9kZCIgdmlld0JveD0iMCAwIDE2LjQyMDAwMDA3NjI5Mzk0NSAyMC4wNDk5OTkyMzcwNjA1NDciPiYjeGE7CTxzdHlsZSB0eXBlPSJ0ZXh0L2NzcyI+JiN4YTsJLnN0MHtmaWxsOiM0Mjg1ZjQ7fSYjeGE7CS5zdDF7ZmlsbDojNjY5ZGY2O30mI3hhOwk8L3N0eWxlPiYjeGE7CTxwYXRoIGNsYXNzPSJzdDEiIGQ9Ik04LjIxIDBMMCAzLjQydjUuNjNjMCA1LjA2IDMuNSA5LjggOC4yMSAxMSA0LjcxLTEuMTUgOC4yMS01Ljg5IDguMjEtMTAuOTVWMy40MnptMCAzLjc5YTIuNjMgMi42MyAwIDAgMSAxLjAwNSA1LjA2QTIuNjMgMi42MyAwIDAgMSA2LjM1IDQuNTZhMi42MyAyLjYzIDAgMCAxIDEuODYtLjc3em00LjExIDExLjE1YTguNjQgOC42NCAwIDAgMS00LjExIDIuOTMgOC42NCA4LjY0IDAgMCAxLTQuMTEtMi45M3YtMi4yNWMwLTEuNjcgMi43NC0yLjUyIDQuMTEtMi41MnM0LjExLjg1IDQuMTEgMi41MnoiLz4mI3hhOwk8cGF0aCBjbGFzcz0ic3QwIiBkPSJNOC4yMSAwdjMuNzlhMi42MyAyLjYzIDAgMSAxIDAgNS4yNnYxLjEyYzEuMzcgMCA0LjExLjg1IDQuMTEgMi41MnYyLjI1YTguNjQgOC42NCAwIDAgMS00LjExIDIuOTNWMjBjNC43MS0xLjE1IDguMjEtNS44OSA4LjIxLTEwLjk1VjMuNDJ6Ii8+JiN4YTs8L3N2Zz4=;" parent="zcXtujwmY136qcEb4Mnf-45" vertex="1">
          <mxGeometry x="5.0000000000000275" y="35" width="10.53" height="13" as="geometry" />
        </mxCell>
        <mxCell id="bZfns3RA5erKDMG97pNH-9" style="edgeStyle=orthogonalEdgeStyle;rounded=0;orthogonalLoop=1;jettySize=auto;html=1;entryX=0.5;entryY=0;entryDx=0;entryDy=0;strokeColor=light-dark(#000000,#CC6600);exitX=0;exitY=0.5;exitDx=0;exitDy=0;" parent="1" source="zcXtujwmY136qcEb4Mnf-37" target="zcXtujwmY136qcEb4Mnf-52" edge="1">
          <mxGeometry relative="1" as="geometry" />
        </mxCell>
        <mxCell id="bZfns3RA5erKDMG97pNH-11" style="edgeStyle=orthogonalEdgeStyle;rounded=0;orthogonalLoop=1;jettySize=auto;html=1;strokeColor=light-dark(#000000,#CC6600);entryX=0.5;entryY=0;entryDx=0;entryDy=0;" parent="1" source="zcXtujwmY136qcEb4Mnf-39" target="zcXtujwmY136qcEb4Mnf-41" edge="1">
          <mxGeometry relative="1" as="geometry">
            <Array as="points">
              <mxPoint x="1875" y="-59" />
              <mxPoint x="1545" y="-59" />
            </Array>
          </mxGeometry>
        </mxCell>
        <mxCell id="bZfns3RA5erKDMG97pNH-13" style="edgeStyle=orthogonalEdgeStyle;rounded=0;orthogonalLoop=1;jettySize=auto;html=1;entryX=0;entryY=0.5;entryDx=0;entryDy=0;strokeColor=light-dark(#000000,#CC6600);" parent="1" source="zcXtujwmY136qcEb4Mnf-40" target="zcXtujwmY136qcEb4Mnf-43" edge="1">
          <mxGeometry relative="1" as="geometry">
            <Array as="points">
              <mxPoint x="1710" y="-310" />
              <mxPoint x="1710" y="48" />
            </Array>
          </mxGeometry>
        </mxCell>
        <mxCell id="bZfns3RA5erKDMG97pNH-12" style="edgeStyle=orthogonalEdgeStyle;rounded=0;orthogonalLoop=1;jettySize=auto;html=1;entryX=0;entryY=0.5;entryDx=0;entryDy=0;strokeColor=light-dark(#000000,#CC6600);" parent="1" source="zcXtujwmY136qcEb4Mnf-37" target="zcXtujwmY136qcEb4Mnf-45" edge="1">
          <mxGeometry relative="1" as="geometry" />
        </mxCell>
        <mxCell id="bZfns3RA5erKDMG97pNH-15" style="edgeStyle=orthogonalEdgeStyle;rounded=0;orthogonalLoop=1;jettySize=auto;html=1;strokeColor=light-dark(#000000,#00FF00);entryX=0.51;entryY=0.998;entryDx=0;entryDy=0;entryPerimeter=0;" parent="1" edge="1">
          <mxGeometry relative="1" as="geometry">
            <mxPoint x="1874" y="-273" as="sourcePoint" />
            <mxPoint x="1010" y="-270.1200000000001" as="targetPoint" />
            <Array as="points">
              <mxPoint x="1874" y="-246" />
              <mxPoint x="1010" y="-246" />
            </Array>
          </mxGeometry>
        </mxCell>
        <mxCell id="bZfns3RA5erKDMG97pNH-17" style="edgeStyle=orthogonalEdgeStyle;rounded=0;orthogonalLoop=1;jettySize=auto;html=1;entryX=0;entryY=0.75;entryDx=0;entryDy=0;strokeColor=light-dark(#000000,#CC6600);" parent="1" source="bZfns3RA5erKDMG97pNH-22" target="zcXtujwmY136qcEb4Mnf-95" edge="1">
          <mxGeometry relative="1" as="geometry">
            <Array as="points">
              <mxPoint x="853" y="106" />
              <mxPoint x="853" y="-182" />
            </Array>
          </mxGeometry>
        </mxCell>
        <mxCell id="bZfns3RA5erKDMG97pNH-19" value="Tunnel 2" style="edgeLabel;html=1;align=center;verticalAlign=middle;resizable=0;points=[];" parent="bZfns3RA5erKDMG97pNH-17" vertex="1" connectable="0">
          <mxGeometry x="0.3467" y="-1" relative="1" as="geometry">
            <mxPoint x="-15" y="-59" as="offset" />
          </mxGeometry>
        </mxCell>
        <mxCell id="bZfns3RA5erKDMG97pNH-23" value="" style="edgeStyle=orthogonalEdgeStyle;rounded=0;orthogonalLoop=1;jettySize=auto;html=1;entryX=0;entryY=0.75;entryDx=0;entryDy=0;strokeColor=light-dark(#000000,#CC6600);" parent="1" source="zcXtujwmY136qcEb4Mnf-101" target="bZfns3RA5erKDMG97pNH-22" edge="1">
          <mxGeometry relative="1" as="geometry">
            <mxPoint x="780" y="106" as="sourcePoint" />
            <mxPoint x="984" y="85" as="targetPoint" />
            <Array as="points" />
          </mxGeometry>
        </mxCell>
        <mxCell id="bZfns3RA5erKDMG97pNH-22" value="" style="image;aspect=fixed;perimeter=ellipsePerimeter;html=1;align=center;shadow=0;dashed=0;spacingTop=3;image=img/lib/active_directory/internet_cloud.svg;" parent="1" vertex="1">
          <mxGeometry x="785" y="90.25" width="50" height="31.5" as="geometry" />
        </mxCell>
        <mxCell id="bZfns3RA5erKDMG97pNH-25" value="" style="image;aspect=fixed;perimeter=ellipsePerimeter;html=1;align=center;shadow=0;dashed=0;spacingTop=3;image=img/lib/active_directory/internet_cloud.svg;" parent="1" vertex="1">
          <mxGeometry x="793" y="-394" width="50" height="31.5" as="geometry" />
        </mxCell>
        <mxCell id="bZfns3RA5erKDMG97pNH-26" style="edgeStyle=orthogonalEdgeStyle;rounded=0;orthogonalLoop=1;jettySize=auto;html=1;entryX=0.997;entryY=0.937;entryDx=0;entryDy=0;entryPerimeter=0;strokeColor=light-dark(#000000,#990000);" parent="1" source="zcXtujwmY136qcEb4Mnf-162" target="bZfns3RA5erKDMG97pNH-25" edge="1">
          <mxGeometry relative="1" as="geometry">
            <Array as="points">
              <mxPoint x="884" y="-300" />
              <mxPoint x="884" y="-364" />
            </Array>
          </mxGeometry>
        </mxCell>
        <mxCell id="bZfns3RA5erKDMG97pNH-30" value="" style="shape=image;verticalLabelPosition=bottom;labelBackgroundColor=default;verticalAlign=top;aspect=fixed;imageAspect=0;image=data:image/png,iVBORw0KGgoAAAANSUhEUgAAAgAAAAIACAYAAAD0eNT6AAAAAXNSR0IArs4c6QAAIABJREFUeAHt3V2ILHeZMHBZRATFC69E8EIQEUEQchHwwos3e5GLvLy50AUvXD/OVA8cNIiyYcXgBkWIsEGCCas5XT0kUXGPGDGKshyMStbd9XVdIxt5T16C4WA0aAhGMlU18w5z6uXpOZXpM6d7pj+q+qPq13DoPj3d9fGr//95nqqu+terXuVBgAABAgQIECBAgAABAgQIECBAgAABAgQIECBAgAABAgQIECBAgAABAgQIECBAgAABAgQIECBAgAABAgQIECBAgAABAgQIECBAgAABAgQIECBAgAABAgQIECBAgAABAgQIECBAgAABAgQIECBAgAABAgQIECBAgAABAgQIECBAgAABAgQIECBAgAABAgQIECBAgAABAgQIECBAgAABAgQIECBAgAABAgQIECBAgAABAgQIECBAgAABAgQIECBAgAABAgQIECBAgAABAgQIECBAgAABAgQIECBAgAABAgQIECBAgAABAgQIECBAgAABAgQIECBAgAABAgQIECBAgAABAgQIECBAgAABAgQIECBAgAABAgQIECBAgAABAgQIECBAgAABAgQIECBAgAABAgQIECBAgAABAgQIECBAgAABAgQIECBAgAABAgQIECBAgAABAgQIECBAgAABAgQIECBAgAABAgQIECBAgAABAgQIECBAgAABAgQIECBAgAABAgQIECBAgAABAgQIECBAgAABAgQIECBAgAABAgQIECBAgAABAgQIECBAgAABAgQIECBAgAABAgQIECBAgAABAgQIECBAgAABAgQIECBAgAABAgQIECBAgAABAgQIECBAgAABAgQIECBAgAABAgQIECBAgAABAgQIECBAgAABAgQIECBAgAABAgQIECBAgAABAgQIECBAgAABAgQIECBAgAABAgQIECBAgAABAgQIECBAgAABAgQIECBAgAABAgQIECBAgAABAgQIECBAgAABAgQIECBAgAABAgQIECBAgAABAgQIECBAgAABAgQIECBAgAABAgQIECBAgAABAgQIECBAgAABAgQIECBAgAABAgQIECBAgAABAgQIECBAgAABAgQIECBAgAABAgQIECBAgAABAgQIECBAgAABAgQIECBAgAABAgQIECBAgAABAgQIECBAgAABAgQIECBAgAABAgQIECBAgAABAgQIECBAgAABAgQIECBAgAABAgQIECBAgAABAgQIECBAgAABAgQIECBAgAABAgQIECBAgAABAgQIECBAgAABAgQIECBAgAABAgQIECBAgAABAgQIECBAgAABAgQIECBAgAABAgQIECBAgAABAgQIECBAgAABAgQIECBAgAABAgQIECBAgAABAgQIECBAgAABAgQIECBAgAABAgQIECBAgAABAgQIECBAgAABAgQIECBAgAABAgQIECBAgAABAgQIECBAgAABAgQIECBAgAABAgQIECBAgAABAgQIECBAgAABAgQIECBAgAABAgQIECBAgAABAksQuPvu8q/O9f/yxuTBvbcng/w9yYPZbduD/H3xrzfIevEv6Wfne4P8ztF/R+8d/b36fHz3aBp7b49pxrSXsApmQYAAAQIECIwKfHinfG1vZ/8d2/3dWyNhJ4P8nmSQX+yl2RO9NL+cpMWfeml2tZcWZTP/sqtH88gvxzxj3rEMUVTEMsWyxTKOLrPXBAgQIECAwJQC5x8oXx973sM99jS/P0l3f5KkxXPNJPX6i4VY1ljmXprff3TUIb851mnK1fcxAgQIECDQfoFIjNv94pZkUHw2SfceTfrZM83uxdef8KcrTLKrsW7DdRwUn411VhS0v31bQwIECBC4JvDRNHvztd/W7xkeRk+zvekS6KoSd3PzTdLsIBkUTyWD4iu9fvGhrYeLt2ooBAgQIECgFQKxl9vrZ7cPk9wgu9LVZD/teidp9tujgiC73RGCVnQBK0GAAIHuCMSe7NYgv6OXZpeSDu/hT5v0J30ujhAMT3Ac5HduXchuchVCd/qQNSVAgMDGCESCunZGvL38hq5CODo6kN8T1hvTMCwoAQIECLRPYHuw/844ea+X7j49aS/W+w2dQzD8OSW/L66WaF/LskYECBAgsHYCw5P4+sVdkn5DiX2uowf55aRf3BXbZu0ajAUiQIAAgc0ViN+ejy7Vyy8e/S69TsnPslRHWbbS7DDOu4iRDO++u3z15rY4S06AAAECKxUYnsyXZp/bpEF4qmTY9efYZltp9rmPDPK3rLQRmTkBAgQIbI7A8IS+dPcbzuDf/KMLw6MCg/wx5wpsTv+zpAQIEFiqQBzmjwF64hDy0d5zk2Pqb35i3cQjDEm698sYcMjlhEvtWmZGgACB9RT44MPl64Y31hkOwSsxb2Jin32Zd5+Obe7GRevZJy0VAQIEGhV4/8XyNcNb427QTXZmT3QKmtPMhnc2HOR3KgQa7WomToAAgfUQGCb+fvGhGFTmtOTgbx0qHgbZlRi5MdrGerRSS0GAAAECtQkML+Ub5O87utteh5LbXNfVd9QnBhcaZD2XENbW7UyIAAECqxXY7u/e2kvzy/bqO5rYZyyC4g6F0WZW22rNnQABAgTmFkge3Ht7MsgvSvwS/3xtIAYV2n/n3A3QFwkQIEBguQLn+n95Y9yYx3X8Ev98if/Y7Wjkx/y+aFPLbcXmRoAAAQJTC8Tv/NfO7P/TooHf94+TIIui3EqL57fS4pwxBKbujj5IgACB5Qic6++9LUnzxyUribvZNpA90dvZf8dyWrW5ECBAgMBEgThjuzfI73S4X+JvNvEf+0Zbi9tAu2xwYrf0BwIECDQrkOzsvns4vOuMZ3kvK1GYz3HSbKNFkuZP9gb5zc22clMnQIAAgVcEYs8rSfN73Zq33Ql2E4qGaINxwqmjAa90Ty8IECDQjED8/mqvX+Jft+Igxg7o7ey+q5lWb6oECBDouEDcyS1Js2zdgr/lUZBEG4i2GUMKu1Kg44HK6hMgUJ9AXIPdG+SPSbQS7Wa0gezS+Z3dN9XXA0yJAAECHRTY7he3xDXYmxH4JWjbKbsaBklaPBdtt4Nd1ioTIEBgMYE4jBqHU53op6jY1KJi2HYH+Z1+ElgsFvg2AQIdEjj/QPl6Y/hL/Jua+G9Y7kH+2Me/Vr6hQ13YqhIgQGB2gaMb+BRP3RBEXetfMtnkoii/7MZCs8cD3yBAoCMCvX52e5IWL0l0m5zoLPuk9httO3kwu60j3dlqEiBAYDqB+L1/K80OJwVP70us7WgD2dUYRni6XuFTBAgQaLFAnCDVS/P72xHcJWnbcbo2sJ0WD8Z9LFrcta0aAQIEJgvEyX6u758uYUisbXTKLkUfmNxD/IUAAQItFPhomr3ZkL5tTGrWabpirRovIH/yI4P8LS3s4laJAAECNwocjedfPDddoJRQOLW8DQyyK3H1y409xTsECBBokUBcChWjpElqLU9qLtuc6bLN4WiXbibUokhnVQgQuE5g60J2U5IWf5L8JX9t4MY2MLwEdpDffF2n8R8CBAhsusB2v3iva/xvDPqrSoTnHyrKTzxy9C9er2o5zHfUPrsadxR0D4FNj3aWnwCBVwQioEn+o4G+2dcfe6gov/Dd/fLCj/fLx/7roPzPZw/L3714WL7wcllm+2V5eFje8Ij34m/xmfhsfCe+G9OIacU0JevlGBwVAbu3vtKBvCBAgMAmCmz3d29N0mxP8mgueURy/tIPj5L9U88dlgdjEvwNGX/GN6JAePaFw/JHvzkov/r4fnnHI82tj7YSdxPM9hwJ2MSIZ5kJEBgKJIP8PbE3I6DXnyzj8P3Xf3ZQXv5DMwn/rPogioyY9yP/ejD8KcE2rn8bX/s54L3CCQECBDZKoDfIb3bYv96ksL1ztKf/H88clvsHZ6Xo5f09ioFfXzkcHhmIZVQM1GcQfShOnt2ozm9hCRDorkBvZ/ddcba/ZFBPIoiT9GJP+8WXl5fU551TLOM3//3AOQM1XgYZRUCys/vu7kYUa06AwEYInOvvvW14TXONAbCre5Tx234k05eyedPx6r73clEOTyJ0rkA9ReDROAH779iIIGAhCRDonsDR8L4G+Vm0YIkjJ/H7fpyVv+mPKARiXRwNqqEQGGRXzu/svql7kcUaEyCw1gJxUxNj+y8e5D//nf3h2fabnvhPLv+VFw7LL35v3/kBCx4Ziz7mBkJrHQotHIFuCQxv6TvIH1t0z7fL34+z+n/8fw7GXqN/Mplu6v/jUsIf/+bAJYQLFgG9tPi+Wwl3K8ZaWwJrK9BL8/u7nLwXXfcYaOePf9nUtD77csdgQ44GLHa0KBkUX1nbgGDBCBDohkBvkN+5aALs8vfj7P4mBu6ZPS0v9xuxznGCY5e3/eLrnn+qG1HGWhIgsHYCvX52+1aaHS4eyBbbG9rE+cfZ8b+60sCQfcvN4wvPLYYcdqXAfO1/2Pf62e1rFxgsEAEC7RaI+5cb6Ge+wP3JrxfD8fYXzp4tmcDv/3xY/t0357PcxOKvzmUe9sEdlwe2O9paOwJrJDA8439QPFVnIOvKtD7zraJTv/dPW6PEeQFh05V2UO965pc//rXyDWsUIiwKAQJtFIgz/pNBfrHeANaNwB8n+8V18R7jBWLAo7gMUtuavT8k6d6j0TfbGHOsEwECayJwrl98WoCePUBHYmvDwD7jU3d974aRImD29nXUJ50UuCZh0mIQaJ9A3J40SbMDBcBsAToOba96ON846/75l8oybhccJ9498fRBeem/j/7F63gv/hafWfVVCXGU5K5vz2asTQ5vIXyw3S/cPbB9odcaEVidQBxaPNf/yxuN8T97UooT/lZxjX/MMwYWuvDj/WEynX4o3uxqfDYScHw3ioNVLH+cExB2EvtsBtFHDRe8ulhpzgRaJ2Ckv9mCcJW04vK23724vEv94mz67/zioPz7f55veavlHvcc04xpxxGCZT1i+GCXCM6+LeN8gNYFIStEgMBqBJJ+dn5cUvDe6cH5P55pPvnH8LoxnzjBcFnbI+YVPxnEvJt+xHyWtV6tms8g660mWpgrAQKtEdge7L8zSbOsVcFx8bHYz0xKMcpdk49IvnF4fpWXzsXPBD/7v80XAnE3Qe3v9GLzpM+wzxofoDVx2IoQWLrA+y+Wr3GHv9kCbwTiOIt9v8H8/+wLy93jP5lcTv4/1veZPzZ3OCBOSnRlwOztMPpu9OGlBw4zJEBg8wWSNL/3ZLD3/9MDcfxm3dRJc3GJ3ENPLO9Q/yzbOk4cjD31pgqfMHU+wOltb9z2Sgb5PZsfiawBAQJLFdi6kN3kkr/ZA+6PftPMrn+c4PcPj+6t/aHw+FmgqRMf47LFcUnOe5PbafTh6MtLDR5mRoDA5grEvcYd+p8cVCclnDhM3cSJcfFb//mHZl+eScvZ9PuxrHFuQN2PsPVTwOztIEnzJ/0UsLnx2JITWKpA0i/uajpJtG36cQi8id/Bf/Dk5u71fvsX9R8NifMfph/TYPZk2bZ2+cr6DPI7lxpEzIwAgc0TOLrLX7b3SuBYwhnzbZhX/P5d5yP2dttw9nusQ91HRdb1PIh1bsdxVcC5/t7bNi8iWWICBJYiMBzwJ82eWOdAto7L9rGHitpv8hOXEa7jus6zTHUXRzGs8ib9JDKPWRPfSdLdn7hh0FJCqZkQ2DyB3iDrNRF42j7Niz+vd+//sf9qT/Kvtn2sU52PNhVIldEynrfS4tzmRSZLTIBAowIx1n+SFn9aRhBq0zxiT7TOG/3ECX9t8hldlzpPDHzxZUcBRm2nfR33Cvj418o3NBpMTJwAgc0S6KX5fdMGEZ87PrmszsPbcalf/JzQVt8oluq8RNC5APO1FWMDbFZstrQEGhXo7ey/wzX/swfTOBs97lpXxyMG0NmE6/wXLU5inIAY0KiORwwO5IqA2dttkmZ7cbJvo0HFxAkQ2AyBXlp8f9HA3sXvf+mHNWWysh1n/E/bBuq8T0Jsg2nn63PHxYI7Bm5GbLaUBBoV2O7v3iowHgfGWSzquttf165tj732WOc6HnFewSzbzGeP23r0/UaDi4kTILC+AsMR/wbFU4LicVCc1iJ+q69j3Pu4Rv7oVr7Z1Wnn3YbPxTrXMT5AbIM2nzfR5LZOBsVTLgtc3/hsyQg0KhCXBDUZYNo87TgBrY5HHEVos9Pkdcuu1nUEZfBTPwNMdj69uN26kH+g0SBj4gQIrJ/A8Fa//eyZeQNH17/31HOLH8KOKXThxL9JbSXWvY6jAL++0tUi6vTkPsl99P2knz0TRwLXL0JZIgIEGhMw6M/8wTMuZ6vj8P9/Pitx/erK4oVUbAsjA87fng0O1FiYNWEC6ycQe/+9QXZldE/A6+kD6D/+oJ7D/1/8Xhy67tZv/yfbWb2W02/Dk8vR6f8PsivuFrh+cdoSEWhEYGuQ39HpgLfgDY7qGNY2xg+wDY4Sdh1jKbRx+ORlto+kn51vJNiYKAEC6yPwwYfL18VwoMsMLm2bVx23/ZWwjvfW45bHiz4u/8HPKYv0syQtnvvwTvna9YlUloQAgdoFotJfJFB0/bvxW/PB4j9blzEiXtctq/WPkwEXfcR5AEYFXLBNDbJe7QHHBAkQWA+BuOY3zvqtAq/n2QNmHckqbh7E/nr7Om6opKi63nT2Nrb7tHEB1iNWWwoCtQtsD/L3zR4UFg0q7fr+A5cWPwGwu9f+T24LdYwJ8OVLxgNYtH8nD2a31R54TJAAgdULbKX5vy0aILr+/W//YvHfq93F7sZCoI6BlWLbdL19Lrr+Sbr7k9VHKktAgECtAr1BfvOiwcH3i7KOe9p//jv2VE+2pRgaeNHHE08rAE66zvX/QX5zrcHHxAgQWK1A3P1rrmCw4CVzbZvnolcAxPmDxq6/8QjAHY8U5aLnVroS4EbXefpfMsgvrjZamTsBArUJbD1cvDVJs4N5goHvXB9Uf//nxdLUi67/n3iYftETAWPbaK/Xt9d5PCJWfGSQv6W2AGRCBAisTmArzT43TyDwnRuDaSTwRR5xBIHrja5hsujRFYMrjXedp70lg+Kzq4tY5kyAQC0CcVmPYX/rC4zZgj9Vu3HN5G2x6A2WXi5cXjlPsh/3nRgYyCWBtYRgEyGwOoG4rGdcB/fe5ER0ms2id687ugSw2+P/T/KNmyMt8ogBmiZN2/uzt/ft/u6tq4tc5kyAwMICvUH+mOA3e/AbZxajAC76cKb65G0RNos+3BVwsu+4Nn3ae3Hi8MIByAQIEFiNwEfT7M1O/qsvIMaZ6os+fvwbl6pNSjphs+gjttGk6Xt/NpuIHRFDVhO9zJUAgYUEkn5xl6A3W9A7zUsBUJ/lOGcFQLO+48zPeu9cv/j0QkHIlwkQWI1AL919+qwO7u/TB10FwPRW87QrBUCzvvNsk16aX15N9DJXAgTmFti6kN00X4dfxyC0HsukAGh2OygAmvWdOx7s7L5r7kDkiwQILF8gGeT3zN3hjf439ndkBUCzCUoB0KzvvPEgxhFZfgQzRwIE5hZw29/6g6kCoH7T0aSkAGjWd9R6ltcRS+YORL5IgMByBRz+byaQKgCaca2SkQKgWd/KeZ7nZGf33cuNYuZGgMBcAkma3ztPJ/ed0wOwAuB0n0XbjwKgWd9Ftk/8pDhXMPIlAgSWJxDDdyZp9ttFOrvvjg/ECoDxLnW1FwVAs76LbCc/AywvhpsTgbkFeju771qko/vu5CCsAJhsU0e7UQA067vwNtrZf8fcgckXCRBoXqA3yO9cuKO7CmB4FcBnvlWUD1zaL7/9i4PyB08elHUMVRu3rI3p+HejwaK3Wo5RBMM1tlVss9h2f//Pa55UN6qv5Z9qPoKZAwECcwsk6e5PFADzB/1//MH+MIksetvfRYe09f36BGJbRmEQ23Z7Z/620e1+FTewyi7NHZh8kQCBZgXOP1C+PkmzvW4HqtkDfNxA5qEn9svnX6ov6ZjSegrENo5trRCYvZ9EbIkY02wUM3UCBOYS6PWz2yX/2QLbl34o8a9nqm52qaIQiG2vv8zWX+L24nMFJ18iQKBZgWRQfEVAmy6gxV5/HSedNZumTL1JgcOyHLYBtxCers8cxZb8/majmKkTIDCXQG+QXVEAnB3MPvn1onz2hQj/HgTKYVuINqHvnG3gcsC5QrMvEWhW4COD/C0C2NkBLM4K/+NfpD0C1wu88HLpioEpr0iIWNNsNDN1AgRmEti6kH9AAXB6ARB7eU70uz7x+d+xQBSGjgSc3ocixmwP8vfNFJx8mACBZgV6aX6/AmBy8Iqzvp/5o8P+x+nOq3EC0UZcITC5Hx3FmPy+ZqOZqRMgMJNAkuZPKgAmB64YHMaDwDQC0Vb0pUl9KbuapHu/nCk4+TABAs0JXLv+/0DQGh+0Pv+d/fLQzv80uc9nynLYVr7wXZcIToonSZodGA+guXhuygRmEtjuF7dM6qzed+hfVp9dIH4K0HfGF9ThEjFnpiDlwwQINCOQDIrPClbjg1UM9uJBYB6BL19yFGBSXEn6xV3NRDNTJUBgJoEk3Xt0Ukft+vtPPefY/zzJz3fKMtpO1/vPpPWPmDNTkPJhAgSaEUjS7LeTOmqX349r/v32L5XPKxClY9wRsst9aNK6GxComVhuqgRmEoiTcXpp3KlLoDppELeE9SCwiEC0oZPtyv+LcivNDp0IOFOo9mEC9Qskg/w9AtL44sfh/0VSn++GwOU/+BlgYnwZ5DfXH9FMkQCBqQV6g6w3sYN2+KhADOay7wCALL6gQLZfGhhoQhzZSotzUwcqHyRAoH4BIwCO3/uP3/89CNQhcNe3x7cxhbcRAeuP6KZIYAaBXpo9IRDdGKBd/ldH6jONEIi2pI/d2MeSdPcnM4QqHyVAoG6BrbR4XnC6MTj9049c/y991yMw+KkCYFyMSdLiubrjmekRmEng0V8cfLer/77184Pvj+uY3ivKCNoeBOoQeOgJBcD4mJJdjRjU1fgb6z1TsvLh+gXiMp2u/hOYbtzzrwJV2HgQqENAP5vcz77+s+7G38g79Wc0U5xJ4Du/OCi7+C8a31cft2dSJfyTzwqAOlKfaYSAAmByARAxqIvxN9ZZATBTqm7mw13a+68aXfV8379EAWAQoJPJP/6vAJC86xJQAEwuACIGdTkGN5PVTHVqga5Un9HJqsRfPX/xe44AjEv+CoC6Up/phIACYFIBkF2NGNTlGDx1ovLBZgTaXn1WyX7c89H1yY4AjCsCHAGQvOsSUABMKgCK8h8e3Wv9EYBxsbfaIWsmq5nq1AJtrz6rhjbuOQa7GZf8vOcngLqSn+k4AjA5nmRXIwZVsamtsbhav3HPUycqH2xGIDZKW/+dVnnGOn/ikSgAHAEYF6AcAZC66xJwBGDyjsYnv1688tNkG+PwWTG4maxmqlMLRKPrYuUZ6/yxhyZ3zHFJsUvvKQDqSn+mowCYFGeyqxGDRpNk22JxlV8mPU+dqHywGYGq8Y1Wnxd/flA+9l8HZRufqw4W63u09+8IwLjCRgEgcdcloACYVADE+9nVKgZXz22Mu1U+qdaxem4mq5nq1AKjlVm1kdr8XDW8b/67+5SPS/zVewqAutKf6SgATi8AIuFHXIp/bU7+kVeq9azyztSJygebEagS4lmNb7Rhjr6uioXR90Zfr8vfR5cj1vUoKNn7rxL+yWcFgMRdl4AC4PQCIHzOisOjMXX09WhcG/d63Hur+P7ocsS6VuvbTFYz1akFqo0xrlFUG61Nz9X6ukHJaUHJVQB1JT/TcRXAyeL6+v9nVyMWxR5xm+LspHxSxV9HAKZO0c1+sNoQsWEmbbS2vR/rHHe7cwXA5CLAEQCpuy4BRwAm97MoBi78+Hg0wLYWASdzSMTg+NdsdjP1MwWqiuzkBmrT/0fXpSp4HrhkFMDr90SuD1IKgLrSn+koAK7vW9f3u+xq7IxUO2CjsaqtxUCV/GOdz0xQPtCsQJUQqwbY1kY3ul6xzkcFgHMArg9Gx4FKASBx1yWgADjuV+P6W8SiakdsNE61uRio1rfZ7GbqZwrEhoiEOKnhjWuEo++Nvq6mMfre6OtV/L2aZ/Vcre+XHQE4dRREBUBd6c90FACnFQDZ1bghUMSls2JlFcNGPzf6el3+Xi3HpOcq+UfeOTNB+UCzAtURgHge15gmbcRNfj/W1Z0ATwtKTgKUtusTUACc3teqAmBSEbApsXY0f4y+Hrf8Vd5pNruZ+pkC1R7xuI101kbcxL9XDe9LP3QOwLjDkdV7jgDUlwC7PiUFwGkFwNERgIhLXYvBsc5nJigfaFagSojxfFpCP+1vm9Zwo+g5uhVwnAPgPIAq6Y8+KwC6nrbrW38FwGkFQFH+4w+OxwFoU5yt8sK4dap+Bmg2u5n6mQJdOwJQNbzodJL/5MCkAKgvAXZ9SgqASf3saAckdkYiLo1LlFUSXZfnOpaxisGOAJyZnpv/wKQjALNs6NHPjr6uGu3oe6Ovl/X3aj7VczTA6gjA9s6kztnt9xUAx2n74LAsf33lcDh65F3fLsq//UpR/q8vZeVf33P073/emw3fi3u7h1t8Nr7jcSSgADgtlmRXqyMAk4qA0Zg5+rqKZ6Pvjb6u6+/VdCY9j5vnpM9W71dFQPMZzhxOFYgNEUVAtWHa/lw1vKNzABz+Hz3sP/paAVCWz75wODxZNJL9//jCbP/iO3FyV0yj6w8FwOkFQHUS4DyJtOl43cQyVTHYEYBTU/Ny/jjpCMCkhtVEg5g0r0Xfn7Sssc6uAjgtKHX7KoDfvXhYfuZbxcxJf1KREEcGYppdfSgATu9rsTNSxeFJMWuT3p9mWasiYDlZzlwmCnTtCEDV0VwFcHpQ6uIRgDhsH+Oy3/rF2fb2JyX+0fdjmmHaxZ8GFACn9bXTxwFYdCeoqe9Pk+QnzbtK/hGLJyYmf1iOQJUQ43ncRh333qQNuynvRwM8GgjITwCjh/1HX3etAHjh5bK845Hmfj6XAAAap0lEQVT69vpHk//o6088UpQxry49FACnFQDFMBZVSbGN8XbcOlXru5wsZy4TBWJDRPKvK3mPbuzR19X0R98bfV3X36vpTHquGp57AZwelLpUAPz+z4fDk/hGE3WTr//my1mnfhJQAJzW17Kr1VDA4+LhyTg2+pnR19XnRt8bfT3t36vPzfo8bl6TplHFYEcAJqbl5f3hrCMAJzfiLBv65Heb/v+4ZRv3XjRA9wI4LSh15xyASP6RkJtM+OOmHfN8/qVuHAdQAJze16qbAUVcGhevmo6b1fRH5z36uvp7nc9V3llepjOnsQLR6Oo8AlBnI2miEVbV51cfNxLg6CH/k6+7cATgpaxc6p7/yUIgLid8uWh/EaAAOK0AyK5GLJqU/JuIgfPG6FmW5bTPVsk/nscmJW8uT2B0Y5y20U42mlk+e/K7q/5/dLY42ctAQJMDU9sLgDgnv84z/U8m92n///f/XJRtvz5AATC5n0XhHbGo2jHZ5Lg6S1yv8s7yMp05jRWYpuG1qVFW6ysonR6U2l4A/ODJg6Uf9p9UFMSytPmhr53W17Kr4RNxaRPj7DzLXCV/RwDGpuTlvlltjHkb4DQNYPQzo6+rinH0vdHX0/69+ty0z9W6OgIwOTC1uQCIQ//zDO4zKYEv+n4sS5t/ClAATO5ncQQgYl61YzIu/p0V10a/M/q6+t7oe6Ovq783/TxuntX6LjfbmdsNAtWGGLeR5m0YdU5r2mUYnefo65Pfr9Y3nk/+7u3/x4GqzQXAhR/vr83ef1U8xGHgtj4UAMf96voYc3QvgGon7LS4dTKOzfLZk989+f9lT6uKwY4A3JCOl/9G1fhio9TZEE42slX9f9w6xbrGen/soeiYxgK4PigdBau2FgDZflnG2P1V4l2X51imWLY2PhQAkwqAYhiDqoS4LjF4NGaOvq4zhld5Z/kZzxyvE6gaX1MbusnpzjPtan3j+ZNfn9wxxyXFLr3X1gJgnX77P1l8tPVcAAXApDiTXY0YVCXDcfFs9L3R13Um40WmO893q/WN5+uSkf8sX6DaGJOqz9ENPPp6XRrgvMsR6/t334yO6QjAuMKmrQVABNyTiXdd/h/tsY0PBcCkAqAo4yqQ0Z2SdY6xdS5btc7Lz3jmeJ1AtSHm2bij3xl9PSkpj35m9PXJz4/+bfT1yc/N+/9qneMmLeOSn/faORDQ/kHZyDj/dRUQcb+AWMa2PRQAkwqA7GrcXrraCasj1o1OY/T1WbFyls+eNa2z/l7FX0cArkvFq/lP1fhio9TZCGaZ1iyfPatxTfv3WN8vfs9YAJOKnTYeAfjPZw/Xdu+/KiJ+daV9owIoACYVAMUwBlUJse4YfDIWjsbZ0dcnPzfv/8dNc9x7Mf0q76wm65nrKwJV45u0odb5/XHLNu69kw26Wmd3BJwcmNpYAMR2rxLtuj5HW23bQwEwqZ8tdifAaWLdydhX1/8XmXeV/B0BeCUNr+5FtTGarj7ranizTmdSQ431PhoO2DkA444CtLEAiPs/rGvir5YrlrFtDwXApAKgKOOS1GqHZFKsWub7y5pXlXdWl/nMeSiwTo1v1uQ+7+erxicwTQ5MbSwAvvDd9S8A4meptj30s0n97GgUwIhHZ8WyZSXmcfMZ994iy1vF33iWhlcs8O3//f/+ePLft35+9N66P1fLXS3npP9X7598ju+5CmB8cGpjARAnfVZ72uv6HMvYtocCYHwfiyNvJ2NXFaPGvV+9Vz3HZ6vXJ5+n/dvo52ad9+h3q/lX0xh9Pu1vK05/Zt91ga20eH7cIfCuv9fGAuDz31n/IwBxlKJtDwXAuAIgu5qkxXNdj7/Wn8BKBZJ09yddT/bj1r+NBUCc9Lmue/7Vct33LwqAce2xje8laf74SoOfmRPoukAvze9vY3BZdJ3aWADEOlWJdl2fv/4zVwEs2nY35/v5fV2Pv9afwEoFeoOstzkBY9yhxGbea2MB8MTT638ZYCxj2x7RlvSxG/vpVlqcW2nwM3MCXRdIBvl7BKcbg1MbC4AXXi7X/ghALGPbHgqAG/tXxJytC9lNXY+/1p/ASgU++HD5uq00O1QEXB+k2lgARGL926+s770AYtna+FAAXN+3hsk/zQ4j9qw0+Jk5AQKvelXSz55RAFwfpNpaAMTAK+v6+//gp+07ATAKGgXA9X3rKNbsPi32EiCwBgJJuveoAuD6INXWAuDKC+t7P4Dfvdi++wAoAK7vV1WcSQb5xTUIfRaBAIFkUHy26piejwJWWwuASEhxC9Z1OwrwmW+18/C/AmBCAdAv7hJ5CRBYA4HtfnGLxH99oGpzAXD5D+t3FCCWqa0PPwFc37ci1mz3i/euQeizCAQInH+gfH2SZgeKgONA1eYCIBJtjLm/DkcB/vqebLgsbU3+sV4KgON+FTEmYk3EHJGXAIE1EUjSvV8qAI4DVdsLgJeysvybL2crLwJiGV5u79H/YV2jADjuV0cFwN4v1yTsWQwCBELAiIDXB6m2FwCRmX515bCMPfBVHQmIef/6SnsP/VdHNRQA1/etJM3vFXUJEFgjga0L+QccATgOVF0oACJBXfrv1Y0O+IMn2zfqX5X0R58VAMf9KmLM9iB/3xqFPotCgMBH0+zNCoDjQNWVAiASVdzvfNlHAeJe6F15KACO+1XEmPM7u28ScQkQWDOBJM1+qwg4ClZdKgAiEceRgFu/2PzPATGPmFeXHgqA4wIgBh1bs7BncQgQCIFkUHxFAdDNAiAS8jN/PGx0qOAY6vfZF9r/m//J4kYBcFwA9FJ3AJRtCKylQK+f3a4A6G4BEIlr/+DosrU6jwbEtCIJHnQv9w9rAQXAcQGw3d+9dS2Dn4Ui0HWBuDlHkmZ7ioBimLBO7sl16f8vvlyW//Sj/fJ/3jv/zwLx3a8+vl/GJYddfigAjgqAiC1uANT1LGP911ogSfPHFQAKgCphx177E08fDAfrmWbcgPhMDDIU3+nqHn9lVz0rAKojANmltQ5+Fo5A1wV6g/xOBYACoEpeJ59j0J4YtjcSfJzMF//idbzX9gF9TlpM+38FQBQA2dVemn+q6/HV+hNYa4Hezu67FAAKgGmTm8+dLaAAuHYEYGf/HWsd/CwcAQKvepXLARUAZ6c1n5hWQAFQlC7/k1kIbIhAMsjv6fpRgAjaHgTqEFAAFOVWmn3u7rvLv9qQEGgxCXRXYOtCdpMCQAFQR/IzDXcDHMaSnd13dTeiWnMCGybQS3ef7nIR4AiA1F2XgCMA+eUNC38Wl0B3BeJQXRyyUwDUlQJMp8sCXS8AIpZ0N5pacwIbKJDs7L5bAdDltGXd6xLoegGwPdh/5waGQItMoNsCyaB4qqtFgJ8A6kp/ptPlAiBiSLejqLUnsKECSb+4SwEggRFYTKDLBUAMLLah4c9iE+i2QNy3O0mzgy4WAY4ALJb0fPtYoKsFQMSOiCHdjqLWnsAGC/QG+WMKgONg7hWBWQW6WwDsPbrBoc+iEyCQPJjdpgCYNeT7PIFjga4WAG79K38Q2HCBuCSwN8iudK0I8BPAcQLzajGBLhYASVo8Z+S/DQ/+Fp9ACHRxTAAFwGJJz7ePBTpZAAyKz4qeBAi0QOAjg/wtXTsZUAFwnMC8WkygawVAxIqIGS0IfVaBAIE4lJcM8otd+hlAAbBY0vPtY4HuFQC73xA1CRBokUDXbhCkADhOYF4tJtC1AqA3yG9uUeizKgQIhEAvzZ7oylEABcBiSc+3jwW6VAAk6e5PREsCBFoo0OtntysAjgO7VwSmEehUAfBgdlsLQ59VIkBgeElgml/uQhHgCMA0qc1nphHoTgGQX3bpnzxBoMUCST87rwCYJuz7DIEjga4UAFtpca7Foc+qESDw4Z3ytTHIR9uLgAs/3pe/CNQiEG2p7f0lBgt7/8XyNSIkAQItF+gN8jvaHtC+fEkBUEv2M5Ey2lLb+0tvkPVaHvasHgECIRCVfpJmv21zUPv8dxQAcnc9Av/w6F67CwB7/xIDgW4JRMXf5gLgYw8V5WE98d9UOixweFiW5x8q2l0A9IsPdSv6WVsCHRcYHgXoZ8+0uQj4/Z+VAB3O3bWs+u9ePGx38k93n7777vLVHQ+HVp9A9wR6/eJDbS4AfvSbg1qSgIl0V+DSfx+0ugDYupB/oHuRzxoTIPCqo3sEFE+1tQj40g+dB9Dd1F3Pmkcbamv/SNL8Sdf9SwQEOiyw3S9uaWuA294pyhdfricRmEr3BF7KyjLaUGv7R7+4pcOhz6oTIBACvUH+WFuD3GP/5WeA7qXuetb4O79o7+H/JN17VPQjQIDAq871996WpNleG4uATzxSlJlfAurJiB2aSrSZOx5p595/9PXo80IfAQIEhgJJmt/bxgIg1unizx0F6FDurmVVv/nvLd77H+T3CHsECBB4ReD8A+Xrt9Li+TYWAfE7blzO5UFgGoFnXzhs7W//0cc//rXyDa90fC8IECAQAnEzkDYWALFOn/mWnwKmSX5d/8z+QVne9e12Hvof9m2D/gj2BAiMEzi6XXB2qa1FwD/9aL+Mkd08CIwTiLbxQIvH/U/S/HGX/Y2LfN4jQGAocO2EwKytRcDXf3ZgiOBx2a/j70VdGG2jre0+SbPMiX+CPAECZwqc6xefbmsgjPUa/HS/PHAkoOMp/3j1Y8//kX9tb/I/6sv5p87s+D5AgACBGBs8Sfd+2eYiIEZ4e7k4TgJedVMgBvtp82h/0YdjxL+494fIRoAAgakEkp3ddydpdtDmIuDvvlmUv77iUEA3U39Z/urKYRltoM1tPPrw1oXspqk6vQ8RIECgEkgG+T1tDo7Vun350r7LBDtUBcQlobHNq+3f5uetNPtc1Z89EyBAYGqB4S2Dhz8FZFfbHCSrdYukEHuFzg9oXzUQ2zS2bVcSf7Tp+BnPof+pw50PEiBwUmDr4eKtcQZxlSS78BzDB8clg3E74ct/OCzjd2KXD25OURDbKrZZbLvYhrEtY5t2oe1W6xh9Nnlw7+0n+7P/EyBAYCaBpJ+drwJLl5/PP1QME0kkE//W0yC2UZfbaLXuMajXTJ3chwkQIDBJoM13DKyCpmfJsw1twJ3+JkUx7xMgMJfAuf5f3pikxXNtCJDWQaJvaxuIPhp9da5O7ksECBCYJLDdL25p+6WBbU0M1qv9RU/0ze1+8d5J/df7BAgQWEigl+afkkzan0xs4w3cxoP8joU6ty8TIEDgNIG4mUgyyC9KEBuYIFLL3NZ2m6S73zit3/obAQIEahE4/0D5+mRQPNXWYGq9FAqb1AZiqN8PPly+rpbObSIECBA4S+DoroHFS5sUKC2rxN6uNpBdTdLiJXf5Oyta+TsBArUL9PrZ7VtpdtiuoCpJ2p6b0QbipL/kwey22ju2CRIgQGAaAScFbkaykNRbuJ2c9DdNiPIZAgSaFOil+X0STAsTjJMG13ZUwSTN722yT5s2AQIEphIYXhmQ7j2qCFAEaANLaQPfjz43Vef0IQIECDQtEGchb6X5v0kAS0kAa7tnavs3u/3jDn/O+G86mpk+AQIzC5zf2X1Tb5BdkQSaTQJ8u+mbpNlvo4/N3DF9gQABAssQuHZ5oHsG+P3cUYoa28BWWjzv9r7LiGDmQYDAQgK9nd13JWnxJ3uq3dxTtd3r3e7Rl7YH++9cqFP6MgECBJYlkOzsvjsGKeml2VUJod6EwLM7ntGHti5kNy2r35oPAQIEahHoDfKbkzTLJKzuJCzbur5tHX3H3f1qCUUmQoDAKgSu3UJ4T2KoLzGwbL9lkmZ70XdW0WfNkwABArUIxPXKsRdz9HNA+wO35GwbL9oGru35S/61RCATIUBg5QLJIH+PIkByXDQ5tv370Ueir6y8w1oAAgQI1CkQJzO5OkAR0PYkPu/6DfvGIL+5zj5nWgQIEFgbgd7O/juStDBOQI3XiM+bcHxvfYqxuM4/Lp9dm45qQQgQINCEQAxoYsTA9Uk+CoHVbosY4S8G0Gqir5kmAQIE1k4ghjSNcc2NE7Da5CP5r9Y/7p9heN+1C08WiACBpgXipia9Qf6YJLTaJMR/Nf5JuveoG/s0HWVMnwCBtRWIywR7aX6fJLSaJMR9Ve75fW7pu7ZhyYIRILBMga1BfsdWmh1KSKtKSOa7jLaXpNlBb5Dfscy+ZV4ECBBYe4Hkwew2YwVIxMtIxKuYx/Aa/wez29a+I1pAAgQIrEIgrhBI0vzJVQRo81R8NNcG8stxCewq+pR5EiBAYGMEzj9Qvj5Jd7/RXDCW6Ngurw1EW3ay38aEHwtKgMA6CPQGWW/4m6lBc0oJe3kJuy7ra7/337kOfckyECBAYOMErt1IyMiBiqCNKoJitEu38t24cGOBCRBYN4Fz/b+80U8Cm7cHXNee9KZNJ67vjza7bv3I8hAgQGBjBXr94kNxq1SjByoG1rEoiLYZl7NubAez4AQIEFhnga2Hi7fG8KnrmAAsU1cLk+xqDGsdV7Csc9+xbAQIENh4gfdfLF+TDPJ7nCDY1YS7PusdbXArzT4XbXLjO5YVIECAwKYIxO1Tj24otD4JwVGA7myLGK9i60J206b0F8tJgACBVgncfXf56vjd9ejcgO4kH4XG6rZ1tLVkUHzWXn+rQomVIUBgUwXi3IBeml2SGFeXGLtgn6S7P/Fb/6ZGCctNgEBrBeLualtpcW4rLZ7vQjKyjssrdoZtql98yB38Whs+rBgBAm0QiGFX4xBtkmZ7kuTykmQbrY9ONM3v+/jXyje0oW9YBwIECHRC4Fx/723JIL/YxsRknZZQ2Azyx6INdaKzWEkCBAi0UWC7X9ySDIqnJM0lJM0WDFkcZ/dHm2ljX7BOBAgQ6JxA/Ha7Pcjf10t3n1YIKATGtYEkzX4bN6DyO3/nwoMVJkCgCwJVIZD0s2fGJQHvdbA4GGRXriX+V3ehD1hHAgQIdFogruE+ut1w8Zx7C3Qw6adFGXfsizEkXM/f6VBg5QkQ6KrAh3fK10Yh0Evzy/b+u1II5Jdjm0v8Xe311psAAQIjAsOfBvrFLb1B/phCoK2FQPZEnAfiN/6Rhu8lAQIECBwLJDu7707S3W+42dDmFwJbaXYYRV0yyN9zvIW9IkCAAAECpwh8ZJC/JQYU6sVJYi24vK1T6zDIrsS2i214yib2JwIECBAgMFmg+nkgBhVyVGB9jwocbZvs0rXD/M7on9yk/YUAAQIEZhU4v7P7pnP94tMGFlqfQmC4LQb5nbFtZt2ePk+AAAECBGYW2B7sv3P4E4ErCMpl/7wwHLQnze/z2/7MzdYXCBAgQKBOgeGJg4P8HgMMNXdkIGyTQX5Pb2f3XXVuO9MiQIAAAQK1CGw9XLx1OLZAnH3ujoRzHx249pv+E71BfufWhewml+/V0jxNhAABAgSWITC8NfGD2W29NL/f0YGzjw4cGeX3Jw9mt4XdMraReRAgQIAAgcYF4kS1SG7DQ9lp9kSXjxDEHn6cwJcMiq/0+sWHXLLXePMzAwIECBBYF4HYyx3errhf3JWke4/GHvBw8JqWjTsQ63TtN/yLSb+4K9bZHv66tELLQYAAAQJrIRCJsTfIb752j4L7kjR/PG5cswk3LRom+rR4Lpa5l+b3baXFufj9XrJfi6ZlIQgQIEBgEwXi5jXJg3tv3+7v3hrFQfyMEEMW9+KnhEHx1FZaPN/kQEUx7eE8BsVTw3nGcMlxVv4g68Uynevvvc0NdjaxZVlmAgQIEGiFwLn+X94YyTiukY/EHCPjxb/YGx8WDv3sfJxZP/ovGb6X9eIz1eePCo385phWTLMVOFaCAAECBAgQIECAAAECBAgQIECAAAECBAgQIECAAAECBAgQIECAAAECBAgQIECAAAECBAgQIECAAAECBAgQIECAAAECBAgQIECAAAECBAgQIECAAAECBAgQIECAAAECBAgQIECAAAECBAgQIECAAAECBAgQIECAAAECBAgQIECAAAECBAgQIECAAAECBAgQIECAAAECBAgQIECAAAECBAgQIECAAAECBAgQIECAAAECBAgQIECAAAECBAgQIECAAAECBAgQIECAAAECBAgQIECAAAECBAgQIECAAAECBAgQIECAAAECBAgQIECAAAECBAgQIECAAAECBAgQIECAAAECBAgQIECAAAECBAgQIECAAAECBAgQIECAAAECBAgQIECAAAECBAgQIECAAAECBAgQIECAAAECBAgQIECAAAECBAgQIECAAAECBAgQIECAAAECBAgQIECAAAECBAgQIECAAAECBAgQIECAAAECBAgQIECAAAECBAgQIECAAAECBAgQIECAAAECBAgQIECAAAECBAgQIECAAAECBAgQIECAAAECBAgQIECAAAECBAgQIECAAAECBAgQIECAAAECBAgQIECAAAECBAgQIECAAAECBAgQIECAAAECBAgQIECAAAECBAgQIECAAAECBAgQIECAAAECBAgQIECAAAECBAgQIECAAAECBAgQIECAAAECBAgQIECAAAECBAgQIECAAAECBAgQIECAAAECBAgQIECAAAECBAgQIECAAAECBAgQIECAAAECBAgQIECAAAECBAgQIECAAAECBAgQIECAAAECBAgQIECAAAECBAgQIECAAAECBAgQIECAAAECBAgQIECAAAECBAgQIECAAAECBAgQIECAAAECBAgQIECAAAECBAgQIECAAAECBAgQIECAAAECBAgQIECAAAECBAgQIECAAAECBAgQIECAAAECBAgQIECAAAECBAgQIECAAAECBAgQIECAAAECBAgQIECAAAECBAgQIECAAAECBAgQIECAAAECBAgQIECAAAECBAgQIECAAAECBAgQIECAAAECBAgQIECAAAECBAgQIECAAAECBAgQIECAAAECBAgQIECAAAECBAgQIECAAAECBAgQIECAAAECBAgQIECAAAECBAgQIECAAAECBAgQIECAAAECBAgQIECAAAECBAgQIECAAAECBAgQIECAAAECBAgQIECAAAECBAgQIECAAAECBAgQIECAAAECBAgQIECAAAECBAgQIECAAAECBAgQIECAAAECBAgQIECAAAECBAgQIECAAAECBAgQIECAAAECGyHw/wFFUZKtzQ4JrgAAAABJRU5ErkJggg==;" parent="1" vertex="1">
          <mxGeometry x="1616" y="144.75" width="38" height="38" as="geometry" />
        </mxCell>
        <mxCell id="bZfns3RA5erKDMG97pNH-31" value="" style="shape=image;verticalLabelPosition=bottom;labelBackgroundColor=default;verticalAlign=top;aspect=fixed;imageAspect=0;image=data:image/png,iVBORw0KGgoAAAANSUhEUgAAAgAAAAIACAYAAAD0eNT6AAAAAXNSR0IArs4c6QAAIABJREFUeAHt3V2ILHeZMHBZRATFC69E8EIQEUEQchHwwos3e5GLvLy50AUvXD/OVA8cNIiyYcXgBkWIsEGCCas5XT0kUXGPGDGKshyMStbd9XVdIxt5T16C4WA0aAhGMlU18w5z6uXpOZXpM6d7pj+q+qPq13DoPj3d9fGr//95nqqu+terXuVBgAABAgQIECBAgAABAgQIECBAgAABAgQIECBAgAABAgQIECBAgAABAgQIECBAgAABAgQIECBAgAABAgQIECBAgAABAgQIECBAgAABAgQIECBAgAABAgQIECBAgAABAgQIECBAgAABAgQIECBAgAABAgQIECBAgAABAgQIECBAgAABAgQIECBAgAABAgQIECBAgAABAgQIECBAgAABAgQIECBAgAABAgQIECBAgAABAgQIECBAgAABAgQIECBAgAABAgQIECBAgAABAgQIECBAgAABAgQIECBAgAABAgQIECBAgAABAgQIECBAgAABAgQIECBAgAABAgQIECBAgAABAgQIECBAgAABAgQIECBAgAABAgQIECBAgAABAgQIECBAgAABAgQIECBAgAABAgQIECBAgAABAgQIECBAgAABAgQIECBAgAABAgQIECBAgAABAgQIECBAgAABAgQIECBAgAABAgQIECBAgAABAgQIECBAgAABAgQIECBAgAABAgQIECBAgAABAgQIECBAgAABAgQIECBAgAABAgQIECBAgAABAgQIECBAgAABAgQIECBAgAABAgQIECBAgAABAgQIECBAgAABAgQIECBAgAABAgQIECBAgAABAgQIECBAgAABAgQIECBAgAABAgQIECBAgAABAgQIECBAgAABAgQIECBAgAABAgQIECBAgAABAgQIECBAgAABAgQIECBAgAABAgQIECBAgAABAgQIECBAgAABAgQIECBAgAABAgQIECBAgAABAgQIECBAgAABAgQIECBAgAABAgQIECBAgAABAgQIECBAgAABAgQIECBAgAABAgQIECBAgAABAgQIECBAgAABAgQIECBAgAABAgQIECBAgAABAgQIECBAgAABAgQIECBAgAABAgQIECBAgAABAgQIECBAgAABAgQIECBAgAABAgQIECBAgAABAgQIECBAgAABAgQIECBAgAABAgQIECBAgAABAgQIECBAgAABAgQIECBAgAABAgQIECBAgAABAgQIECBAgAABAgQIECBAgAABAgQIECBAgAABAgQIECBAgAABAgQIECBAgAABAgQIECBAgAABAgQIECBAgAABAgQIECBAgAABAgQIECBAgAABAgQIECBAgAABAgQIECBAgAABAgQIECBAgAABAgQIECBAgAABAgQIECBAgAABAgQIECBAgAABAgQIECBAgAABAgQIECBAgAABAgQIECBAgAABAgQIECBAgAABAgQIECBAgAABAgQIECBAgAABAgQIECBAgAABAgQIECBAgAABAgQIECBAgAABAksQuPvu8q/O9f/yxuTBvbcng/w9yYPZbduD/H3xrzfIevEv6Wfne4P8ztF/R+8d/b36fHz3aBp7b49pxrSXsApmQYAAAQIECIwKfHinfG1vZ/8d2/3dWyNhJ4P8nmSQX+yl2RO9NL+cpMWfeml2tZcWZTP/sqtH88gvxzxj3rEMUVTEMsWyxTKOLrPXBAgQIECAwJQC5x8oXx973sM99jS/P0l3f5KkxXPNJPX6i4VY1ljmXprff3TUIb851mnK1fcxAgQIECDQfoFIjNv94pZkUHw2SfceTfrZM83uxdef8KcrTLKrsW7DdRwUn411VhS0v31bQwIECBC4JvDRNHvztd/W7xkeRk+zvekS6KoSd3PzTdLsIBkUTyWD4iu9fvGhrYeLt2ooBAgQIECgFQKxl9vrZ7cPk9wgu9LVZD/teidp9tujgiC73RGCVnQBK0GAAIHuCMSe7NYgv6OXZpeSDu/hT5v0J30ujhAMT3Ac5HduXchuchVCd/qQNSVAgMDGCESCunZGvL38hq5CODo6kN8T1hvTMCwoAQIECLRPYHuw/844ea+X7j49aS/W+w2dQzD8OSW/L66WaF/LskYECBAgsHYCw5P4+sVdkn5DiX2uowf55aRf3BXbZu0ajAUiQIAAgc0ViN+ejy7Vyy8e/S69TsnPslRHWbbS7DDOu4iRDO++u3z15rY4S06AAAECKxUYnsyXZp/bpEF4qmTY9efYZltp9rmPDPK3rLQRmTkBAgQIbI7A8IS+dPcbzuDf/KMLw6MCg/wx5wpsTv+zpAQIEFiqQBzmjwF64hDy0d5zk2Pqb35i3cQjDEm698sYcMjlhEvtWmZGgACB9RT44MPl64Y31hkOwSsxb2Jin32Zd5+Obe7GRevZJy0VAQIEGhV4/8XyNcNb427QTXZmT3QKmtPMhnc2HOR3KgQa7WomToAAgfUQGCb+fvGhGFTmtOTgbx0qHgbZlRi5MdrGerRSS0GAAAECtQkML+Ub5O87utteh5LbXNfVd9QnBhcaZD2XENbW7UyIAAECqxXY7u/e2kvzy/bqO5rYZyyC4g6F0WZW22rNnQABAgTmFkge3Ht7MsgvSvwS/3xtIAYV2n/n3A3QFwkQIEBguQLn+n95Y9yYx3X8Ev98if/Y7Wjkx/y+aFPLbcXmRoAAAQJTC8Tv/NfO7P/TooHf94+TIIui3EqL57fS4pwxBKbujj5IgACB5Qic6++9LUnzxyUribvZNpA90dvZf8dyWrW5ECBAgMBEgThjuzfI73S4X+JvNvEf+0Zbi9tAu2xwYrf0BwIECDQrkOzsvns4vOuMZ3kvK1GYz3HSbKNFkuZP9gb5zc22clMnQIAAgVcEYs8rSfN73Zq33Ql2E4qGaINxwqmjAa90Ty8IECDQjED8/mqvX+Jft+Igxg7o7ey+q5lWb6oECBDouEDcyS1Js2zdgr/lUZBEG4i2GUMKu1Kg44HK6hMgUJ9AXIPdG+SPSbQS7Wa0gezS+Z3dN9XXA0yJAAECHRTY7he3xDXYmxH4JWjbKbsaBklaPBdtt4Nd1ioTIEBgMYE4jBqHU53op6jY1KJi2HYH+Z1+ElgsFvg2AQIdEjj/QPl6Y/hL/Jua+G9Y7kH+2Me/Vr6hQ13YqhIgQGB2gaMb+BRP3RBEXetfMtnkoii/7MZCs8cD3yBAoCMCvX52e5IWL0l0m5zoLPuk9httO3kwu60j3dlqEiBAYDqB+L1/K80OJwVP70us7WgD2dUYRni6XuFTBAgQaLFAnCDVS/P72xHcJWnbcbo2sJ0WD8Z9LFrcta0aAQIEJgvEyX6u758uYUisbXTKLkUfmNxD/IUAAQItFPhomr3ZkL5tTGrWabpirRovIH/yI4P8LS3s4laJAAECNwocjedfPDddoJRQOLW8DQyyK3H1y409xTsECBBokUBcChWjpElqLU9qLtuc6bLN4WiXbibUokhnVQgQuE5g60J2U5IWf5L8JX9t4MY2MLwEdpDffF2n8R8CBAhsusB2v3iva/xvDPqrSoTnHyrKTzxy9C9er2o5zHfUPrsadxR0D4FNj3aWnwCBVwQioEn+o4G+2dcfe6gov/Dd/fLCj/fLx/7roPzPZw/L3714WL7wcllm+2V5eFje8Ij34m/xmfhsfCe+G9OIacU0JevlGBwVAbu3vtKBvCBAgMAmCmz3d29N0mxP8mgueURy/tIPj5L9U88dlgdjEvwNGX/GN6JAePaFw/JHvzkov/r4fnnHI82tj7YSdxPM9hwJ2MSIZ5kJEBgKJIP8PbE3I6DXnyzj8P3Xf3ZQXv5DMwn/rPogioyY9yP/ejD8KcE2rn8bX/s54L3CCQECBDZKoDfIb3bYv96ksL1ztKf/H88clvsHZ6Xo5f09ioFfXzkcHhmIZVQM1GcQfShOnt2ozm9hCRDorkBvZ/ddcba/ZFBPIoiT9GJP+8WXl5fU551TLOM3//3AOQM1XgYZRUCys/vu7kYUa06AwEYInOvvvW14TXONAbCre5Tx234k05eyedPx6r73clEOTyJ0rkA9ReDROAH779iIIGAhCRDonsDR8L4G+Vm0YIkjJ/H7fpyVv+mPKARiXRwNqqEQGGRXzu/svql7kcUaEyCw1gJxUxNj+y8e5D//nf3h2fabnvhPLv+VFw7LL35v3/kBCx4Ziz7mBkJrHQotHIFuCQxv6TvIH1t0z7fL34+z+n/8fw7GXqN/Mplu6v/jUsIf/+bAJYQLFgG9tPi+Wwl3K8ZaWwJrK9BL8/u7nLwXXfcYaOePf9nUtD77csdgQ44GLHa0KBkUX1nbgGDBCBDohkBvkN+5aALs8vfj7P4mBu6ZPS0v9xuxznGCY5e3/eLrnn+qG1HGWhIgsHYCvX52+1aaHS4eyBbbG9rE+cfZ8b+60sCQfcvN4wvPLYYcdqXAfO1/2Pf62e1rFxgsEAEC7RaI+5cb6Ge+wP3JrxfD8fYXzp4tmcDv/3xY/t0357PcxOKvzmUe9sEdlwe2O9paOwJrJDA8439QPFVnIOvKtD7zraJTv/dPW6PEeQFh05V2UO965pc//rXyDWsUIiwKAQJtFIgz/pNBfrHeANaNwB8n+8V18R7jBWLAo7gMUtuavT8k6d6j0TfbGHOsEwECayJwrl98WoCePUBHYmvDwD7jU3d974aRImD29nXUJ50UuCZh0mIQaJ9A3J40SbMDBcBsAToOba96ON846/75l8oybhccJ9498fRBeem/j/7F63gv/hafWfVVCXGU5K5vz2asTQ5vIXyw3S/cPbB9odcaEVidQBxaPNf/yxuN8T97UooT/lZxjX/MMwYWuvDj/WEynX4o3uxqfDYScHw3ioNVLH+cExB2EvtsBtFHDRe8ulhpzgRaJ2Ckv9mCcJW04vK23724vEv94mz67/zioPz7f55veavlHvcc04xpxxGCZT1i+GCXCM6+LeN8gNYFIStEgMBqBJJ+dn5cUvDe6cH5P55pPvnH8LoxnzjBcFnbI+YVPxnEvJt+xHyWtV6tms8g660mWpgrAQKtEdge7L8zSbOsVcFx8bHYz0xKMcpdk49IvnF4fpWXzsXPBD/7v80XAnE3Qe3v9GLzpM+wzxofoDVx2IoQWLrA+y+Wr3GHv9kCbwTiOIt9v8H8/+wLy93jP5lcTv4/1veZPzZ3OCBOSnRlwOztMPpu9OGlBw4zJEBg8wWSNL/3ZLD3/9MDcfxm3dRJc3GJ3ENPLO9Q/yzbOk4cjD31pgqfMHU+wOltb9z2Sgb5PZsfiawBAQJLFdi6kN3kkr/ZA+6PftPMrn+c4PcPj+6t/aHw+FmgqRMf47LFcUnOe5PbafTh6MtLDR5mRoDA5grEvcYd+p8cVCclnDhM3cSJcfFb//mHZl+eScvZ9PuxrHFuQN2PsPVTwOztIEnzJ/0UsLnx2JITWKpA0i/uajpJtG36cQi8id/Bf/Dk5u71fvsX9R8NifMfph/TYPZk2bZ2+cr6DPI7lxpEzIwAgc0TOLrLX7b3SuBYwhnzbZhX/P5d5yP2dttw9nusQ91HRdb1PIh1bsdxVcC5/t7bNi8iWWICBJYiMBzwJ82eWOdAto7L9rGHitpv8hOXEa7jus6zTHUXRzGs8ib9JDKPWRPfSdLdn7hh0FJCqZkQ2DyB3iDrNRF42j7Niz+vd+//sf9qT/Kvtn2sU52PNhVIldEynrfS4tzmRSZLTIBAowIx1n+SFn9aRhBq0zxiT7TOG/3ECX9t8hldlzpPDHzxZUcBRm2nfR33Cvj418o3NBpMTJwAgc0S6KX5fdMGEZ87PrmszsPbcalf/JzQVt8oluq8RNC5APO1FWMDbFZstrQEGhXo7ey/wzX/swfTOBs97lpXxyMG0NmE6/wXLU5inIAY0KiORwwO5IqA2dttkmZ7cbJvo0HFxAkQ2AyBXlp8f9HA3sXvf+mHNWWysh1n/E/bBuq8T0Jsg2nn63PHxYI7Bm5GbLaUBBoV2O7v3iowHgfGWSzquttf165tj732WOc6HnFewSzbzGeP23r0/UaDi4kTILC+AsMR/wbFU4LicVCc1iJ+q69j3Pu4Rv7oVr7Z1Wnn3YbPxTrXMT5AbIM2nzfR5LZOBsVTLgtc3/hsyQg0KhCXBDUZYNo87TgBrY5HHEVos9Pkdcuu1nUEZfBTPwNMdj69uN26kH+g0SBj4gQIrJ/A8Fa//eyZeQNH17/31HOLH8KOKXThxL9JbSXWvY6jAL++0tUi6vTkPsl99P2knz0TRwLXL0JZIgIEGhMw6M/8wTMuZ6vj8P9/Pitx/erK4oVUbAsjA87fng0O1FiYNWEC6ycQe/+9QXZldE/A6+kD6D/+oJ7D/1/8Xhy67tZv/yfbWb2W02/Dk8vR6f8PsivuFrh+cdoSEWhEYGuQ39HpgLfgDY7qGNY2xg+wDY4Sdh1jKbRx+ORlto+kn51vJNiYKAEC6yPwwYfL18VwoMsMLm2bVx23/ZWwjvfW45bHiz4u/8HPKYv0syQtnvvwTvna9YlUloQAgdoFotJfJFB0/bvxW/PB4j9blzEiXtctq/WPkwEXfcR5AEYFXLBNDbJe7QHHBAkQWA+BuOY3zvqtAq/n2QNmHckqbh7E/nr7Om6opKi63nT2Nrb7tHEB1iNWWwoCtQtsD/L3zR4UFg0q7fr+A5cWPwGwu9f+T24LdYwJ8OVLxgNYtH8nD2a31R54TJAAgdULbKX5vy0aILr+/W//YvHfq93F7sZCoI6BlWLbdL19Lrr+Sbr7k9VHKktAgECtAr1BfvOiwcH3i7KOe9p//jv2VE+2pRgaeNHHE08rAE66zvX/QX5zrcHHxAgQWK1A3P1rrmCw4CVzbZvnolcAxPmDxq6/8QjAHY8U5aLnVroS4EbXefpfMsgvrjZamTsBArUJbD1cvDVJs4N5goHvXB9Uf//nxdLUi67/n3iYftETAWPbaK/Xt9d5PCJWfGSQv6W2AGRCBAisTmArzT43TyDwnRuDaSTwRR5xBIHrja5hsujRFYMrjXedp70lg+Kzq4tY5kyAQC0CcVmPYX/rC4zZgj9Vu3HN5G2x6A2WXi5cXjlPsh/3nRgYyCWBtYRgEyGwOoG4rGdcB/fe5ER0ms2id687ugSw2+P/T/KNmyMt8ogBmiZN2/uzt/ft/u6tq4tc5kyAwMICvUH+mOA3e/AbZxajAC76cKb65G0RNos+3BVwsu+4Nn3ae3Hi8MIByAQIEFiNwEfT7M1O/qsvIMaZ6os+fvwbl6pNSjphs+gjttGk6Xt/NpuIHRFDVhO9zJUAgYUEkn5xl6A3W9A7zUsBUJ/lOGcFQLO+48zPeu9cv/j0QkHIlwkQWI1AL919+qwO7u/TB10FwPRW87QrBUCzvvNsk16aX15N9DJXAgTmFti6kN00X4dfxyC0HsukAGh2OygAmvWdOx7s7L5r7kDkiwQILF8gGeT3zN3hjf439ndkBUCzCUoB0KzvvPEgxhFZfgQzRwIE5hZw29/6g6kCoH7T0aSkAGjWd9R6ltcRS+YORL5IgMByBRz+byaQKgCaca2SkQKgWd/KeZ7nZGf33cuNYuZGgMBcAkma3ztPJ/ed0wOwAuB0n0XbjwKgWd9Ftk/8pDhXMPIlAgSWJxDDdyZp9ttFOrvvjg/ECoDxLnW1FwVAs76LbCc/AywvhpsTgbkFeju771qko/vu5CCsAJhsU0e7UQA067vwNtrZf8fcgckXCRBoXqA3yO9cuKO7CmB4FcBnvlWUD1zaL7/9i4PyB08elHUMVRu3rI3p+HejwaK3Wo5RBMM1tlVss9h2f//Pa55UN6qv5Z9qPoKZAwECcwsk6e5PFADzB/1//MH+MIksetvfRYe09f36BGJbRmEQ23Z7Z/620e1+FTewyi7NHZh8kQCBZgXOP1C+PkmzvW4HqtkDfNxA5qEn9svnX6ov6ZjSegrENo5trRCYvZ9EbIkY02wUM3UCBOYS6PWz2yX/2QLbl34o8a9nqm52qaIQiG2vv8zWX+L24nMFJ18iQKBZgWRQfEVAmy6gxV5/HSedNZumTL1JgcOyHLYBtxCers8cxZb8/majmKkTIDCXQG+QXVEAnB3MPvn1onz2hQj/HgTKYVuINqHvnG3gcsC5QrMvEWhW4COD/C0C2NkBLM4K/+NfpD0C1wu88HLpioEpr0iIWNNsNDN1AgRmEti6kH9AAXB6ARB7eU70uz7x+d+xQBSGjgSc3ocixmwP8vfNFJx8mACBZgV6aX6/AmBy8Iqzvp/5o8P+x+nOq3EC0UZcITC5Hx3FmPy+ZqOZqRMgMJNAkuZPKgAmB64YHMaDwDQC0Vb0pUl9KbuapHu/nCk4+TABAs0JXLv+/0DQGh+0Pv+d/fLQzv80uc9nynLYVr7wXZcIToonSZodGA+guXhuygRmEtjuF7dM6qzed+hfVp9dIH4K0HfGF9ThEjFnpiDlwwQINCOQDIrPClbjg1UM9uJBYB6BL19yFGBSXEn6xV3NRDNTJUBgJoEk3Xt0Ukft+vtPPefY/zzJz3fKMtpO1/vPpPWPmDNTkPJhAgSaEUjS7LeTOmqX349r/v32L5XPKxClY9wRsst9aNK6GxComVhuqgRmEoiTcXpp3KlLoDppELeE9SCwiEC0oZPtyv+LcivNDp0IOFOo9mEC9Qskg/w9AtL44sfh/0VSn++GwOU/+BlgYnwZ5DfXH9FMkQCBqQV6g6w3sYN2+KhADOay7wCALL6gQLZfGhhoQhzZSotzUwcqHyRAoH4BIwCO3/uP3/89CNQhcNe3x7cxhbcRAeuP6KZIYAaBXpo9IRDdGKBd/ldH6jONEIi2pI/d2MeSdPcnM4QqHyVAoG6BrbR4XnC6MTj9049c/y991yMw+KkCYFyMSdLiubrjmekRmEng0V8cfLer/77184Pvj+uY3ivKCNoeBOoQeOgJBcD4mJJdjRjU1fgb6z1TsvLh+gXiMp2u/hOYbtzzrwJV2HgQqENAP5vcz77+s+7G38g79Wc0U5xJ4Du/OCi7+C8a31cft2dSJfyTzwqAOlKfaYSAAmByARAxqIvxN9ZZATBTqm7mw13a+68aXfV8379EAWAQoJPJP/6vAJC86xJQAEwuACIGdTkGN5PVTHVqga5Un9HJqsRfPX/xe44AjEv+CoC6Up/phIACYFIBkF2NGNTlGDx1ovLBZgTaXn1WyX7c89H1yY4AjCsCHAGQvOsSUABMKgCK8h8e3Wv9EYBxsbfaIWsmq5nq1AJtrz6rhjbuOQa7GZf8vOcngLqSn+k4AjA5nmRXIwZVsamtsbhav3HPUycqH2xGIDZKW/+dVnnGOn/ikSgAHAEYF6AcAZC66xJwBGDyjsYnv1688tNkG+PwWTG4maxmqlMLRKPrYuUZ6/yxhyZ3zHFJsUvvKQDqSn+mowCYFGeyqxGDRpNk22JxlV8mPU+dqHywGYGq8Y1Wnxd/flA+9l8HZRufqw4W63u09+8IwLjCRgEgcdcloACYVADE+9nVKgZXz22Mu1U+qdaxem4mq5nq1AKjlVm1kdr8XDW8b/67+5SPS/zVewqAutKf6SgATi8AIuFHXIp/bU7+kVeq9azyztSJygebEagS4lmNb7Rhjr6uioXR90Zfr8vfR5cj1vUoKNn7rxL+yWcFgMRdl4AC4PQCIHzOisOjMXX09WhcG/d63Hur+P7ocsS6VuvbTFYz1akFqo0xrlFUG61Nz9X6ukHJaUHJVQB1JT/TcRXAyeL6+v9nVyMWxR5xm+LspHxSxV9HAKZO0c1+sNoQsWEmbbS2vR/rHHe7cwXA5CLAEQCpuy4BRwAm97MoBi78+Hg0wLYWASdzSMTg+NdsdjP1MwWqiuzkBmrT/0fXpSp4HrhkFMDr90SuD1IKgLrSn+koAK7vW9f3u+xq7IxUO2CjsaqtxUCV/GOdz0xQPtCsQJUQqwbY1kY3ul6xzkcFgHMArg9Gx4FKASBx1yWgADjuV+P6W8SiakdsNE61uRio1rfZ7GbqZwrEhoiEOKnhjWuEo++Nvq6mMfre6OtV/L2aZ/Vcre+XHQE4dRREBUBd6c90FACnFQDZ1bghUMSls2JlFcNGPzf6el3+Xi3HpOcq+UfeOTNB+UCzAtURgHge15gmbcRNfj/W1Z0ATwtKTgKUtusTUACc3teqAmBSEbApsXY0f4y+Hrf8Vd5pNruZ+pkC1R7xuI101kbcxL9XDe9LP3QOwLjDkdV7jgDUlwC7PiUFwGkFwNERgIhLXYvBsc5nJigfaFagSojxfFpCP+1vm9Zwo+g5uhVwnAPgPIAq6Y8+KwC6nrbrW38FwGkFQFH+4w+OxwFoU5yt8sK4dap+Bmg2u5n6mQJdOwJQNbzodJL/5MCkAKgvAXZ9SgqASf3saAckdkYiLo1LlFUSXZfnOpaxisGOAJyZnpv/wKQjALNs6NHPjr6uGu3oe6Ovl/X3aj7VczTA6gjA9s6kztnt9xUAx2n74LAsf33lcDh65F3fLsq//UpR/q8vZeVf33P073/emw3fi3u7h1t8Nr7jcSSgADgtlmRXqyMAk4qA0Zg5+rqKZ6Pvjb6u6+/VdCY9j5vnpM9W71dFQPMZzhxOFYgNEUVAtWHa/lw1vKNzABz+Hz3sP/paAVCWz75wODxZNJL9//jCbP/iO3FyV0yj6w8FwOkFQHUS4DyJtOl43cQyVTHYEYBTU/Ny/jjpCMCkhtVEg5g0r0Xfn7Sssc6uAjgtKHX7KoDfvXhYfuZbxcxJf1KREEcGYppdfSgATu9rsTNSxeFJMWuT3p9mWasiYDlZzlwmCnTtCEDV0VwFcHpQ6uIRgDhsH+Oy3/rF2fb2JyX+0fdjmmHaxZ8GFACn9bXTxwFYdCeoqe9Pk+QnzbtK/hGLJyYmf1iOQJUQ43ncRh333qQNuynvRwM8GgjITwCjh/1HX3etAHjh5bK845Hmfj6XAAAap0lEQVT69vpHk//o6088UpQxry49FACnFQDFMBZVSbGN8XbcOlXru5wsZy4TBWJDRPKvK3mPbuzR19X0R98bfV3X36vpTHquGp57AZwelLpUAPz+z4fDk/hGE3WTr//my1mnfhJQAJzW17Kr1VDA4+LhyTg2+pnR19XnRt8bfT3t36vPzfo8bl6TplHFYEcAJqbl5f3hrCMAJzfiLBv65Heb/v+4ZRv3XjRA9wI4LSh15xyASP6RkJtM+OOmHfN8/qVuHAdQAJze16qbAUVcGhevmo6b1fRH5z36uvp7nc9V3llepjOnsQLR6Oo8AlBnI2miEVbV51cfNxLg6CH/k6+7cATgpaxc6p7/yUIgLid8uWh/EaAAOK0AyK5GLJqU/JuIgfPG6FmW5bTPVsk/nscmJW8uT2B0Y5y20U42mlk+e/K7q/5/dLY42ctAQJMDU9sLgDgnv84z/U8m92n///f/XJRtvz5AATC5n0XhHbGo2jHZ5Lg6S1yv8s7yMp05jRWYpuG1qVFW6ysonR6U2l4A/ODJg6Uf9p9UFMSytPmhr53W17Kr4RNxaRPj7DzLXCV/RwDGpuTlvlltjHkb4DQNYPQzo6+rinH0vdHX0/69+ty0z9W6OgIwOTC1uQCIQ//zDO4zKYEv+n4sS5t/ClAATO5ncQQgYl61YzIu/p0V10a/M/q6+t7oe6Ovq783/TxuntX6LjfbmdsNAtWGGLeR5m0YdU5r2mUYnefo65Pfr9Y3nk/+7u3/x4GqzQXAhR/vr83ef1U8xGHgtj4UAMf96voYc3QvgGon7LS4dTKOzfLZk989+f9lT6uKwY4A3JCOl/9G1fhio9TZEE42slX9f9w6xbrGen/soeiYxgK4PigdBau2FgDZflnG2P1V4l2X51imWLY2PhQAkwqAYhiDqoS4LjF4NGaOvq4zhld5Z/kZzxyvE6gaX1MbusnpzjPtan3j+ZNfn9wxxyXFLr3X1gJgnX77P1l8tPVcAAXApDiTXY0YVCXDcfFs9L3R13Um40WmO893q/WN5+uSkf8sX6DaGJOqz9ENPPp6XRrgvMsR6/t334yO6QjAuMKmrQVABNyTiXdd/h/tsY0PBcCkAqAo4yqQ0Z2SdY6xdS5btc7Lz3jmeJ1AtSHm2bij3xl9PSkpj35m9PXJz4/+bfT1yc/N+/9qneMmLeOSn/faORDQ/kHZyDj/dRUQcb+AWMa2PRQAkwqA7GrcXrraCasj1o1OY/T1WbFyls+eNa2z/l7FX0cArkvFq/lP1fhio9TZCGaZ1iyfPatxTfv3WN8vfs9YAJOKnTYeAfjPZw/Xdu+/KiJ+daV9owIoACYVAMUwBlUJse4YfDIWjsbZ0dcnPzfv/8dNc9x7Mf0q76wm65nrKwJV45u0odb5/XHLNu69kw26Wmd3BJwcmNpYAMR2rxLtuj5HW23bQwEwqZ8tdifAaWLdydhX1/8XmXeV/B0BeCUNr+5FtTGarj7ranizTmdSQ431PhoO2DkA444CtLEAiPs/rGvir5YrlrFtDwXApAKgKOOS1GqHZFKsWub7y5pXlXdWl/nMeSiwTo1v1uQ+7+erxicwTQ5MbSwAvvDd9S8A4meptj30s0n97GgUwIhHZ8WyZSXmcfMZ994iy1vF33iWhlcs8O3//f/+ePLft35+9N66P1fLXS3npP9X7598ju+5CmB8cGpjARAnfVZ72uv6HMvYtocCYHwfiyNvJ2NXFaPGvV+9Vz3HZ6vXJ5+n/dvo52ad9+h3q/lX0xh9Pu1vK05/Zt91ga20eH7cIfCuv9fGAuDz31n/IwBxlKJtDwXAuAIgu5qkxXNdj7/Wn8BKBZJ09yddT/bj1r+NBUCc9Lmue/7Vct33LwqAce2xje8laf74SoOfmRPoukAvze9vY3BZdJ3aWADEOlWJdl2fv/4zVwEs2nY35/v5fV2Pv9afwEoFeoOstzkBY9yhxGbea2MB8MTT638ZYCxj2x7RlvSxG/vpVlqcW2nwM3MCXRdIBvl7BKcbg1MbC4AXXi7X/ghALGPbHgqAG/tXxJytC9lNXY+/1p/ASgU++HD5uq00O1QEXB+k2lgARGL926+s770AYtna+FAAXN+3hsk/zQ4j9qw0+Jk5AQKvelXSz55RAFwfpNpaAMTAK+v6+//gp+07ATAKGgXA9X3rKNbsPi32EiCwBgJJuveoAuD6INXWAuDKC+t7P4Dfvdi++wAoAK7vV1WcSQb5xTUIfRaBAIFkUHy26piejwJWWwuASEhxC9Z1OwrwmW+18/C/AmBCAdAv7hJ5CRBYA4HtfnGLxH99oGpzAXD5D+t3FCCWqa0PPwFc37ci1mz3i/euQeizCAQInH+gfH2SZgeKgONA1eYCIBJtjLm/DkcB/vqebLgsbU3+sV4KgON+FTEmYk3EHJGXAIE1EUjSvV8qAI4DVdsLgJeysvybL2crLwJiGV5u79H/YV2jADjuV0cFwN4v1yTsWQwCBELAiIDXB6m2FwCRmX515bCMPfBVHQmIef/6SnsP/VdHNRQA1/etJM3vFXUJEFgjga0L+QccATgOVF0oACJBXfrv1Y0O+IMn2zfqX5X0R58VAMf9KmLM9iB/3xqFPotCgMBH0+zNCoDjQNWVAiASVdzvfNlHAeJe6F15KACO+1XEmPM7u28ScQkQWDOBJM1+qwg4ClZdKgAiEceRgFu/2PzPATGPmFeXHgqA4wIgBh1bs7BncQgQCIFkUHxFAdDNAiAS8jN/PGx0qOAY6vfZF9r/m//J4kYBcFwA9FJ3AJRtCKylQK+f3a4A6G4BEIlr/+DosrU6jwbEtCIJHnQv9w9rAQXAcQGw3d+9dS2Dn4Ui0HWBuDlHkmZ7ioBimLBO7sl16f8vvlyW//Sj/fJ/3jv/zwLx3a8+vl/GJYddfigAjgqAiC1uANT1LGP911ogSfPHFQAKgCphx177E08fDAfrmWbcgPhMDDIU3+nqHn9lVz0rAKojANmltQ5+Fo5A1wV6g/xOBYACoEpeJ59j0J4YtjcSfJzMF//idbzX9gF9TlpM+38FQBQA2dVemn+q6/HV+hNYa4Hezu67FAAKgGmTm8+dLaAAuHYEYGf/HWsd/CwcAQKvepXLARUAZ6c1n5hWQAFQlC7/k1kIbIhAMsjv6fpRgAjaHgTqEFAAFOVWmn3u7rvLv9qQEGgxCXRXYOtCdpMCQAFQR/IzDXcDHMaSnd13dTeiWnMCGybQS3ef7nIR4AiA1F2XgCMA+eUNC38Wl0B3BeJQXRyyUwDUlQJMp8sCXS8AIpZ0N5pacwIbKJDs7L5bAdDltGXd6xLoegGwPdh/5waGQItMoNsCyaB4qqtFgJ8A6kp/ptPlAiBiSLejqLUnsKECSb+4SwEggRFYTKDLBUAMLLah4c9iE+i2QNy3O0mzgy4WAY4ALJb0fPtYoKsFQMSOiCHdjqLWnsAGC/QG+WMKgONg7hWBWQW6WwDsPbrBoc+iEyCQPJjdpgCYNeT7PIFjga4WAG79K38Q2HCBuCSwN8iudK0I8BPAcQLzajGBLhYASVo8Z+S/DQ/+Fp9ACHRxTAAFwGJJz7ePBTpZAAyKz4qeBAi0QOAjg/wtXTsZUAFwnMC8WkygawVAxIqIGS0IfVaBAIE4lJcM8otd+hlAAbBY0vPtY4HuFQC73xA1CRBokUDXbhCkADhOYF4tJtC1AqA3yG9uUeizKgQIhEAvzZ7oylEABcBiSc+3jwW6VAAk6e5PREsCBFoo0OtntysAjgO7VwSmEehUAfBgdlsLQ59VIkBgeElgml/uQhHgCMA0qc1nphHoTgGQX3bpnzxBoMUCST87rwCYJuz7DIEjga4UAFtpca7Foc+qESDw4Z3ytTHIR9uLgAs/3pe/CNQiEG2p7f0lBgt7/8XyNSIkAQItF+gN8jvaHtC+fEkBUEv2M5Ey2lLb+0tvkPVaHvasHgECIRCVfpJmv21zUPv8dxQAcnc9Av/w6F67CwB7/xIDgW4JRMXf5gLgYw8V5WE98d9UOixweFiW5x8q2l0A9IsPdSv6WVsCHRcYHgXoZ8+0uQj4/Z+VAB3O3bWs+u9ePGx38k93n7777vLVHQ+HVp9A9wR6/eJDbS4AfvSbg1qSgIl0V+DSfx+0ugDYupB/oHuRzxoTIPCqo3sEFE+1tQj40g+dB9Dd1F3Pmkcbamv/SNL8Sdf9SwQEOiyw3S9uaWuA294pyhdfricRmEr3BF7KyjLaUGv7R7+4pcOhz6oTIBACvUH+WFuD3GP/5WeA7qXuetb4O79o7+H/JN17VPQjQIDAq871996WpNleG4uATzxSlJlfAurJiB2aSrSZOx5p595/9PXo80IfAQIEhgJJmt/bxgIg1unizx0F6FDurmVVv/nvLd77H+T3CHsECBB4ReD8A+Xrt9Li+TYWAfE7blzO5UFgGoFnXzhs7W//0cc//rXyDa90fC8IECAQAnEzkDYWALFOn/mWnwKmSX5d/8z+QVne9e12Hvof9m2D/gj2BAiMEzi6XXB2qa1FwD/9aL+Mkd08CIwTiLbxQIvH/U/S/HGX/Y2LfN4jQGAocO2EwKytRcDXf3ZgiOBx2a/j70VdGG2jre0+SbPMiX+CPAECZwqc6xefbmsgjPUa/HS/PHAkoOMp/3j1Y8//kX9tb/I/6sv5p87s+D5AgACBGBs8Sfd+2eYiIEZ4e7k4TgJedVMgBvtp82h/0YdjxL+494fIRoAAgakEkp3ddydpdtDmIuDvvlmUv77iUEA3U39Z/urKYRltoM1tPPrw1oXspqk6vQ8RIECgEkgG+T1tDo7Vun350r7LBDtUBcQlobHNq+3f5uetNPtc1Z89EyBAYGqB4S2Dhz8FZFfbHCSrdYukEHuFzg9oXzUQ2zS2bVcSf7Tp+BnPof+pw50PEiBwUmDr4eKtcQZxlSS78BzDB8clg3E74ct/OCzjd2KXD25OURDbKrZZbLvYhrEtY5t2oe1W6xh9Nnlw7+0n+7P/EyBAYCaBpJ+drwJLl5/PP1QME0kkE//W0yC2UZfbaLXuMajXTJ3chwkQIDBJoM13DKyCpmfJsw1twJ3+JkUx7xMgMJfAuf5f3pikxXNtCJDWQaJvaxuIPhp9da5O7ksECBCYJLDdL25p+6WBbU0M1qv9RU/0ze1+8d5J/df7BAgQWEigl+afkkzan0xs4w3cxoP8joU6ty8TIEDgNIG4mUgyyC9KEBuYIFLL3NZ2m6S73zit3/obAQIEahE4/0D5+mRQPNXWYGq9FAqb1AZiqN8PPly+rpbObSIECBA4S+DoroHFS5sUKC2rxN6uNpBdTdLiJXf5Oyta+TsBArUL9PrZ7VtpdtiuoCpJ2p6b0QbipL/kwey22ju2CRIgQGAaAScFbkaykNRbuJ2c9DdNiPIZAgSaFOil+X0STAsTjJMG13ZUwSTN722yT5s2AQIEphIYXhmQ7j2qCFAEaANLaQPfjz43Vef0IQIECDQtEGchb6X5v0kAS0kAa7tnavs3u/3jDn/O+G86mpk+AQIzC5zf2X1Tb5BdkQSaTQJ8u+mbpNlvo4/N3DF9gQABAssQuHZ5oHsG+P3cUYoa28BWWjzv9r7LiGDmQYDAQgK9nd13JWnxJ3uq3dxTtd3r3e7Rl7YH++9cqFP6MgECBJYlkOzsvjsGKeml2VUJod6EwLM7ntGHti5kNy2r35oPAQIEahHoDfKbkzTLJKzuJCzbur5tHX3H3f1qCUUmQoDAKgSu3UJ4T2KoLzGwbL9lkmZ70XdW0WfNkwABArUIxPXKsRdz9HNA+wO35GwbL9oGru35S/61RCATIUBg5QLJIH+PIkByXDQ5tv370Ueir6y8w1oAAgQI1CkQJzO5OkAR0PYkPu/6DfvGIL+5zj5nWgQIEFgbgd7O/juStDBOQI3XiM+bcHxvfYqxuM4/Lp9dm45qQQgQINCEQAxoYsTA9Uk+CoHVbosY4S8G0Gqir5kmAQIE1k4ghjSNcc2NE7Da5CP5r9Y/7p9heN+1C08WiACBpgXipia9Qf6YJLTaJMR/Nf5JuveoG/s0HWVMnwCBtRWIywR7aX6fJLSaJMR9Ve75fW7pu7ZhyYIRILBMga1BfsdWmh1KSKtKSOa7jLaXpNlBb5Dfscy+ZV4ECBBYe4Hkwew2YwVIxMtIxKuYx/Aa/wez29a+I1pAAgQIrEIgrhBI0vzJVQRo81R8NNcG8stxCewq+pR5EiBAYGMEzj9Qvj5Jd7/RXDCW6Ngurw1EW3ay38aEHwtKgMA6CPQGWW/4m6lBc0oJe3kJuy7ra7/337kOfckyECBAYOMErt1IyMiBiqCNKoJitEu38t24cGOBCRBYN4Fz/b+80U8Cm7cHXNee9KZNJ67vjza7bv3I8hAgQGBjBXr94kNxq1SjByoG1rEoiLYZl7NubAez4AQIEFhnga2Hi7fG8KnrmAAsU1cLk+xqDGsdV7Csc9+xbAQIENh4gfdfLF+TDPJ7nCDY1YS7PusdbXArzT4XbXLjO5YVIECAwKYIxO1Tj24otD4JwVGA7myLGK9i60J206b0F8tJgACBVgncfXf56vjd9ejcgO4kH4XG6rZ1tLVkUHzWXn+rQomVIUBgUwXi3IBeml2SGFeXGLtgn6S7P/Fb/6ZGCctNgEBrBeLualtpcW4rLZ7vQjKyjssrdoZtql98yB38Whs+rBgBAm0QiGFX4xBtkmZ7kuTykmQbrY9ONM3v+/jXyje0oW9YBwIECHRC4Fx/723JIL/YxsRknZZQ2Azyx6INdaKzWEkCBAi0UWC7X9ySDIqnJM0lJM0WDFkcZ/dHm2ljX7BOBAgQ6JxA/Ha7Pcjf10t3n1YIKATGtYEkzX4bN6DyO3/nwoMVJkCgCwJVIZD0s2fGJQHvdbA4GGRXriX+V3ehD1hHAgQIdFogruE+ut1w8Zx7C3Qw6adFGXfsizEkXM/f6VBg5QkQ6KrAh3fK10Yh0Evzy/b+u1II5Jdjm0v8Xe311psAAQIjAsOfBvrFLb1B/phCoK2FQPZEnAfiN/6Rhu8lAQIECBwLJDu7707S3W+42dDmFwJbaXYYRV0yyN9zvIW9IkCAAAECpwh8ZJC/JQYU6sVJYi24vK1T6zDIrsS2i214yib2JwIECBAgMFmg+nkgBhVyVGB9jwocbZvs0rXD/M7on9yk/YUAAQIEZhU4v7P7pnP94tMGFlqfQmC4LQb5nbFtZt2ePk+AAAECBGYW2B7sv3P4E4ErCMpl/7wwHLQnze/z2/7MzdYXCBAgQKBOgeGJg4P8HgMMNXdkIGyTQX5Pb2f3XXVuO9MiQIAAAQK1CGw9XLx1OLZAnH3ujoRzHx249pv+E71BfufWhewml+/V0jxNhAABAgSWITC8NfGD2W29NL/f0YGzjw4cGeX3Jw9mt4XdMraReRAgQIAAgcYF4kS1SG7DQ9lp9kSXjxDEHn6cwJcMiq/0+sWHXLLXePMzAwIECBBYF4HYyx3errhf3JWke4/GHvBw8JqWjTsQ63TtN/yLSb+4K9bZHv66tELLQYAAAQJrIRCJsTfIb752j4L7kjR/PG5cswk3LRom+rR4Lpa5l+b3baXFufj9XrJfi6ZlIQgQIEBgEwXi5jXJg3tv3+7v3hrFQfyMEEMW9+KnhEHx1FZaPN/kQEUx7eE8BsVTw3nGcMlxVv4g68Uynevvvc0NdjaxZVlmAgQIEGiFwLn+X94YyTiukY/EHCPjxb/YGx8WDv3sfJxZP/ovGb6X9eIz1eePCo385phWTLMVOFaCAAECBAgQIECAAAECBAgQIECAAAECBAgQIECAAAECBAgQIECAAAECBAgQIECAAAECBAgQIECAAAECBAgQIECAAAECBAgQIECAAAECBAgQIECAAAECBAgQIECAAAECBAgQIECAAAECBAgQIECAAAECBAgQIECAAAECBAgQIECAAAECBAgQIECAAAECBAgQIECAAAECBAgQIECAAAECBAgQIECAAAECBAgQIECAAAECBAgQIECAAAECBAgQIECAAAECBAgQIECAAAECBAgQIECAAAECBAgQIECAAAECBAgQIECAAAECBAgQIECAAAECBAgQIECAAAECBAgQIECAAAECBAgQIECAAAECBAgQIECAAAECBAgQIECAAAECBAgQIECAAAECBAgQIECAAAECBAgQIECAAAECBAgQIECAAAECBAgQIECAAAECBAgQIECAAAECBAgQIECAAAECBAgQIECAAAECBAgQIECAAAECBAgQIECAAAECBAgQIECAAAECBAgQIECAAAECBAgQIECAAAECBAgQIECAAAECBAgQIECAAAECBAgQIECAAAECBAgQIECAAAECBAgQIECAAAECBAgQIECAAAECBAgQIECAAAECBAgQIECAAAECBAgQIECAAAECBAgQIECAAAECBAgQIECAAAECBAgQIECAAAECBAgQIECAAAECBAgQIECAAAECBAgQIECAAAECBAgQIECAAAECBAgQIECAAAECBAgQIECAAAECBAgQIECAAAECBAgQIECAAAECBAgQIECAAAECBAgQIECAAAECBAgQIECAAAECBAgQIECAAAECBAgQIECAAAECBAgQIECAAAECBAgQIECAAAECBAgQIECAAAECBAgQIECAAAECBAgQIECAAAECBAgQIECAAAECBAgQIECAAAECBAgQIECAAAECBAgQIECAAAECBAgQIECAAAECBAgQIECAAAECBAgQIECAAAECBAgQIECAAAECBAgQIECAAAECBAgQIECAAAECBAgQIECAAAECBAgQIECAAAECBAgQIECAAAECBAgQIECAAAECBAgQIECAAAECBAgQIECAAAECBAgQIECAAAECBAgQIECAAAECBAgQIECAAAECBAgQIECAAAECBAgQIECAAAECBAgQIECAAAECBAgQIECAAAECBAgQIECAAAECBAgQIECAAAECBAgQIECAAAECBAgQIECAAAECBAgQIECAAAECBAgQIECAAAECBAgQIECAAAECBAgQIECAAAECBAgQIECAAAECBAgQIECAAAECBAgQIECAAAECBAgQIECAAAECGyHw/wFFUZKtzQ4JrgAAAABJRU5ErkJggg==;" parent="1" vertex="1">
          <mxGeometry x="1594" y="-158" width="38" height="38" as="geometry" />
        </mxCell>
        <mxCell id="bZfns3RA5erKDMG97pNH-32" value="" style="shape=image;verticalLabelPosition=bottom;labelBackgroundColor=default;verticalAlign=top;aspect=fixed;imageAspect=0;image=data:image/png,iVBORw0KGgoAAAANSUhEUgAAAgAAAAIACAYAAAD0eNT6AAAAAXNSR0IArs4c6QAAIABJREFUeAHt3V2ILHeZMHBZRATFC69E8EIQEUEQchHwwos3e5GLvLy50AUvXD/OVA8cNIiyYcXgBkWIsEGCCas5XT0kUXGPGDGKshyMStbd9XVdIxt5T16C4WA0aAhGMlU18w5z6uXpOZXpM6d7pj+q+qPq13DoPj3d9fGr//95nqqu+terXuVBgAABAgQIECBAgAABAgQIECBAgAABAgQIECBAgAABAgQIECBAgAABAgQIECBAgAABAgQIECBAgAABAgQIECBAgAABAgQIECBAgAABAgQIECBAgAABAgQIECBAgAABAgQIECBAgAABAgQIECBAgAABAgQIECBAgAABAgQIECBAgAABAgQIECBAgAABAgQIECBAgAABAgQIECBAgAABAgQIECBAgAABAgQIECBAgAABAgQIECBAgAABAgQIECBAgAABAgQIECBAgAABAgQIECBAgAABAgQIECBAgAABAgQIECBAgAABAgQIECBAgAABAgQIECBAgAABAgQIECBAgAABAgQIECBAgAABAgQIECBAgAABAgQIECBAgAABAgQIECBAgAABAgQIECBAgAABAgQIECBAgAABAgQIECBAgAABAgQIECBAgAABAgQIECBAgAABAgQIECBAgAABAgQIECBAgAABAgQIECBAgAABAgQIECBAgAABAgQIECBAgAABAgQIECBAgAABAgQIECBAgAABAgQIECBAgAABAgQIECBAgAABAgQIECBAgAABAgQIECBAgAABAgQIECBAgAABAgQIECBAgAABAgQIECBAgAABAgQIECBAgAABAgQIECBAgAABAgQIECBAgAABAgQIECBAgAABAgQIECBAgAABAgQIECBAgAABAgQIECBAgAABAgQIECBAgAABAgQIECBAgAABAgQIECBAgAABAgQIECBAgAABAgQIECBAgAABAgQIECBAgAABAgQIECBAgAABAgQIECBAgAABAgQIECBAgAABAgQIECBAgAABAgQIECBAgAABAgQIECBAgAABAgQIECBAgAABAgQIECBAgAABAgQIECBAgAABAgQIECBAgAABAgQIECBAgAABAgQIECBAgAABAgQIECBAgAABAgQIECBAgAABAgQIECBAgAABAgQIECBAgAABAgQIECBAgAABAgQIECBAgAABAgQIECBAgAABAgQIECBAgAABAgQIECBAgAABAgQIECBAgAABAgQIECBAgAABAgQIECBAgAABAgQIECBAgAABAgQIECBAgAABAgQIECBAgAABAgQIECBAgAABAgQIECBAgAABAgQIECBAgAABAgQIECBAgAABAgQIECBAgAABAgQIECBAgAABAgQIECBAgAABAgQIECBAgAABAgQIECBAgAABAgQIECBAgAABAgQIECBAgAABAgQIECBAgAABAgQIECBAgAABAgQIECBAgAABAgQIECBAgAABAgQIECBAgAABAgQIECBAgAABAgQIECBAgAABAksQuPvu8q/O9f/yxuTBvbcng/w9yYPZbduD/H3xrzfIevEv6Wfne4P8ztF/R+8d/b36fHz3aBp7b49pxrSXsApmQYAAAQIECIwKfHinfG1vZ/8d2/3dWyNhJ4P8nmSQX+yl2RO9NL+cpMWfeml2tZcWZTP/sqtH88gvxzxj3rEMUVTEMsWyxTKOLrPXBAgQIECAwJQC5x8oXx973sM99jS/P0l3f5KkxXPNJPX6i4VY1ljmXprff3TUIb851mnK1fcxAgQIECDQfoFIjNv94pZkUHw2SfceTfrZM83uxdef8KcrTLKrsW7DdRwUn411VhS0v31bQwIECBC4JvDRNHvztd/W7xkeRk+zvekS6KoSd3PzTdLsIBkUTyWD4iu9fvGhrYeLt2ooBAgQIECgFQKxl9vrZ7cPk9wgu9LVZD/teidp9tujgiC73RGCVnQBK0GAAIHuCMSe7NYgv6OXZpeSDu/hT5v0J30ujhAMT3Ac5HduXchuchVCd/qQNSVAgMDGCESCunZGvL38hq5CODo6kN8T1hvTMCwoAQIECLRPYHuw/844ea+X7j49aS/W+w2dQzD8OSW/L66WaF/LskYECBAgsHYCw5P4+sVdkn5DiX2uowf55aRf3BXbZu0ajAUiQIAAgc0ViN+ejy7Vyy8e/S69TsnPslRHWbbS7DDOu4iRDO++u3z15rY4S06AAAECKxUYnsyXZp/bpEF4qmTY9efYZltp9rmPDPK3rLQRmTkBAgQIbI7A8IS+dPcbzuDf/KMLw6MCg/wx5wpsTv+zpAQIEFiqQBzmjwF64hDy0d5zk2Pqb35i3cQjDEm698sYcMjlhEvtWmZGgACB9RT44MPl64Y31hkOwSsxb2Jin32Zd5+Obe7GRevZJy0VAQIEGhV4/8XyNcNb427QTXZmT3QKmtPMhnc2HOR3KgQa7WomToAAgfUQGCb+fvGhGFTmtOTgbx0qHgbZlRi5MdrGerRSS0GAAAECtQkML+Ub5O87utteh5LbXNfVd9QnBhcaZD2XENbW7UyIAAECqxXY7u/e2kvzy/bqO5rYZyyC4g6F0WZW22rNnQABAgTmFkge3Ht7MsgvSvwS/3xtIAYV2n/n3A3QFwkQIEBguQLn+n95Y9yYx3X8Ev98if/Y7Wjkx/y+aFPLbcXmRoAAAQJTC8Tv/NfO7P/TooHf94+TIIui3EqL57fS4pwxBKbujj5IgACB5Qic6++9LUnzxyUribvZNpA90dvZf8dyWrW5ECBAgMBEgThjuzfI73S4X+JvNvEf+0Zbi9tAu2xwYrf0BwIECDQrkOzsvns4vOuMZ3kvK1GYz3HSbKNFkuZP9gb5zc22clMnQIAAgVcEYs8rSfN73Zq33Ql2E4qGaINxwqmjAa90Ty8IECDQjED8/mqvX+Jft+Igxg7o7ey+q5lWb6oECBDouEDcyS1Js2zdgr/lUZBEG4i2GUMKu1Kg44HK6hMgUJ9AXIPdG+SPSbQS7Wa0gezS+Z3dN9XXA0yJAAECHRTY7he3xDXYmxH4JWjbKbsaBklaPBdtt4Nd1ioTIEBgMYE4jBqHU53op6jY1KJi2HYH+Z1+ElgsFvg2AQIdEjj/QPl6Y/hL/Jua+G9Y7kH+2Me/Vr6hQ13YqhIgQGB2gaMb+BRP3RBEXetfMtnkoii/7MZCs8cD3yBAoCMCvX52e5IWL0l0m5zoLPuk9httO3kwu60j3dlqEiBAYDqB+L1/K80OJwVP70us7WgD2dUYRni6XuFTBAgQaLFAnCDVS/P72xHcJWnbcbo2sJ0WD8Z9LFrcta0aAQIEJgvEyX6u758uYUisbXTKLkUfmNxD/IUAAQItFPhomr3ZkL5tTGrWabpirRovIH/yI4P8LS3s4laJAAECNwocjedfPDddoJRQOLW8DQyyK3H1y409xTsECBBokUBcChWjpElqLU9qLtuc6bLN4WiXbibUokhnVQgQuE5g60J2U5IWf5L8JX9t4MY2MLwEdpDffF2n8R8CBAhsusB2v3iva/xvDPqrSoTnHyrKTzxy9C9er2o5zHfUPrsadxR0D4FNj3aWnwCBVwQioEn+o4G+2dcfe6gov/Dd/fLCj/fLx/7roPzPZw/L3714WL7wcllm+2V5eFje8Ij34m/xmfhsfCe+G9OIacU0JevlGBwVAbu3vtKBvCBAgMAmCmz3d29N0mxP8mgueURy/tIPj5L9U88dlgdjEvwNGX/GN6JAePaFw/JHvzkov/r4fnnHI82tj7YSdxPM9hwJ2MSIZ5kJEBgKJIP8PbE3I6DXnyzj8P3Xf3ZQXv5DMwn/rPogioyY9yP/ejD8KcE2rn8bX/s54L3CCQECBDZKoDfIb3bYv96ksL1ztKf/H88clvsHZ6Xo5f09ioFfXzkcHhmIZVQM1GcQfShOnt2ozm9hCRDorkBvZ/ddcba/ZFBPIoiT9GJP+8WXl5fU551TLOM3//3AOQM1XgYZRUCys/vu7kYUa06AwEYInOvvvW14TXONAbCre5Tx234k05eyedPx6r73clEOTyJ0rkA9ReDROAH779iIIGAhCRDonsDR8L4G+Vm0YIkjJ/H7fpyVv+mPKARiXRwNqqEQGGRXzu/svql7kcUaEyCw1gJxUxNj+y8e5D//nf3h2fabnvhPLv+VFw7LL35v3/kBCx4Ziz7mBkJrHQotHIFuCQxv6TvIH1t0z7fL34+z+n/8fw7GXqN/Mplu6v/jUsIf/+bAJYQLFgG9tPi+Wwl3K8ZaWwJrK9BL8/u7nLwXXfcYaOePf9nUtD77csdgQ44GLHa0KBkUX1nbgGDBCBDohkBvkN+5aALs8vfj7P4mBu6ZPS0v9xuxznGCY5e3/eLrnn+qG1HGWhIgsHYCvX52+1aaHS4eyBbbG9rE+cfZ8b+60sCQfcvN4wvPLYYcdqXAfO1/2Pf62e1rFxgsEAEC7RaI+5cb6Ge+wP3JrxfD8fYXzp4tmcDv/3xY/t0357PcxOKvzmUe9sEdlwe2O9paOwJrJDA8439QPFVnIOvKtD7zraJTv/dPW6PEeQFh05V2UO965pc//rXyDWsUIiwKAQJtFIgz/pNBfrHeANaNwB8n+8V18R7jBWLAo7gMUtuavT8k6d6j0TfbGHOsEwECayJwrl98WoCePUBHYmvDwD7jU3d974aRImD29nXUJ50UuCZh0mIQaJ9A3J40SbMDBcBsAToOba96ON846/75l8oybhccJ9498fRBeem/j/7F63gv/hafWfVVCXGU5K5vz2asTQ5vIXyw3S/cPbB9odcaEVidQBxaPNf/yxuN8T97UooT/lZxjX/MMwYWuvDj/WEynX4o3uxqfDYScHw3ioNVLH+cExB2EvtsBtFHDRe8ulhpzgRaJ2Ckv9mCcJW04vK23724vEv94mz67/zioPz7f55veavlHvcc04xpxxGCZT1i+GCXCM6+LeN8gNYFIStEgMBqBJJ+dn5cUvDe6cH5P55pPvnH8LoxnzjBcFnbI+YVPxnEvJt+xHyWtV6tms8g660mWpgrAQKtEdge7L8zSbOsVcFx8bHYz0xKMcpdk49IvnF4fpWXzsXPBD/7v80XAnE3Qe3v9GLzpM+wzxofoDVx2IoQWLrA+y+Wr3GHv9kCbwTiOIt9v8H8/+wLy93jP5lcTv4/1veZPzZ3OCBOSnRlwOztMPpu9OGlBw4zJEBg8wWSNL/3ZLD3/9MDcfxm3dRJc3GJ3ENPLO9Q/yzbOk4cjD31pgqfMHU+wOltb9z2Sgb5PZsfiawBAQJLFdi6kN3kkr/ZA+6PftPMrn+c4PcPj+6t/aHw+FmgqRMf47LFcUnOe5PbafTh6MtLDR5mRoDA5grEvcYd+p8cVCclnDhM3cSJcfFb//mHZl+eScvZ9PuxrHFuQN2PsPVTwOztIEnzJ/0UsLnx2JITWKpA0i/uajpJtG36cQi8id/Bf/Dk5u71fvsX9R8NifMfph/TYPZk2bZ2+cr6DPI7lxpEzIwAgc0TOLrLX7b3SuBYwhnzbZhX/P5d5yP2dttw9nusQ91HRdb1PIh1bsdxVcC5/t7bNi8iWWICBJYiMBzwJ82eWOdAto7L9rGHitpv8hOXEa7jus6zTHUXRzGs8ib9JDKPWRPfSdLdn7hh0FJCqZkQ2DyB3iDrNRF42j7Niz+vd+//sf9qT/Kvtn2sU52PNhVIldEynrfS4tzmRSZLTIBAowIx1n+SFn9aRhBq0zxiT7TOG/3ECX9t8hldlzpPDHzxZUcBRm2nfR33Cvj418o3NBpMTJwAgc0S6KX5fdMGEZ87PrmszsPbcalf/JzQVt8oluq8RNC5APO1FWMDbFZstrQEGhXo7ey/wzX/swfTOBs97lpXxyMG0NmE6/wXLU5inIAY0KiORwwO5IqA2dttkmZ7cbJvo0HFxAkQ2AyBXlp8f9HA3sXvf+mHNWWysh1n/E/bBuq8T0Jsg2nn63PHxYI7Bm5GbLaUBBoV2O7v3iowHgfGWSzquttf165tj732WOc6HnFewSzbzGeP23r0/UaDi4kTILC+AsMR/wbFU4LicVCc1iJ+q69j3Pu4Rv7oVr7Z1Wnn3YbPxTrXMT5AbIM2nzfR5LZOBsVTLgtc3/hsyQg0KhCXBDUZYNo87TgBrY5HHEVos9Pkdcuu1nUEZfBTPwNMdj69uN26kH+g0SBj4gQIrJ/A8Fa//eyZeQNH17/31HOLH8KOKXThxL9JbSXWvY6jAL++0tUi6vTkPsl99P2knz0TRwLXL0JZIgIEGhMw6M/8wTMuZ6vj8P9/Pitx/erK4oVUbAsjA87fng0O1FiYNWEC6ycQe/+9QXZldE/A6+kD6D/+oJ7D/1/8Xhy67tZv/yfbWb2W02/Dk8vR6f8PsivuFrh+cdoSEWhEYGuQ39HpgLfgDY7qGNY2xg+wDY4Sdh1jKbRx+ORlto+kn51vJNiYKAEC6yPwwYfL18VwoMsMLm2bVx23/ZWwjvfW45bHiz4u/8HPKYv0syQtnvvwTvna9YlUloQAgdoFotJfJFB0/bvxW/PB4j9blzEiXtctq/WPkwEXfcR5AEYFXLBNDbJe7QHHBAkQWA+BuOY3zvqtAq/n2QNmHckqbh7E/nr7Om6opKi63nT2Nrb7tHEB1iNWWwoCtQtsD/L3zR4UFg0q7fr+A5cWPwGwu9f+T24LdYwJ8OVLxgNYtH8nD2a31R54TJAAgdULbKX5vy0aILr+/W//YvHfq93F7sZCoI6BlWLbdL19Lrr+Sbr7k9VHKktAgECtAr1BfvOiwcH3i7KOe9p//jv2VE+2pRgaeNHHE08rAE66zvX/QX5zrcHHxAgQWK1A3P1rrmCw4CVzbZvnolcAxPmDxq6/8QjAHY8U5aLnVroS4EbXefpfMsgvrjZamTsBArUJbD1cvDVJs4N5goHvXB9Uf//nxdLUi67/n3iYftETAWPbaK/Xt9d5PCJWfGSQv6W2AGRCBAisTmArzT43TyDwnRuDaSTwRR5xBIHrja5hsujRFYMrjXedp70lg+Kzq4tY5kyAQC0CcVmPYX/rC4zZgj9Vu3HN5G2x6A2WXi5cXjlPsh/3nRgYyCWBtYRgEyGwOoG4rGdcB/fe5ER0ms2id687ugSw2+P/T/KNmyMt8ogBmiZN2/uzt/ft/u6tq4tc5kyAwMICvUH+mOA3e/AbZxajAC76cKb65G0RNos+3BVwsu+4Nn3ae3Hi8MIByAQIEFiNwEfT7M1O/qsvIMaZ6os+fvwbl6pNSjphs+gjttGk6Xt/NpuIHRFDVhO9zJUAgYUEkn5xl6A3W9A7zUsBUJ/lOGcFQLO+48zPeu9cv/j0QkHIlwkQWI1AL919+qwO7u/TB10FwPRW87QrBUCzvvNsk16aX15N9DJXAgTmFti6kN00X4dfxyC0HsukAGh2OygAmvWdOx7s7L5r7kDkiwQILF8gGeT3zN3hjf439ndkBUCzCUoB0KzvvPEgxhFZfgQzRwIE5hZw29/6g6kCoH7T0aSkAGjWd9R6ltcRS+YORL5IgMByBRz+byaQKgCaca2SkQKgWd/KeZ7nZGf33cuNYuZGgMBcAkma3ztPJ/ed0wOwAuB0n0XbjwKgWd9Ftk/8pDhXMPIlAgSWJxDDdyZp9ttFOrvvjg/ECoDxLnW1FwVAs76LbCc/AywvhpsTgbkFeju771qko/vu5CCsAJhsU0e7UQA067vwNtrZf8fcgckXCRBoXqA3yO9cuKO7CmB4FcBnvlWUD1zaL7/9i4PyB08elHUMVRu3rI3p+HejwaK3Wo5RBMM1tlVss9h2f//Pa55UN6qv5Z9qPoKZAwECcwsk6e5PFADzB/1//MH+MIksetvfRYe09f36BGJbRmEQ23Z7Z/620e1+FTewyi7NHZh8kQCBZgXOP1C+PkmzvW4HqtkDfNxA5qEn9svnX6ov6ZjSegrENo5trRCYvZ9EbIkY02wUM3UCBOYS6PWz2yX/2QLbl34o8a9nqm52qaIQiG2vv8zWX+L24nMFJ18iQKBZgWRQfEVAmy6gxV5/HSedNZumTL1JgcOyHLYBtxCers8cxZb8/majmKkTIDCXQG+QXVEAnB3MPvn1onz2hQj/HgTKYVuINqHvnG3gcsC5QrMvEWhW4COD/C0C2NkBLM4K/+NfpD0C1wu88HLpioEpr0iIWNNsNDN1AgRmEti6kH9AAXB6ARB7eU70uz7x+d+xQBSGjgSc3ocixmwP8vfNFJx8mACBZgV6aX6/AmBy8Iqzvp/5o8P+x+nOq3EC0UZcITC5Hx3FmPy+ZqOZqRMgMJNAkuZPKgAmB64YHMaDwDQC0Vb0pUl9KbuapHu/nCk4+TABAs0JXLv+/0DQGh+0Pv+d/fLQzv80uc9nynLYVr7wXZcIToonSZodGA+guXhuygRmEtjuF7dM6qzed+hfVp9dIH4K0HfGF9ThEjFnpiDlwwQINCOQDIrPClbjg1UM9uJBYB6BL19yFGBSXEn6xV3NRDNTJUBgJoEk3Xt0Ukft+vtPPefY/zzJz3fKMtpO1/vPpPWPmDNTkPJhAgSaEUjS7LeTOmqX349r/v32L5XPKxClY9wRsst9aNK6GxComVhuqgRmEoiTcXpp3KlLoDppELeE9SCwiEC0oZPtyv+LcivNDp0IOFOo9mEC9Qskg/w9AtL44sfh/0VSn++GwOU/+BlgYnwZ5DfXH9FMkQCBqQV6g6w3sYN2+KhADOay7wCALL6gQLZfGhhoQhzZSotzUwcqHyRAoH4BIwCO3/uP3/89CNQhcNe3x7cxhbcRAeuP6KZIYAaBXpo9IRDdGKBd/ldH6jONEIi2pI/d2MeSdPcnM4QqHyVAoG6BrbR4XnC6MTj9049c/y991yMw+KkCYFyMSdLiubrjmekRmEng0V8cfLer/77184Pvj+uY3ivKCNoeBOoQeOgJBcD4mJJdjRjU1fgb6z1TsvLh+gXiMp2u/hOYbtzzrwJV2HgQqENAP5vcz77+s+7G38g79Wc0U5xJ4Du/OCi7+C8a31cft2dSJfyTzwqAOlKfaYSAAmByARAxqIvxN9ZZATBTqm7mw13a+68aXfV8379EAWAQoJPJP/6vAJC86xJQAEwuACIGdTkGN5PVTHVqga5Un9HJqsRfPX/xe44AjEv+CoC6Up/phIACYFIBkF2NGNTlGDx1ovLBZgTaXn1WyX7c89H1yY4AjCsCHAGQvOsSUABMKgCK8h8e3Wv9EYBxsbfaIWsmq5nq1AJtrz6rhjbuOQa7GZf8vOcngLqSn+k4AjA5nmRXIwZVsamtsbhav3HPUycqH2xGIDZKW/+dVnnGOn/ikSgAHAEYF6AcAZC66xJwBGDyjsYnv1688tNkG+PwWTG4maxmqlMLRKPrYuUZ6/yxhyZ3zHFJsUvvKQDqSn+mowCYFGeyqxGDRpNk22JxlV8mPU+dqHywGYGq8Y1Wnxd/flA+9l8HZRufqw4W63u09+8IwLjCRgEgcdcloACYVADE+9nVKgZXz22Mu1U+qdaxem4mq5nq1AKjlVm1kdr8XDW8b/67+5SPS/zVewqAutKf6SgATi8AIuFHXIp/bU7+kVeq9azyztSJygebEagS4lmNb7Rhjr6uioXR90Zfr8vfR5cj1vUoKNn7rxL+yWcFgMRdl4AC4PQCIHzOisOjMXX09WhcG/d63Hur+P7ocsS6VuvbTFYz1akFqo0xrlFUG61Nz9X6ukHJaUHJVQB1JT/TcRXAyeL6+v9nVyMWxR5xm+LspHxSxV9HAKZO0c1+sNoQsWEmbbS2vR/rHHe7cwXA5CLAEQCpuy4BRwAm97MoBi78+Hg0wLYWASdzSMTg+NdsdjP1MwWqiuzkBmrT/0fXpSp4HrhkFMDr90SuD1IKgLrSn+koAK7vW9f3u+xq7IxUO2CjsaqtxUCV/GOdz0xQPtCsQJUQqwbY1kY3ul6xzkcFgHMArg9Gx4FKASBx1yWgADjuV+P6W8SiakdsNE61uRio1rfZ7GbqZwrEhoiEOKnhjWuEo++Nvq6mMfre6OtV/L2aZ/Vcre+XHQE4dRREBUBd6c90FACnFQDZ1bghUMSls2JlFcNGPzf6el3+Xi3HpOcq+UfeOTNB+UCzAtURgHge15gmbcRNfj/W1Z0ATwtKTgKUtusTUACc3teqAmBSEbApsXY0f4y+Hrf8Vd5pNruZ+pkC1R7xuI101kbcxL9XDe9LP3QOwLjDkdV7jgDUlwC7PiUFwGkFwNERgIhLXYvBsc5nJigfaFagSojxfFpCP+1vm9Zwo+g5uhVwnAPgPIAq6Y8+KwC6nrbrW38FwGkFQFH+4w+OxwFoU5yt8sK4dap+Bmg2u5n6mQJdOwJQNbzodJL/5MCkAKgvAXZ9SgqASf3saAckdkYiLo1LlFUSXZfnOpaxisGOAJyZnpv/wKQjALNs6NHPjr6uGu3oe6Ovl/X3aj7VczTA6gjA9s6kztnt9xUAx2n74LAsf33lcDh65F3fLsq//UpR/q8vZeVf33P073/emw3fi3u7h1t8Nr7jcSSgADgtlmRXqyMAk4qA0Zg5+rqKZ6Pvjb6u6+/VdCY9j5vnpM9W71dFQPMZzhxOFYgNEUVAtWHa/lw1vKNzABz+Hz3sP/paAVCWz75wODxZNJL9//jCbP/iO3FyV0yj6w8FwOkFQHUS4DyJtOl43cQyVTHYEYBTU/Ny/jjpCMCkhtVEg5g0r0Xfn7Sssc6uAjgtKHX7KoDfvXhYfuZbxcxJf1KREEcGYppdfSgATu9rsTNSxeFJMWuT3p9mWasiYDlZzlwmCnTtCEDV0VwFcHpQ6uIRgDhsH+Oy3/rF2fb2JyX+0fdjmmHaxZ8GFACn9bXTxwFYdCeoqe9Pk+QnzbtK/hGLJyYmf1iOQJUQ43ncRh333qQNuynvRwM8GgjITwCjh/1HX3etAHjh5bK845Hmfj6XAAAap0lEQVT69vpHk//o6088UpQxry49FACnFQDFMBZVSbGN8XbcOlXru5wsZy4TBWJDRPKvK3mPbuzR19X0R98bfV3X36vpTHquGp57AZwelLpUAPz+z4fDk/hGE3WTr//my1mnfhJQAJzW17Kr1VDA4+LhyTg2+pnR19XnRt8bfT3t36vPzfo8bl6TplHFYEcAJqbl5f3hrCMAJzfiLBv65Heb/v+4ZRv3XjRA9wI4LSh15xyASP6RkJtM+OOmHfN8/qVuHAdQAJze16qbAUVcGhevmo6b1fRH5z36uvp7nc9V3llepjOnsQLR6Oo8AlBnI2miEVbV51cfNxLg6CH/k6+7cATgpaxc6p7/yUIgLid8uWh/EaAAOK0AyK5GLJqU/JuIgfPG6FmW5bTPVsk/nscmJW8uT2B0Y5y20U42mlk+e/K7q/5/dLY42ctAQJMDU9sLgDgnv84z/U8m92n///f/XJRtvz5AATC5n0XhHbGo2jHZ5Lg6S1yv8s7yMp05jRWYpuG1qVFW6ysonR6U2l4A/ODJg6Uf9p9UFMSytPmhr53W17Kr4RNxaRPj7DzLXCV/RwDGpuTlvlltjHkb4DQNYPQzo6+rinH0vdHX0/69+ty0z9W6OgIwOTC1uQCIQ//zDO4zKYEv+n4sS5t/ClAATO5ncQQgYl61YzIu/p0V10a/M/q6+t7oe6Ovq783/TxuntX6LjfbmdsNAtWGGLeR5m0YdU5r2mUYnefo65Pfr9Y3nk/+7u3/x4GqzQXAhR/vr83ef1U8xGHgtj4UAMf96voYc3QvgGon7LS4dTKOzfLZk989+f9lT6uKwY4A3JCOl/9G1fhio9TZEE42slX9f9w6xbrGen/soeiYxgK4PigdBau2FgDZflnG2P1V4l2X51imWLY2PhQAkwqAYhiDqoS4LjF4NGaOvq4zhld5Z/kZzxyvE6gaX1MbusnpzjPtan3j+ZNfn9wxxyXFLr3X1gJgnX77P1l8tPVcAAXApDiTXY0YVCXDcfFs9L3R13Um40WmO893q/WN5+uSkf8sX6DaGJOqz9ENPPp6XRrgvMsR6/t334yO6QjAuMKmrQVABNyTiXdd/h/tsY0PBcCkAqAo4yqQ0Z2SdY6xdS5btc7Lz3jmeJ1AtSHm2bij3xl9PSkpj35m9PXJz4/+bfT1yc/N+/9qneMmLeOSn/faORDQ/kHZyDj/dRUQcb+AWMa2PRQAkwqA7GrcXrraCasj1o1OY/T1WbFyls+eNa2z/l7FX0cArkvFq/lP1fhio9TZCGaZ1iyfPatxTfv3WN8vfs9YAJOKnTYeAfjPZw/Xdu+/KiJ+daV9owIoACYVAMUwBlUJse4YfDIWjsbZ0dcnPzfv/8dNc9x7Mf0q76wm65nrKwJV45u0odb5/XHLNu69kw26Wmd3BJwcmNpYAMR2rxLtuj5HW23bQwEwqZ8tdifAaWLdydhX1/8XmXeV/B0BeCUNr+5FtTGarj7ranizTmdSQ431PhoO2DkA444CtLEAiPs/rGvir5YrlrFtDwXApAKgKOOS1GqHZFKsWub7y5pXlXdWl/nMeSiwTo1v1uQ+7+erxicwTQ5MbSwAvvDd9S8A4meptj30s0n97GgUwIhHZ8WyZSXmcfMZ994iy1vF33iWhlcs8O3//f/+ePLft35+9N66P1fLXS3npP9X7598ju+5CmB8cGpjARAnfVZ72uv6HMvYtocCYHwfiyNvJ2NXFaPGvV+9Vz3HZ6vXJ5+n/dvo52ad9+h3q/lX0xh9Pu1vK05/Zt91ga20eH7cIfCuv9fGAuDz31n/IwBxlKJtDwXAuAIgu5qkxXNdj7/Wn8BKBZJ09yddT/bj1r+NBUCc9Lmue/7Vct33LwqAce2xje8laf74SoOfmRPoukAvze9vY3BZdJ3aWADEOlWJdl2fv/4zVwEs2nY35/v5fV2Pv9afwEoFeoOstzkBY9yhxGbea2MB8MTT638ZYCxj2x7RlvSxG/vpVlqcW2nwM3MCXRdIBvl7BKcbg1MbC4AXXi7X/ghALGPbHgqAG/tXxJytC9lNXY+/1p/ASgU++HD5uq00O1QEXB+k2lgARGL926+s770AYtna+FAAXN+3hsk/zQ4j9qw0+Jk5AQKvelXSz55RAFwfpNpaAMTAK+v6+//gp+07ATAKGgXA9X3rKNbsPi32EiCwBgJJuveoAuD6INXWAuDKC+t7P4Dfvdi++wAoAK7vV1WcSQb5xTUIfRaBAIFkUHy26piejwJWWwuASEhxC9Z1OwrwmW+18/C/AmBCAdAv7hJ5CRBYA4HtfnGLxH99oGpzAXD5D+t3FCCWqa0PPwFc37ci1mz3i/euQeizCAQInH+gfH2SZgeKgONA1eYCIBJtjLm/DkcB/vqebLgsbU3+sV4KgON+FTEmYk3EHJGXAIE1EUjSvV8qAI4DVdsLgJeysvybL2crLwJiGV5u79H/YV2jADjuV0cFwN4v1yTsWQwCBELAiIDXB6m2FwCRmX515bCMPfBVHQmIef/6SnsP/VdHNRQA1/etJM3vFXUJEFgjga0L+QccATgOVF0oACJBXfrv1Y0O+IMn2zfqX5X0R58VAMf9KmLM9iB/3xqFPotCgMBH0+zNCoDjQNWVAiASVdzvfNlHAeJe6F15KACO+1XEmPM7u28ScQkQWDOBJM1+qwg4ClZdKgAiEceRgFu/2PzPATGPmFeXHgqA4wIgBh1bs7BncQgQCIFkUHxFAdDNAiAS8jN/PGx0qOAY6vfZF9r/m//J4kYBcFwA9FJ3AJRtCKylQK+f3a4A6G4BEIlr/+DosrU6jwbEtCIJHnQv9w9rAQXAcQGw3d+9dS2Dn4Ui0HWBuDlHkmZ7ioBimLBO7sl16f8vvlyW//Sj/fJ/3jv/zwLx3a8+vl/GJYddfigAjgqAiC1uANT1LGP911ogSfPHFQAKgCphx177E08fDAfrmWbcgPhMDDIU3+nqHn9lVz0rAKojANmltQ5+Fo5A1wV6g/xOBYACoEpeJ59j0J4YtjcSfJzMF//idbzX9gF9TlpM+38FQBQA2dVemn+q6/HV+hNYa4Hezu67FAAKgGmTm8+dLaAAuHYEYGf/HWsd/CwcAQKvepXLARUAZ6c1n5hWQAFQlC7/k1kIbIhAMsjv6fpRgAjaHgTqEFAAFOVWmn3u7rvLv9qQEGgxCXRXYOtCdpMCQAFQR/IzDXcDHMaSnd13dTeiWnMCGybQS3ef7nIR4AiA1F2XgCMA+eUNC38Wl0B3BeJQXRyyUwDUlQJMp8sCXS8AIpZ0N5pacwIbKJDs7L5bAdDltGXd6xLoegGwPdh/5waGQItMoNsCyaB4qqtFgJ8A6kp/ptPlAiBiSLejqLUnsKECSb+4SwEggRFYTKDLBUAMLLah4c9iE+i2QNy3O0mzgy4WAY4ALJb0fPtYoKsFQMSOiCHdjqLWnsAGC/QG+WMKgONg7hWBWQW6WwDsPbrBoc+iEyCQPJjdpgCYNeT7PIFjga4WAG79K38Q2HCBuCSwN8iudK0I8BPAcQLzajGBLhYASVo8Z+S/DQ/+Fp9ACHRxTAAFwGJJz7ePBTpZAAyKz4qeBAi0QOAjg/wtXTsZUAFwnMC8WkygawVAxIqIGS0IfVaBAIE4lJcM8otd+hlAAbBY0vPtY4HuFQC73xA1CRBokUDXbhCkADhOYF4tJtC1AqA3yG9uUeizKgQIhEAvzZ7oylEABcBiSc+3jwW6VAAk6e5PREsCBFoo0OtntysAjgO7VwSmEehUAfBgdlsLQ59VIkBgeElgml/uQhHgCMA0qc1nphHoTgGQX3bpnzxBoMUCST87rwCYJuz7DIEjga4UAFtpca7Foc+qESDw4Z3ytTHIR9uLgAs/3pe/CNQiEG2p7f0lBgt7/8XyNSIkAQItF+gN8jvaHtC+fEkBUEv2M5Ey2lLb+0tvkPVaHvasHgECIRCVfpJmv21zUPv8dxQAcnc9Av/w6F67CwB7/xIDgW4JRMXf5gLgYw8V5WE98d9UOixweFiW5x8q2l0A9IsPdSv6WVsCHRcYHgXoZ8+0uQj4/Z+VAB3O3bWs+u9ePGx38k93n7777vLVHQ+HVp9A9wR6/eJDbS4AfvSbg1qSgIl0V+DSfx+0ugDYupB/oHuRzxoTIPCqo3sEFE+1tQj40g+dB9Dd1F3Pmkcbamv/SNL8Sdf9SwQEOiyw3S9uaWuA294pyhdfricRmEr3BF7KyjLaUGv7R7+4pcOhz6oTIBACvUH+WFuD3GP/5WeA7qXuetb4O79o7+H/JN17VPQjQIDAq871996WpNleG4uATzxSlJlfAurJiB2aSrSZOx5p595/9PXo80IfAQIEhgJJmt/bxgIg1unizx0F6FDurmVVv/nvLd77H+T3CHsECBB4ReD8A+Xrt9Li+TYWAfE7blzO5UFgGoFnXzhs7W//0cc//rXyDa90fC8IECAQAnEzkDYWALFOn/mWnwKmSX5d/8z+QVne9e12Hvof9m2D/gj2BAiMEzi6XXB2qa1FwD/9aL+Mkd08CIwTiLbxQIvH/U/S/HGX/Y2LfN4jQGAocO2EwKytRcDXf3ZgiOBx2a/j70VdGG2jre0+SbPMiX+CPAECZwqc6xefbmsgjPUa/HS/PHAkoOMp/3j1Y8//kX9tb/I/6sv5p87s+D5AgACBGBs8Sfd+2eYiIEZ4e7k4TgJedVMgBvtp82h/0YdjxL+494fIRoAAgakEkp3ddydpdtDmIuDvvlmUv77iUEA3U39Z/urKYRltoM1tPPrw1oXspqk6vQ8RIECgEkgG+T1tDo7Vun350r7LBDtUBcQlobHNq+3f5uetNPtc1Z89EyBAYGqB4S2Dhz8FZFfbHCSrdYukEHuFzg9oXzUQ2zS2bVcSf7Tp+BnPof+pw50PEiBwUmDr4eKtcQZxlSS78BzDB8clg3E74ct/OCzjd2KXD25OURDbKrZZbLvYhrEtY5t2oe1W6xh9Nnlw7+0n+7P/EyBAYCaBpJ+drwJLl5/PP1QME0kkE//W0yC2UZfbaLXuMajXTJ3chwkQIDBJoM13DKyCpmfJsw1twJ3+JkUx7xMgMJfAuf5f3pikxXNtCJDWQaJvaxuIPhp9da5O7ksECBCYJLDdL25p+6WBbU0M1qv9RU/0ze1+8d5J/df7BAgQWEigl+afkkzan0xs4w3cxoP8joU6ty8TIEDgNIG4mUgyyC9KEBuYIFLL3NZ2m6S73zit3/obAQIEahE4/0D5+mRQPNXWYGq9FAqb1AZiqN8PPly+rpbObSIECBA4S+DoroHFS5sUKC2rxN6uNpBdTdLiJXf5Oyta+TsBArUL9PrZ7VtpdtiuoCpJ2p6b0QbipL/kwey22ju2CRIgQGAaAScFbkaykNRbuJ2c9DdNiPIZAgSaFOil+X0STAsTjJMG13ZUwSTN722yT5s2AQIEphIYXhmQ7j2qCFAEaANLaQPfjz43Vef0IQIECDQtEGchb6X5v0kAS0kAa7tnavs3u/3jDn/O+G86mpk+AQIzC5zf2X1Tb5BdkQSaTQJ8u+mbpNlvo4/N3DF9gQABAssQuHZ5oHsG+P3cUYoa28BWWjzv9r7LiGDmQYDAQgK9nd13JWnxJ3uq3dxTtd3r3e7Rl7YH++9cqFP6MgECBJYlkOzsvjsGKeml2VUJod6EwLM7ntGHti5kNy2r35oPAQIEahHoDfKbkzTLJKzuJCzbur5tHX3H3f1qCUUmQoDAKgSu3UJ4T2KoLzGwbL9lkmZ70XdW0WfNkwABArUIxPXKsRdz9HNA+wO35GwbL9oGru35S/61RCATIUBg5QLJIH+PIkByXDQ5tv370Ueir6y8w1oAAgQI1CkQJzO5OkAR0PYkPu/6DfvGIL+5zj5nWgQIEFgbgd7O/juStDBOQI3XiM+bcHxvfYqxuM4/Lp9dm45qQQgQINCEQAxoYsTA9Uk+CoHVbosY4S8G0Gqir5kmAQIE1k4ghjSNcc2NE7Da5CP5r9Y/7p9heN+1C08WiACBpgXipia9Qf6YJLTaJMR/Nf5JuveoG/s0HWVMnwCBtRWIywR7aX6fJLSaJMR9Ve75fW7pu7ZhyYIRILBMga1BfsdWmh1KSKtKSOa7jLaXpNlBb5Dfscy+ZV4ECBBYe4Hkwew2YwVIxMtIxKuYx/Aa/wez29a+I1pAAgQIrEIgrhBI0vzJVQRo81R8NNcG8stxCewq+pR5EiBAYGMEzj9Qvj5Jd7/RXDCW6Ngurw1EW3ay38aEHwtKgMA6CPQGWW/4m6lBc0oJe3kJuy7ra7/337kOfckyECBAYOMErt1IyMiBiqCNKoJitEu38t24cGOBCRBYN4Fz/b+80U8Cm7cHXNee9KZNJ67vjza7bv3I8hAgQGBjBXr94kNxq1SjByoG1rEoiLYZl7NubAez4AQIEFhnga2Hi7fG8KnrmAAsU1cLk+xqDGsdV7Csc9+xbAQIENh4gfdfLF+TDPJ7nCDY1YS7PusdbXArzT4XbXLjO5YVIECAwKYIxO1Tj24otD4JwVGA7myLGK9i60J206b0F8tJgACBVgncfXf56vjd9ejcgO4kH4XG6rZ1tLVkUHzWXn+rQomVIUBgUwXi3IBeml2SGFeXGLtgn6S7P/Fb/6ZGCctNgEBrBeLualtpcW4rLZ7vQjKyjssrdoZtql98yB38Whs+rBgBAm0QiGFX4xBtkmZ7kuTykmQbrY9ONM3v+/jXyje0oW9YBwIECHRC4Fx/723JIL/YxsRknZZQ2Azyx6INdaKzWEkCBAi0UWC7X9ySDIqnJM0lJM0WDFkcZ/dHm2ljX7BOBAgQ6JxA/Ha7Pcjf10t3n1YIKATGtYEkzX4bN6DyO3/nwoMVJkCgCwJVIZD0s2fGJQHvdbA4GGRXriX+V3ehD1hHAgQIdFogruE+ut1w8Zx7C3Qw6adFGXfsizEkXM/f6VBg5QkQ6KrAh3fK10Yh0Evzy/b+u1II5Jdjm0v8Xe311psAAQIjAsOfBvrFLb1B/phCoK2FQPZEnAfiN/6Rhu8lAQIECBwLJDu7707S3W+42dDmFwJbaXYYRV0yyN9zvIW9IkCAAAECpwh8ZJC/JQYU6sVJYi24vK1T6zDIrsS2i214yib2JwIECBAgMFmg+nkgBhVyVGB9jwocbZvs0rXD/M7on9yk/YUAAQIEZhU4v7P7pnP94tMGFlqfQmC4LQb5nbFtZt2ePk+AAAECBGYW2B7sv3P4E4ErCMpl/7wwHLQnze/z2/7MzdYXCBAgQKBOgeGJg4P8HgMMNXdkIGyTQX5Pb2f3XXVuO9MiQIAAAQK1CGw9XLx1OLZAnH3ujoRzHx249pv+E71BfufWhewml+/V0jxNhAABAgSWITC8NfGD2W29NL/f0YGzjw4cGeX3Jw9mt4XdMraReRAgQIAAgcYF4kS1SG7DQ9lp9kSXjxDEHn6cwJcMiq/0+sWHXLLXePMzAwIECBBYF4HYyx3errhf3JWke4/GHvBw8JqWjTsQ63TtN/yLSb+4K9bZHv66tELLQYAAAQJrIRCJsTfIb752j4L7kjR/PG5cswk3LRom+rR4Lpa5l+b3baXFufj9XrJfi6ZlIQgQIEBgEwXi5jXJg3tv3+7v3hrFQfyMEEMW9+KnhEHx1FZaPN/kQEUx7eE8BsVTw3nGcMlxVv4g68Uynevvvc0NdjaxZVlmAgQIEGiFwLn+X94YyTiukY/EHCPjxb/YGx8WDv3sfJxZP/ovGb6X9eIz1eePCo385phWTLMVOFaCAAECBAgQIECAAAECBAgQIECAAAECBAgQIECAAAECBAgQIECAAAECBAgQIECAAAECBAgQIECAAAECBAgQIECAAAECBAgQIECAAAECBAgQIECAAAECBAgQIECAAAECBAgQIECAAAECBAgQIECAAAECBAgQIECAAAECBAgQIECAAAECBAgQIECAAAECBAgQIECAAAECBAgQIECAAAECBAgQIECAAAECBAgQIECAAAECBAgQIECAAAECBAgQIECAAAECBAgQIECAAAECBAgQIECAAAECBAgQIECAAAECBAgQIECAAAECBAgQIECAAAECBAgQIECAAAECBAgQIECAAAECBAgQIECAAAECBAgQIECAAAECBAgQIECAAAECBAgQIECAAAECBAgQIECAAAECBAgQIECAAAECBAgQIECAAAECBAgQIECAAAECBAgQIECAAAECBAgQIECAAAECBAgQIECAAAECBAgQIECAAAECBAgQIECAAAECBAgQIECAAAECBAgQIECAAAECBAgQIECAAAECBAgQIECAAAECBAgQIECAAAECBAgQIECAAAECBAgQIECAAAECBAgQIECAAAECBAgQIECAAAECBAgQIECAAAECBAgQIECAAAECBAgQIECAAAECBAgQIECAAAECBAgQIECAAAECBAgQIECAAAECBAgQIECAAAECBAgQIECAAAECBAgQIECAAAECBAgQIECAAAECBAgQIECAAAECBAgQIECAAAECBAgQIECAAAECBAgQIECAAAECBAgQIECAAAECBAgQIECAAAECBAgQIECAAAECBAgQIECAAAECBAgQIECAAAECBAgQIECAAAECBAgQIECAAAECBAgQIECAAAECBAgQIECAAAECBAgQIECAAAECBAgQIECAAAECBAgQIECAAAECBAgQIECAAAECBAgQIECAAAECBAgQIECAAAECBAgQIECAAAECBAgQIECAAAECBAgQIECAAAECBAgQIECAAAECBAgQIECAAAECBAgQIECAAAECBAgQIECAAAECBAgQIECAAAECBAgQIECAAAECBAgQIECAAAECBAgQIECAAAECBAgQIECAAAECBAgQIECAAAECBAgQIECAAAECBAgQIECAAAECBAgQIECAAAECBAgQIECAAAECBAgQIECAAAECBAgQIECAAAECBAgQIECAAAECBAgQIECAAAECBAgQIECAAAECBAgQIECAAAECBAgQIECAAAECBAgQIECAAAECBAgQIECAAAECBAgQIECAAAECBAgQIECAAAECBAgQIECAAAECBAgQIECAAAECGyHw/wFFUZKtzQ4JrgAAAABJRU5ErkJggg==;" parent="1" vertex="1">
          <mxGeometry x="1953" y="-252" width="38" height="38" as="geometry" />
        </mxCell>
        <mxCell id="bZfns3RA5erKDMG97pNH-37" value="" style="sketch=0;html=1;verticalAlign=top;labelPosition=center;verticalLabelPosition=bottom;align=center;spacingTop=-6;fontSize=11;fontStyle=1;fontColor=#999999;shape=image;aspect=fixed;imageAspect=0;image=data:image/svg+xml,PHN2ZyB4bWxucz0iaHR0cDovL3d3dy53My5vcmcvMjAwMC9zdmciIGhlaWdodD0iMTkuOTg2IiB3aWR0aD0iMTUuNzIzIiB2aWV3Qm94PSIwIDAgMTUuNzIzIDE5Ljk4NiI+JiN4YTsJPHBhdGggZmlsbD0iIzQyODVmNCIgZD0iTTMuNjM0IDE0LjU4NnYtMy43NWMwLS4xNS0uMjktLjM0LS40OS0uNDNhNS40NiA1LjQ2IDAgMSAxIDcuNDQtNi44MyA1LjQgNS40IDAgMCAxLTIuNzMgNi43OS44Mi44MiAwIDAgMC0uNTQuOXY4LjcyaC0zLjY4di0xLjc1SC4wMjR2LTMuNjV6bTMuNjQtOS4xMWExLjgyIDEuODIgMCAxIDAtMy42NC0uMDYgMS44MyAxLjgzIDAgMCAwIDEuOCAxLjg1aDBhMS44NCAxLjg0IDAgMCAwIDEuODMtMS43OXoiLz4mI3hhOwk8cGF0aCBmaWxsPSIjNjY5ZGY2IiBkPSJNMTUuMzc0IDMuNTc2YTUuNDQgNS40NCAwIDAgMC02LjMyLTMuNDQgNS40NCA1LjQ0IDAgMCAxIDEuMTMgMTAuMjMuODQuODQgMCAwIDAtLjU1Ljl2OC43MmgyLjQzdi04LjcxYS44My44MyAwIDAgMSAuNTUtLjkgNS40IDUuNCAwIDAgMCAyLjc2LTYuOHoiLz4mI3hhOzwvc3ZnPg==;" parent="1" vertex="1">
          <mxGeometry x="1748" y="46" width="10.53" height="13" as="geometry" />
        </mxCell>
        <mxCell id="bZfns3RA5erKDMG97pNH-39" value="" style="sketch=0;html=1;verticalAlign=top;labelPosition=center;verticalLabelPosition=bottom;align=center;spacingTop=-6;fontSize=11;fontStyle=1;fontColor=#999999;shape=image;aspect=fixed;imageAspect=0;image=data:image/svg+xml,PHN2ZyB4bWxucz0iaHR0cDovL3d3dy53My5vcmcvMjAwMC9zdmciIGhlaWdodD0iMTkuOTg2IiB3aWR0aD0iMTUuNzIzIiB2aWV3Qm94PSIwIDAgMTUuNzIzIDE5Ljk4NiI+JiN4YTsJPHBhdGggZmlsbD0iIzQyODVmNCIgZD0iTTMuNjM0IDE0LjU4NnYtMy43NWMwLS4xNS0uMjktLjM0LS40OS0uNDNhNS40NiA1LjQ2IDAgMSAxIDcuNDQtNi44MyA1LjQgNS40IDAgMCAxLTIuNzMgNi43OS44Mi44MiAwIDAgMC0uNTQuOXY4LjcyaC0zLjY4di0xLjc1SC4wMjR2LTMuNjV6bTMuNjQtOS4xMWExLjgyIDEuODIgMCAxIDAtMy42NC0uMDYgMS44MyAxLjgzIDAgMCAwIDEuOCAxLjg1aDBhMS44NCAxLjg0IDAgMCAwIDEuODMtMS43OXoiLz4mI3hhOwk8cGF0aCBmaWxsPSIjNjY5ZGY2IiBkPSJNMTUuMzc0IDMuNTc2YTUuNDQgNS40NCAwIDAgMC02LjMyLTMuNDQgNS40NCA1LjQ0IDAgMCAxIDEuMTMgMTAuMjMuODQuODQgMCAwIDAtLjU1Ljl2OC43MmgyLjQzdi04LjcxYS44My44MyAwIDAgMSAuNTUtLjkgNS40IDUuNCAwIDAgMCAyLjc2LTYuOHoiLz4mI3hhOzwvc3ZnPg==;" parent="1" vertex="1">
          <mxGeometry x="1748" y="121.75" width="10.53" height="13" as="geometry" />
        </mxCell>
        <mxCell id="Emlw189iFecIY5IHkh1l-2" value="&lt;b&gt;&lt;font style=&quot;font-size: 13px;&quot;&gt;Security VPC&lt;/font&gt;&lt;/b&gt;" style="rounded=1;absoluteArcSize=1;arcSize=2;html=1;strokeColor=#ae4132;shadow=0;dashed=0;fontSize=12;align=left;verticalAlign=top;spacing=10;spacingTop=-4;fillColor=#fad9d5;" vertex="1" parent="1">
          <mxGeometry x="889" y="-106" width="451" height="365" as="geometry" />
        </mxCell>
        <mxCell id="Emlw189iFecIY5IHkh1l-3" value="&lt;b&gt;Access &amp;amp; Identity Layer&lt;/b&gt;" style="rounded=1;absoluteArcSize=1;arcSize=2;html=1;strokeColor=light-dark(#314354,#4D4D4D);shadow=0;dashed=0;fontSize=12;fontColor=#ffffff;align=left;verticalAlign=bottom;spacing=10;spacingTop=-4;fillColor=light-dark(#647687,#FFCE9F);" vertex="1" parent="1">
          <mxGeometry x="903" y="-55" width="170" height="280.75" as="geometry" />
        </mxCell>
        <mxCell id="Emlw189iFecIY5IHkh1l-4" value="&lt;b&gt;VPC security layer&lt;/b&gt;" style="rounded=1;absoluteArcSize=1;arcSize=2;html=1;strokeColor=light-dark(#314354,#4D4D4D);shadow=0;dashed=0;fontSize=12;fontColor=#ffffff;align=left;verticalAlign=bottom;spacing=10;spacingTop=-4;fillColor=light-dark(#647687,#FFCE9F);" vertex="1" parent="1">
          <mxGeometry x="1086" y="-55" width="243" height="280.75" as="geometry" />
        </mxCell>
        <mxCell id="Emlw189iFecIY5IHkh1l-7" value="" style="fillColor=#ffffff;strokeColor=#dddddd;shadow=1;strokeWidth=1;rounded=1;absoluteArcSize=1;arcSize=2;" vertex="1" parent="1">
          <mxGeometry x="930" y="-32.5" width="110" height="60" as="geometry" />
        </mxCell>
        <mxCell id="Emlw189iFecIY5IHkh1l-8" value="Cloud&#xa;Armor" style="editableCssRules=.*;html=1;fontColor=#999999;shape=image;verticalLabelPosition=middle;verticalAlign=middle;labelPosition=right;align=left;spacingLeft=20;part=1;points=[];imageAspect=0;image=data:image/svg+xml,PHN2ZyB4bWxucz0iaHR0cDovL3d3dy53My5vcmcvMjAwMC9zdmciIHhtbG5zOnY9Imh0dHBzOi8vdmVjdGEuaW8vbmFubyIgd2lkdGg9IjE2LjUwMDQzNDg3NTQ4ODI4IiBoZWlnaHQ9IjIwIiB2aWV3Qm94PSItMC4wMDAzNjMwODkyNjA2NDUyMTA3NCAxLjE5MjA5Mjg5NTUwNzgxMjVlLTcgMTYuNTAwNDM0ODc1NDg4MjggMjAiPiYjeGE7CTxzdHlsZSB0eXBlPSJ0ZXh0L2NzcyI+JiN4YTsJLnN0MHtmaWxsOiM2NjlkZjY7fSYjeGE7CS5zdDF7ZmlsbDojYWVjYmZhO30mI3hhOwk8L3N0eWxlPiYjeGE7CTxwYXRoIGNsYXNzPSJzdDEiIGQ9Ik0xMC40MiAxMi4wN2wxLjA0IDEuMDUtNS40NSA1LjQ4LTEuMDQtMS4wNXptLS44My00LjE5bDEuMDQgMS4wNS03LjM1IDcuMzktMS4wNC0xLjA1em0tNC4xNi0uODVsMS4wNCAxLjA1LTQuODggNC45LTEuMDQtMS4wNXoiLz4mI3hhOwk8ZyBjbGFzcz0ic3QwIj4mI3hhOwkJPHBhdGggZD0iTTguMjUgMS42MWw2Ljc4IDN2NC41NWE5LjcxIDkuNzEgMCAwIDEtNi43OCA5LjMyIDkuNyA5LjcgMCAwIDEtNi43OC05LjMxVjQuNjNsNi43OC0zbTAtMS42M0wwIDMuNjh2NS40OUExMS4xNyAxMS4xNyAwIDAgMCA4LjEgMjBoLjE1LjE1YTExLjE3IDExLjE3IDAgMCAwIDguMS0xMC43OFYzLjY4eiIvPiYjeGE7CQk8Y2lyY2xlIGN4PSIxMC45NCIgY3k9IjEyLjYyIiByPSIxLjQyIi8+JiN4YTsJCTxjaXJjbGUgY3g9IjEwLjEiIGN5PSI4LjQ1IiByPSIxLjQyIi8+JiN4YTsJCTxjaXJjbGUgY3g9IjUuOTQiIGN5PSI3LjYiIHI9IjEuNDIiLz4mI3hhOwk8L2c+JiN4YTs8L3N2Zz4=;" vertex="1" parent="Emlw189iFecIY5IHkh1l-7">
          <mxGeometry width="26" height="30" relative="1" as="geometry">
            <mxPoint x="17" y="15" as="offset" />
          </mxGeometry>
        </mxCell>
        <mxCell id="Emlw189iFecIY5IHkh1l-25" style="edgeStyle=orthogonalEdgeStyle;rounded=0;orthogonalLoop=1;jettySize=auto;html=1;entryX=0;entryY=0.5;entryDx=0;entryDy=0;dashed=1;strokeColor=light-dark(#FFFFFF,#002E5C);align=center;verticalAlign=middle;fontFamily=Helvetica;fontSize=11;fontColor=default;labelBackgroundColor=default;endArrow=classic;" edge="1" parent="1" source="Emlw189iFecIY5IHkh1l-9" target="zcXtujwmY136qcEb4Mnf-34">
          <mxGeometry relative="1" as="geometry">
            <Array as="points">
              <mxPoint x="1059" y="78" />
              <mxPoint x="1059" y="-110" />
            </Array>
          </mxGeometry>
        </mxCell>
        <mxCell id="Emlw189iFecIY5IHkh1l-9" value="" style="fillColor=#ffffff;strokeColor=#dddddd;shadow=1;strokeWidth=1;rounded=1;absoluteArcSize=1;arcSize=2;" vertex="1" parent="1">
          <mxGeometry x="937" y="48" width="103" height="60" as="geometry" />
        </mxCell>
        <mxCell id="Emlw189iFecIY5IHkh1l-10" value="IAP" style="editableCssRules=.*;html=1;fontColor=#999999;shape=image;verticalLabelPosition=middle;verticalAlign=middle;labelPosition=right;align=left;spacingLeft=20;part=1;points=[];imageAspect=0;image=data:image/svg+xml,PHN2ZyB4bWxucz0iaHR0cDovL3d3dy53My5vcmcvMjAwMC9zdmciIHhtbG5zOnY9Imh0dHBzOi8vdmVjdGEuaW8vbmFubyIgd2lkdGg9IjE5Ljk5IiBoZWlnaHQ9IjEwLjQxIiB2aWV3Qm94PSIwIDAgMTkuOTkgMTAuNDEiPiYjeGE7CTxwYXRoIGQ9Ik05Ljg0LjIxYTUuMSA1LjEgMCAxIDAgNS4xIDUuMWgwYTUuMSA1LjEgMCAwIDAtNS4xLTUuMXptMCA5LjA4YTQgNCAwIDEgMSA0LTRoMGE0IDQgMCAwIDEtNCA0LjAxeiIgZmlsbD0iIzQyODVmNCIvPiYjeGE7CTxwYXRoIGQ9Ik0xMS43NiA1LjkyYTIuMDkgMi4wOSAwIDAgMC0uMjgtLjIyIDMuMTEgMy4xMSAwIDAgMC0yLjYxLS4yOCAyLjMxIDIuMzEgMCAwIDAtLjg5LjQ3Ljg2Ljg2IDAgMCAwLS4zNy42NXYxaDQuNDd2LS44MmExIDEgMCAwIDAtLjMyLS44ek05Ljg0IDQuNzRhMS4xNiAxLjE2IDAgMSAwLTEuMTctMS4xNWgwYTEuMTcgMS4xNyAwIDAgMCAxLjE3IDEuMTV6IiBmaWxsPSIjNjY5ZGY2Ii8+JiN4YTsJPHBhdGggZD0iTTE2LjI5IDUuNmgyLjIxbC0uNzcuNzhoMS4wNGwxLjIyLTEuMjMtMS4yMi0xLjIyaC0xLjA0bC43Ny43N2gtMi4yMXoiIGZpbGw9IiNhZWNiZmEiLz4mI3hhOwk8cGF0aCBkPSJNMTcuODggMS43M1YwaC0xLjczbC0uNzMuNzRoMS4wOWwtLjk4Ljk3LjY0LjY0Ljk4LS45N3YxLjA5em0tMi40NiA3Ljk1bC43My43M2gxLjczVjguNjhsLS43My0uNzN2MS4wOWwtLjk4LS45Ny0uNjQuNjMuOTguOTh6TTEuMzQgMy44NkExLjM1IDEuMzUgMCAxIDAgMi43IDUuMjFhMS4zNSAxLjM1IDAgMCAwLTEuMzYtMS4zNXptMCAyLjFhLjc2Ljc2IDAgMSAxIC43Ni0uNzVoMGEuNzYuNzYgMCAwIDEtLjc2Ljc1eiIgZmlsbD0iIzY2OWRmNiIvPiYjeGE7PC9zdmc+;" vertex="1" parent="Emlw189iFecIY5IHkh1l-9">
          <mxGeometry width="30" height="15" relative="1" as="geometry">
            <mxPoint x="15" y="22.5" as="offset" />
          </mxGeometry>
        </mxCell>
        <mxCell id="Emlw189iFecIY5IHkh1l-11" value="" style="outlineConnect=0;dashed=0;verticalLabelPosition=bottom;verticalAlign=top;align=center;html=1;shape=mxgraph.aws3.mfa_token;fillColor=#7D7C7C;gradientColor=none;" vertex="1" parent="1">
          <mxGeometry x="951" y="121.25" width="61.5" height="61.5" as="geometry" />
        </mxCell>
        <mxCell id="Emlw189iFecIY5IHkh1l-12" value="" style="fillColor=#ffffff;strokeColor=#dddddd;shadow=1;strokeWidth=1;rounded=1;absoluteArcSize=1;arcSize=2;" vertex="1" parent="1">
          <mxGeometry x="1099" y="-32.5" width="100" height="60" as="geometry" />
        </mxCell>
        <mxCell id="Emlw189iFecIY5IHkh1l-13" value="IAM" style="editableCssRules=.*;html=1;fontColor=#999999;shape=image;verticalLabelPosition=middle;verticalAlign=middle;labelPosition=right;align=left;spacingLeft=20;part=1;points=[];imageAspect=0;image=data:image/svg+xml,PHN2ZyB4bWxucz0iaHR0cDovL3d3dy53My5vcmcvMjAwMC9zdmciIHhtbG5zOnY9Imh0dHBzOi8vdmVjdGEuaW8vbmFubyIgd2lkdGg9IjE2LjQyMDAwMDA3NjI5Mzk0NSIgaGVpZ2h0PSIyMC4wNDk5OTkyMzcwNjA1NDciIGZpbGwtcnVsZT0iZXZlbm9kZCIgdmlld0JveD0iMCAwIDE2LjQyMDAwMDA3NjI5Mzk0NSAyMC4wNDk5OTkyMzcwNjA1NDciPiYjeGE7CTxzdHlsZSB0eXBlPSJ0ZXh0L2NzcyI+JiN4YTsJLnN0MHtmaWxsOiM0Mjg1ZjQ7fSYjeGE7CS5zdDF7ZmlsbDojNjY5ZGY2O30mI3hhOwk8L3N0eWxlPiYjeGE7CTxwYXRoIGNsYXNzPSJzdDEiIGQ9Ik04LjIxIDBMMCAzLjQydjUuNjNjMCA1LjA2IDMuNSA5LjggOC4yMSAxMSA0LjcxLTEuMTUgOC4yMS01Ljg5IDguMjEtMTAuOTVWMy40MnptMCAzLjc5YTIuNjMgMi42MyAwIDAgMSAxLjAwNSA1LjA2QTIuNjMgMi42MyAwIDAgMSA2LjM1IDQuNTZhMi42MyAyLjYzIDAgMCAxIDEuODYtLjc3em00LjExIDExLjE1YTguNjQgOC42NCAwIDAgMS00LjExIDIuOTMgOC42NCA4LjY0IDAgMCAxLTQuMTEtMi45M3YtMi4yNWMwLTEuNjcgMi43NC0yLjUyIDQuMTEtMi41MnM0LjExLjg1IDQuMTEgMi41MnoiLz4mI3hhOwk8cGF0aCBjbGFzcz0ic3QwIiBkPSJNOC4yMSAwdjMuNzlhMi42MyAyLjYzIDAgMSAxIDAgNS4yNnYxLjEyYzEuMzcgMCA0LjExLjg1IDQuMTEgMi41MnYyLjI1YTguNjQgOC42NCAwIDAgMS00LjExIDIuOTNWMjBjNC43MS0xLjE1IDguMjEtNS44OSA4LjIxLTEwLjk1VjMuNDJ6Ii8+JiN4YTs8L3N2Zz4=;" vertex="1" parent="Emlw189iFecIY5IHkh1l-12">
          <mxGeometry width="24" height="30" relative="1" as="geometry">
            <mxPoint x="18" y="15" as="offset" />
          </mxGeometry>
        </mxCell>
        <mxCell id="Emlw189iFecIY5IHkh1l-27" style="edgeStyle=orthogonalEdgeStyle;rounded=0;orthogonalLoop=1;jettySize=auto;html=1;entryX=0.5;entryY=1;entryDx=0;entryDy=0;strokeColor=light-dark(#FFFFFF,#002E5C);align=center;verticalAlign=middle;fontFamily=Helvetica;fontSize=11;fontColor=default;labelBackgroundColor=default;endArrow=classic;dashed=1;" edge="1" parent="1" source="Emlw189iFecIY5IHkh1l-14" target="zcXtujwmY136qcEb4Mnf-36">
          <mxGeometry relative="1" as="geometry">
            <Array as="points">
              <mxPoint x="1148" y="60" />
              <mxPoint x="1115" y="60" />
            </Array>
          </mxGeometry>
        </mxCell>
        <mxCell id="Emlw189iFecIY5IHkh1l-28" style="edgeStyle=orthogonalEdgeStyle;rounded=0;orthogonalLoop=1;jettySize=auto;html=1;dashed=1;strokeColor=light-dark(#FFFFFF,#002E5C);align=center;verticalAlign=middle;fontFamily=Helvetica;fontSize=11;fontColor=default;labelBackgroundColor=default;endArrow=classic;" edge="1" parent="1" source="Emlw189iFecIY5IHkh1l-14" target="zcXtujwmY136qcEb4Mnf-34">
          <mxGeometry relative="1" as="geometry">
            <Array as="points">
              <mxPoint x="1214" y="93" />
              <mxPoint x="1214" y="-110" />
            </Array>
          </mxGeometry>
        </mxCell>
        <mxCell id="Emlw189iFecIY5IHkh1l-14" value="Cloud Firewall&#xa;Rules" style="sketch=0;html=1;verticalAlign=top;labelPosition=center;verticalLabelPosition=bottom;align=center;spacingTop=-6;fontSize=11;fontStyle=1;fontColor=#999999;shape=image;aspect=fixed;imageAspect=0;image=data:image/svg+xml,PHN2ZyB4bWxucz0iaHR0cDovL3d3dy53My5vcmcvMjAwMC9zdmciIHhtbG5zOnY9Imh0dHBzOi8vdmVjdGEuaW8vbmFubyIgd2lkdGg9IjIwIiBoZWlnaHQ9IjIwIiBmaWxsPSIjNDI4NWY0IiB2aWV3Qm94PSIwIDAgMjAgMjAiPiYjeGE7CTxzdHlsZSB0eXBlPSJ0ZXh0L2NzcyI+JiN4YTsJLnN0MHtmaWxsOiM0Mjg1ZjQ7fSYjeGE7CTwvc3R5bGU+JiN4YTsJPHBhdGggY2xhc3M9InN0MCIgZD0iTTAgMGg4Ljg5djIuMjJIMHptMCAxNy43OGg4Ljg5VjIwSDB6bTAtOC44OWg4Ljg5djIuMjJIMHpNMTEuMTEgMEgyMHYyLjIyaC04Ljg5em0wIDE3Ljc4SDIwVjIwaC04Ljg5em0wLTguODlIMjB2Mi4yMmgtOC44OXpNNS41NSA0LjQ0aDguODl2Mi4yMkg1LjU1em0wIDguODloOC44OXYyLjIySDUuNTV6TTAgNC40NGgzLjMzdjIuMjJIMHptMCA4Ljg5aDMuMzN2Mi4yMkgwem0xNi42Ny04Ljg5SDIwdjIuMjJoLTMuMzN6bTAgOC44OUgyMHYyLjIyaC0zLjMzeiIvPiYjeGE7PC9zdmc+;" vertex="1" parent="1">
          <mxGeometry x="1127" y="72" width="42" height="42" as="geometry" />
        </mxCell>
        <mxCell id="Emlw189iFecIY5IHkh1l-19" style="edgeStyle=orthogonalEdgeStyle;rounded=0;orthogonalLoop=1;jettySize=auto;html=1;entryX=0;entryY=0.5;entryDx=0;entryDy=0;dashed=1;strokeColor=light-dark(#FFFFFF,#002E5C);" edge="1" parent="1" source="Emlw189iFecIY5IHkh1l-15" target="zcXtujwmY136qcEb4Mnf-41">
          <mxGeometry relative="1" as="geometry" />
        </mxCell>
        <mxCell id="Emlw189iFecIY5IHkh1l-15" value="vpc-sc &#xa;for CloudSQL" style="shape=image;verticalLabelPosition=bottom;labelBackgroundColor=default;verticalAlign=top;aspect=fixed;imageAspect=0;image=https://framerusercontent.com/images/jAngUUPQAPlGVFPya629TLtdgoU.png;clipPath=inset(43.28% 77% 32.09% 11% round 1%);fontColor=light-dark(#FFFFFF,#FFFFFF);" vertex="1" parent="1">
          <mxGeometry x="1245" y="-32.50000000000001" width="37.77" height="34.62" as="geometry" />
        </mxCell>
        <mxCell id="Emlw189iFecIY5IHkh1l-21" style="edgeStyle=orthogonalEdgeStyle;rounded=0;orthogonalLoop=1;jettySize=auto;html=1;entryX=0;entryY=0.75;entryDx=0;entryDy=0;dashed=1;strokeColor=light-dark(#FFFFFF,#002E5C);align=center;verticalAlign=middle;fontFamily=Helvetica;fontSize=11;fontColor=default;labelBackgroundColor=default;endArrow=classic;" edge="1" parent="1" source="Emlw189iFecIY5IHkh1l-18" target="bZfns3RA5erKDMG97pNH-5">
          <mxGeometry relative="1" as="geometry" />
        </mxCell>
        <mxCell id="Emlw189iFecIY5IHkh1l-22" style="edgeStyle=orthogonalEdgeStyle;rounded=0;orthogonalLoop=1;jettySize=auto;html=1;entryX=0;entryY=0.75;entryDx=0;entryDy=0;strokeColor=light-dark(#FFFFFF,#002E5C);dashed=1;" edge="1" parent="1" source="Emlw189iFecIY5IHkh1l-18" target="bZfns3RA5erKDMG97pNH-6">
          <mxGeometry relative="1" as="geometry" />
        </mxCell>
        <mxCell id="Emlw189iFecIY5IHkh1l-18" value="KMS" style="shape=image;verticalLabelPosition=bottom;labelBackgroundColor=default;verticalAlign=top;aspect=fixed;imageAspect=0;image=data:image/png,iVBORw0KGgoAAAANSUhEUgAAAgAAAAIACAYAAAD0eNT6AAAAAXNSR0IArs4c6QAAIABJREFUeAHtnXtoXNe9700IwbTBmBJCA6EpIfQBJVBDIfeUJJasOrYq65X4hHBTI6LZW0lpAz0tofSPoLaRZFkaS1EIvopmjZI2l7a+0HAabno4bQ8pBxNOIKUtBEPagxNyIKc4vq41e+0tR7j7suRMMxrrsWdmP9bjYzDz0J69fuuzfmt9v7P2mrV37eIfBCAAAQhAAAIQgAAEIAABCEAAAhCAAAQgAAEIQAACEIAABCAAAQhAAAIQgAAEIAABCEAAAhCAAAQgAAEIQAACEIAABCAAAQhAAAIQgAAEIAABCEAAAhCAAAQgAAEIQAACEIAABCAAAQhAAAIQgAAEIAABCEAAAhCAAAQgAAEIQAACEIAABCAAAQhAAAIQgAAEIAABCEAAAhCAAAQgAAEIQAACEIAABCAAAQhAAAIQgAAEIAABCEAAAhCAAAQgAAEIQAACEIAABCAAAQhAAAIQgAAEIAABCEAAAhCAAAQgAAEIQAACEIAABCAAAQhAAAIQgAAEIAABCEAAAhCAAAQgAAEIQAACEIAABCAAAQhAAAIQgAAEIAABCEAAAhCAAAQgAAEIQAACEIAABCAAAQhAAAIQgAAEIAABCEAAAhCAAAQgAAEIQAACEIAABCAAAQhAAAIQgAAEIAABCEAAAhCAAAQgAAEIQAACEIAABCAAAQhAAAIQgAAEIAABCEAAAhCAAAQgAAEIQAACEIAABCAAAQhAAAIQgAAEIAABCEAAAhCAAAQgAAEIQAACEIAABCAAAQhAAAIQgAAEIAABCEAAAhCAAAQgAAEIQAACEICABgQeq67ePjy/do8GoRACBCAAAQhAAAJZEhgfj6/zqqs9XjU87Qu51j1Riw9Ny/cHy8Hc0dPxDVmWzbkhAAEIQAACEMiZwDcXLuwpLUnfE+FZX8i4/l8ZgPr/g1O1tf6y/OWh6dXP5hwexUEAAhCAAAQgkCYBf1HuK4lo0RdS1kW/8bEu/s2PvWX5ztDT8tE0Y+FcEIAABCAAAQhkSODoeHzDWDV8wBfyV41iv9nzZuFvfn1wOpD9J8MfPzQb35RhyJwaAhCAAAQgAIF2CahFfV4lnPZFdH4zsd/svWbB3+p1z1Qt/mpZvjlQXu1tNz4+BwEIQAACEIBASgSaF/VtJvLbvbeV4G/3PosGU2o8TgMBCEAAAhBolcD6or5q+PiokOe2E/id/rad0O/0N7Vo8Ei59lsWDbbaehwPAQhAAAIQaJHATov6dhL85r/vJPJJ/64WDQ7PBU+0WB0OhwAEIAABCEBgKwL1RX2ekGeaBbzT10kFPulxLBrcqhV5HwIQgAAEIJCQQDuL+lo1BEmFvdXjWDSYsJE5DAIQgAAEIKAIdLqoTxcD0GgYWDRIbkMAAhCAAAS2IDCyfHFvKYVFfToagLoZqC8aPPLMyue2wMDbEIAABCAAATcIpL2oT2cDUDcC6pFFg27kN7WEAAQgAIEGAlku6jPFANTNAIsGGxKDpxCAAAQgYCeBPBb1mWYA6kaARYN25jy1ggAEIOAsgbwX9ZlqAOpGQD3WFw2OjMe7nU0cKg4BCEAAAmYSKGpRnw0GoG4GWDRoZu4TNQQgAAEnCRS9qM8mA1A3AuqRRYNOdicqDQEIQEBvAjot6rPVANTNAIsG9e4LRAcBCEDACQI6Luqz3QDUjQCLBp3oYlQSAhCAgD4EdF/U54oBqBsB9ciiQX36B5FAAAIQsI5AfVGfL+TbrYqszsc3Cqnpz1k0aF23o0IQgAAEiiNg2qK+Vs2G6aK/VfwsGiyuz1AyBCAAAWMJmLyoDwNQixtNQX3R4NCp+GZjE5LAIQABCEAgWwI2LOrDAGw0AHUzwKLBbPsOZ4cABCBgHAHbFvVhADY3AHUjoB5ZNGhcNyVgCEAAAukRsHVRHwZgZwNQNwMsGkyvP3EmCEAAAtoTsH1RHwYguQGoGwH1yKJB7bsuAUIAAhBonYBLi/owAO0ZgLoZYNFg6/2LT0AAAhDQjoCLi/owAJ0ZgLoRqC8aHJqXfdolNgFBAAIQgMC1BFxf1IcBSMcA1I2AemTR4LX9jHcgAAEIaEOARX0yblX81fGNQsfz7c0Diwa16e4EAgEIQGDXLhb1tSf8dbOA6G8v+lvxYdEgow8EIACBAgiwqK8z0a+LPzMA7Yl/oylg0WABAwBFQgAC7hFgUV96wl83AY1ixvP2DQGLBt0bj6gxBCCQMQEW9aUv+nXxZwagfcHfziyxaDDjQYHTQwACdhNgUV+2wl83AdsJGX/rzCCwaNDuMYraQQACKRNgUV8+wo8B6EzcWzVHLBpMeaDgdBCAgB0EWNSXr+jXxZ9LAPmaAGUaWDRox5hFLSAAgQ4JsKivOOGvm4BWv8lyfDqmgUWDHQ4efBwCEDCPAIv6ihf9uvgzA5COmHdqilg0aN44RsQQgEALBFjUp5fw101Ap+LF59MzET1TtStHyrXfHnlm5XMtdC0OhQAEIKAnARb16Sn8GID0hDsLE8SiQT3HM6KCAAR2IMCiPr1Fvy7+XALQ2wQoY8GiwR0GG/4MAQjoQYBFfeYIf90EZPHtlXOmbyxYNKjHGEcUEIBAAwEW9Zkn+nXxZwYgfaHOw/ywaLBhAOIpBCCQPwEW9Zkt/HUTkIdgUUY2RoNFg/mPe5QIAacJsKjPDuHHAGQjykWZHRYNOj0sU3kIZEeARX12iX5d/LkEYJcJUOaDRYPZjYOcGQJOERitrN7hVcJpX0TnG0WD5/YYgqK+sVJutuaDRYNODdVUFgLpEGBRnz3insSoIcTZCrEOfFk0mM7YyFkgYC0BFvW5Jfx1c6CDQBFDPiaERYPWDt9UDALtEWBRn5vCjwHIR3R1NDcHpuTfWDTY3njJpyBgPAEW9bkt+nXxV486ChQx5WdO7jseRP0nwx8PnYpvNn5gowIQgMDWBFjUh/A3ij8GID+h1d3UqFmBr5blm/3zK/1bjyD8BQIQMIoAi/oQ/WbRb3ytuzARX/4mhUWDRg3xBAuBawnUF/WNCnmuccDnOYagMQcQ2PwF1hTmLBq8dlzlHQhoTYBFfQh8o8Dv9NwUMSLOYo0Kiwa1HvYJzmUCI8vx7rFq+IAn5JmdBnz+jkFozAGEtVhhNY0/iwZdVhrqrhUBFvUh5o1i3s5z0wSIePUwLCwa1EoKCMYVAizqQ/TbEfqtPoOg6iGoJrcDiwZdUR/qWRiBR39Uu9mvhk+wqA8DsJWYt/O+ycJD7HqZF7VosO9E7bXhObmvsIGSgiFgEwEW9SH47Qh70s8gonqJqC3twaJBm1SIuuRKYH1Rn4iO+WL1jaQDOcdhFNrJAVsEh3roaWTUosGBcu0ldhrMVUIozEQCLOpDxNsR8U4+g3DqKZy2tQuLBk1UJGLOnEB9Ud+YCF/2hbzSyWDOZzEQreaAbUJDffQ3NIemw5XBcjA3Mh7vznyApQAI6EiARX2IdatincXxCKb+gmlrG7FoUEdlIqZMCbCoD+HPQsjbPaet4kK9zDI2LBrMVHY4eZEEWNSH6Lcr0Fl/DqE0Syhtby8WDRapVJSdKgEW9SH8WQt4p+e3XVCon5kGh0WDqUoRJ8uLAIv6EP1ORTnPzyOQZgqkS+3GosG81Ity2ibAoj6EP0/hTqssl4SEupptdlg02LY88cGsCHxz4cIeT4QvekJeTmtQ5jyYiQxzoOaL6F1PhGfVRlO9J+R59f/wCXnx4HQgD07X1g5O1dZ6pswWC8Te7vbrnQ3ODU9fuDWrcZ3zQiARAe+51c9kOFjHnBsz0EIOqH0k3vZE9IonwgW/Kh/zhOxXvzzxF+Ut6vLUZkm92ftHT8c3jFai24bmZd/QfPDdwfnwf/eV5eu9M/IvPdO1NQTWboE1oX0fWAgObpbPvAeB3AhgABDoFgQ6VUNXEtEFvxr+Qt0kaqwSHRhZvrg3r8QfnLv4aWUM+srhr9Xd4JgxwBDkbRowAHn1dsrZkgAGAAOQowFY80TwqlcJv6O+1W/2zX3LRM34D/vH4909k9LrnQleVZcS8hYDynPPgGAAMu7UnH5nAhgADEDGBmBNbRM9Vo0eHq1c+sTOGanHET1T8ov9s8HPuifDFcTZPXHOo80xAHr0daejwABgALIxAKtvqGv4D83GN5newQ5MrtytZgbUKu48hIEy3DAcGADTRwYL4scAYABSNADSE7LiLcsvWdA1rqnC4YV4z5FZ+f3uieB9RNoNkc6ynTEA13Qx3sibAAYAA9C5AYjOl4T8gdpLIu/8LaI8tXaheyp4SP2Uq3tCxlmKBOe212hgAIrovZS5gQAGAAPQvgGIzqsV/EefjW/ckFQOvej+Ya37KyfCswi1vUKdVdtiABwaKHStKgYAA9CqASgJWVPf+NUmUrrmdd5xdR2XAwcm5X9nJRac1z6DgQHIu5dS3jUEMAAYgBYMwBWvGp5WG+xck0i8sUtdGlA/JeyeDEIE2z7BTrtNMQAMGoUTwABgAJIZgNU3SkvhXYUnrAEBDM7Fe7sm5WnWB2ACtjMNGAADOrPtIWIAMABbG4BI7fwnR6vRk2prXdv7Qtr1Uz8f5LIAJmArE4ABSLvHcb6WCWAAMABbGYCSiF5X+dFyUvGBvxNQOwx2Ta48v5UI8L67BgED8PduwpOiCGAAMACbGIArapHf+Hh8fVF5aVO5am3AvRPBV7om5F8RfHcFv7ntMQA29XJD64IBwAA0GoCSiN4bq0T3GJrOWoe9/0Twye7J4HfNQsBrN00BBkDr7upGcBgADEDdAHhCnlG33XUj84uppZpV6ZoMnkb03RT9xnbHABTTBym1gQAGAAOgDEBJRIss9GvoGBk/7ZoIjt07wb0FGgXRtecYgIw7GaffmQAGwHkDcEWt8t85UzgibQLqVwLcbdDdmQAMQNo9ivO1TAAD4LQBkJ4I7285afhAagQOTa9+lp8KumkCMACpdSNO1C4BDICzBqD2yPPBwXbzhs+lR6DvePSp7onaO65NgbteXwxAen2IM7VJAAPgoAGorv4/dvVrs8Nk9DH1C4EDE/JNdg90ZzYAA5BRZ+K0yQlgANwyAJ6Ql7xl+aXkGcKReRE4MrtyU9eE/LPr34xdqT8GIK+eRTlbEsAAuGMA1F38Rivhl7dMBv5QOIHh6Qu3cjnAjVkADEDh3Y0AMABuGABPyMtjlegAGa8/gcG5i5/ungjed+WbsKv1xADo3xetjxAD4IQBuDImomPWJ7NFFeyZkl/ktsJ2zwRgACzqsKZWBQPgggGIvmdqfrocd89x+dWuyeADV78h215vDIDLvVuTumMA7DYAnghf1CTVCKMNAvsngm/bLoSu1g8D0EaH4CPpEsAA2GwAVt8YWY53p5sxnC1vAl2T8rSrImlzvTEAefckyruGAAbAVgMQnR+tRLdd0+C8YRyBr83EH7+6R4Dd18RtFvvN6oYBMK4r2hcwBsBGAxDFnpD99mWruzUaOlX7AosC7TJAGAB3+7M2NccA2GcAPBEujI/H12mTZASSCoHup2rf2OybJO+ZaQwwAKl0C07SCQEMgF0GwBPBW1z376RH6PtZZer2T9T+BcE3U/Cb2w0DoG9fcyYyDIA9BqAk5BV2+rO766p7BnRNyL82iwmvzTMFGAC7+6oRtcMA2GMAvEp40oikazFIf1He4ouoS21mNFqNnlSXOEoiWvQrwU97y/Kdr5blm30zwR/6ZuWZ/vnaTwZOyifV4Oovxh9rsSjtD1ezAD2T0kPwzRP85jbDAGjf3ewPEANgiwGI3lWrxU3PWCVw6mZF/lL0XU9Er5RE9J4vtm6j5kG1+fWh6XClryxf758Lp4dOxTebzkfFrxjdOyHPNNeV12aZAgyADb3R8DpgALYWl+2ER7e/eSL8R1NTUQnaWCW6Z/1bvYjOt8K2VdHrnZF/OTIvq2oq3VReKm61VfC9E7Urrdaf4/UxCRgAk3ugJbFjAMw3AGMi/I2J6TiyfHGvXw2f8IV8uxXRbzy2XUHrmarF6tLB8Hz4oInsVMzdE7WlduvP54o3AhgAU3ueRXFjAMw2AGrhn78o95mUko/+qHazL1bnfCFrjWLezvM0hEzNCgzORw+bxFDFemR25SYWBBYv5O3mIAbAtB5nYbwYALMNgEl7/atFeSUhf1BKQfjrZqHdwXezz/VO194bXgh6TOrmByblk5vVhff0NwYYAJN6mqWxYgDMNQCekJcfq67ebkJqjlWCQ6NCnqsLd1qPWQhd70zw6uGFeI8JXFWc3RPB+1lw4JzZmggMgAk9zPIYMQBGG4CK7un5zYULe9QsRVqC33yerETqvuNBZMr6gO7J4LtZceC82ZkADIDuo5cD8WEAjDUAa6rtdE5R9XM+tTNhs2in+TprgeqfDX6mM2MVm5oFYC1AdkKdVY5hAHTvWQ7EhwEw1ABUgp/qnJ6eiP6nL6T0RRSnKfjN58pqcG48b+9scE73SwIHJoLjjTHzXH9DgAHQeQRzJDYMgJkGoLQU3qVriqqFfr76dcI2G/ik9be8hO7wCXmx73j0KV2ZD09fuLVrMvggLx6U07nBwADo2pscigsDYJ4BKInodR1TdH0XPxEupCXuSc6TpxCtrwuY0/cnl12TwYvdEzLOkwlltW8EMAA6jmKOxYQBMM8AeCIa0S1NlfiXRHQqiWineUzeAqRMwNGTl+7Qjb+Kp/uHte68eVAeBkDHvkBMCQlgAMwyAJ6Ql3S83e+H0/6ZXu/fzDgUIUAHpwOp4+UAZcK6JuSfi2BCma0bAWYAEooUh2VHAANgnAFYzi4b2jtzaUn6m4lzHu8VJTyHpuX7R0/HN7RHLLtP8ZPA1oW4qBzCAGTXDzhzQgIYALMMgLotbsKmzeWwqzfxkWt5iP1mZRQ1eKty+8rytVwgt1DI4NzFTxfJhLKTGxAMQAuJzaHZEMAAmGQAonfVNG82mdD6Wa/u6R+9u5kw5/Ve0YIzWA7mWieX7Se6J4L/KJoL5e9sBDAA2fYDzp6AAAbAHAOgFtklaNJcDrm64j96Jevf+e9kJIoWGnVXwWHNfhmwfyL4dtFcKB8DkMtARCGdEcAAmGMAHnk+ONhZa6f3aW85emQncc7j7zoIjVoPoNPMzIHJlc/owIUYtjcBzACkNx5xpjYJYADMMABq9b8ui878RXlLSUQX8hD4ncrQRWQGyvK5NrtgJh/j1wDbi68OeYMByCT1OWkrBDAAZhgAvxr+opV2zfJYT8jKTsKc1991GMhVDD1TtStDp+Kbs+Se9NzrPwecDJ7WhQ1xbG5GMABJM5rjMiOAATDDAJSq4eOZJUELJy4tXf58SRS36r/ZWOgkLn3l8NctoMz00K7jckAnNsRyrQnAAGTaBTh5EgIYAEMMwFJwZ5L2zPoYNRPRLMJFvtZJWNSCwCPPrHwu6zZIcv4jsys36cSGWDAASfKWY3ImgAHQ3wCo6+06LDJT3/7zuslPUlOhm7D0zgSv5tyFtyzuwIR8Uzc+xPOREWAGYMvU5Q95EcAA6G8AvKr817zyYbtydLr2XzcIugmKWgswsnxx73Yc8/pb90RtSTc+xIMByCv/KScBAQyAEQZgMkFTZnqIEjVfSFkXXl0edRSUI/OymmljJDx591O1b+jIh5iumgBmABImModlRwADYIABEOH92WVAsjP7VfmYLqLfGIeOYnL4hLyYjGq2Rx2YXLlbRz7EhAHINvM5e2ICGAADDMBzq59J3KAZHehVw9cahVeX57qKiQ67Ax5eiPfoyoe4ajEzABkNVpw2OQEMgPYGYG18PL4+eYumf2RpKbxVt8V/dQOiq5AMlGsvpd8SrZ+xe6L2jq6MXI8LA9B6PvOJlAlgAPQ2AJ4Iz6bc5C2fTpdtf+ui3/ioq4gcmpEXWgadwQe6J8J/656Qsa6cXI4LA5BBwnPK1ghgAPQ2AGMifLm1Fk3/aE+s/p9G0dXpuc4Coqbg02+N1s7YNbnyvM6MXI4NA9BaLnN0BgQwAHobAB3uAFgS0Xs6iX5jLDoLyMDJ2tcz6LItnfLApHxSZ0Yux4YBaCmVOTgLAhgA7Q3A97Jo96TnHK1EtzUKrm7PdRaQ/rL8ZVLOWR3XMyk9nRm5HBsGIKus57yJCWAA9DYAY0vRscSNmcGBngjv1030G+PRWUB6Z4NzGTRJS6fkngAfbbyjW65gAFpKZQ7OggAGQG8DcOw52ZdFuyc9Z0lE32sUXN2e6zaoN8ZzaDpcSco5q+PYCwADkFVucV4LCGAA9DYAY5XoniLTTMftfxtNSKPg6vZc3RxoVxxfV2T7HZpe/axuXIiHjYCK7BOU3UAAA6C3ASi9UOxdAMdE+JtGwdXtue5icvTkpTsaulvuT/uOR5/SnZGr8XEJIPfuQIHNBDAAehuAx6qrtze3WZ6vfbH6hm6i3xiP7uIxPL9W6AzO/hPBJ3Vn5Gp8GIA8RzLK2pQABkBvA6BW4W/acDm9OSrkuUbB1e257uIxOB89nFNTbVrM4Fy8V3dGrsaHAdg0ZXkzTwIYAL0NgNqGN898aC7LF9F53US/MR7dxaO/HPxTM9M8X39tJv647oxcjQ8DkGdPoKxNCWAA9DYA/qK8ZdOGy+lNDEBnq8iH5sPHc2qqTYvhEkBn7ZelOcEAbJqyvJknAQyA3gag6EsAOu8CqGYCshyg0zj38Jws5dmfm8s6MLnymTTqwTnSNxIYgOZs5XXuBDAAehuA0tLlz+eeFA0F+kK+3Tjlrttz3YWp6DUAPVPyi7ozcjU+DEDDQMPTYghgAPQ2AP6i3FdMZlwttSSi13UT/cZ4dBeP4YWgp8j26/5hrVt3Rq7GhwEosmdQ9joBDIDmBkBEXUWmqieiVxoFV7fnuovHQ7PxTUW2H1sBpz91n1bOYQCK7BmUvU4AA6C3ARirhg8UmarsBNi+gKzvBFhk4+3atat7KngoLcHiPO3nwmbsMAAFdw6K37ULA6C3AfCr8rEi89SrhN/R7Vt/YzybDay6vHff8SAqsu1U2d2TwXd14UEcGw0EBqDo3kH5GAChtwEYrUZPFpmmY5XgUKPg6vZcZ1Hpm5F/KrLtVNkHJmqLOjNyOTYMQNG9g/IxAJobAE/I5SLTVG1EpJvoN8ajs4D0z9d+UmTbqbK7J8J/05mRy7FhAIruHZSPAdDeAASvFp2mOv8UUGcBKXoPgKsGoPaOzoxcjg0DUPTIRvkYAM0NQEnId4tOU0+ELzZ+69bpua4CcmBK/u3os/GNRbbdyHi8+96J2hVdGbkeFwagyN5B2esEWASo9xqAkpBXihaSMREd00n0G2PRVUR6Z+R/FT3EsAvgxkV3uuUKBqDoHkL5zABoPgOgxK60FN5VZKqOVi59oiTkWqPw6vJct0G9Hk9/Wb5QZJuNj8fXsQcABqDIHKRsAwgwA6D3DMBVAyD9olNpTIS/0UX0G+OoC65uj0Onal8ous26JoOndeNCPB+ZEmYAiu4hlM8MgAkzACI6VXSqji3peRlAR0Hpna69V3R7qfK7J4L/0JEPMV01ARgAHXqJ4zEwA6D/DIAnwt8XnaYjy/HukoguNH771uG5jmIyMCefKrq99o/Hu7smgw905ENMGICi+wflf0gAA6C/AVALAb+5cGFP0UnriXBBB9FvjEE3MemZql1Rq++LbqsDkyt368aGeD6a/lcsmAEoupdQPpcADLgEoARP7chXdLqOVqLbfM0WA+omKv2zwc+KbidVPlsAbxRb3fIEA6BDLyEGDIApBqAazuiQrmpnwsZv4EU/12lgV9/+1S8mdGin/RO1f9GJDbFca0iYAdChpzgeA5cA9L8EoETWE9EfdUjVx6qrt3tCXi5a+Ovl6yQsA+XaSzq00eGFeA/X/68VXJ1yRcWCAdChtzgeAwbADAOgBE/ty69DunpVOVkX4KIfdRnU1Z3//MX4Yzq0D7cA1l/8MQA69BRi4BKAIZcA1oW24FsD17uLWpDoi+jdosVfla+LAeifC5+o8yn6sWtSntaFC3FsbUaYASi6p1A+BsAgA6A249ElZY89J/swAFcH997Z4Jwu7bL+878J+VeEd2vh1YUNBkCXXuNwHFwCMOcSgFqB/+iPajfrkq6ekJWiTUDRg/nBqdra8PQFLS7NqLzoOS6/WjQTyk9mPjAAuoxkDseBATDJAESxr8llANVl1KUAT4RnizQBRYvNwMna13UaPpj+Tya+ReeNKh8DoFPPcTQWDIBJBkDFuvqGTqlaWrr8eU/IS0WZgCIH8v6y/Ged2mL/ieCTrP7HAOiUk8SiOQEMgGkGQP0aILhTp7TyhOwvaoOgogxAXzk8q1MbqFjY/Mcc8WcGQLfe42g8GADzDIDakle3dPWWo0d8Ia/kPRNQhAHoPSHP6/KTv3oejI/H13dP1N4pggdltmc8uARQz14eCyOAATDPAPhC1nS4N0Bz0nqV8Du2G4DDJ+TFoVOxNgsx623QdVwOIMTtCXFR3DAA9ezlsTACGAAjDUDsV8NvFZY02xRcqoaP5zkTkOfgrb7567LVb3MTsPWvWeKv8hYD0JzFvM6dAAbATAMwKuQ5Ne2be8IkKHBsKTpWyummQfkYABmr3/oPzsV7E1Q/90MOTIb/Ix8O5omszlwwALl3FQpsJoABMNMAqKl2dd29uT11eT1aCb9cEtF7WV8SyGOA7ztRe21XHF+nC9vmOPj2b6YxwQA0ZzKvcyeAATDYAIjgLV1nAVQiq3sXeNXwtSxNQJYGQN3db2BOPpV7p2yhQL79myn+Km8xAC0kOodmQwADYK4BUMKqptuzyYx0zqoMymg1ejKrnwlmZQAOTcv3h+fkvnQoZHeW7onw37JiwHmzNRcYgOz6BWdOSAADYLYB8IV8e2Q53p2wuQs7rPRCcKcn5Jm0ZwPSFin1rf/IvKzqPOVfb8QDkyt3p11/zpet6DfyxQDUM5nHwghgAIw3ALG/FH23sARqoeDx8fi6sWr0cJp3EmwcUDsv8N+XAAAgAElEQVR93leWb+i0r/92aBXL7ongPzqtM5/PT/CbWWMAtstw/pYLAQyA+QZAbcWr002Cdkrco+PxDeqeBmr2otMZgeZBtZ3XfTPBHx5c+OCuneLW6e/dT9W+0U5d+Uxxgt/MHgOgU49yNBYMgPkGQImoJ8IXTUthtT5grBo+4Av5q1Kbuwg2D6pJX6up/r5y+OujJy/dYRq39T3/ueVvnLStdT0OA2Baz7MwXgyAHQbg6uY7UZepKfpYdfV2vxo+oX410IoZaHVwVzfLUXfMUyJqKquuyeDFVuvN8fp886+3BQbA1B5oUdwYAGsMgJoFOGvCgsCduo+6nKFmBtQ9D0oier0kZG2rSwX1wXTHx8ngd/sngm/rupnPTkzqf793IvjKjnWd0E/siPnaNsEA1LOax8IIYADsMQDrlwIq4cnCkimjgtWCt9FKdJsvoi5PRP9TbYOsFj56lXD64JT8S/dkuNI9GYTqf9eE/GvXhPyz+nlc12TwdPdU8JDJ3/YbkR5eiPdcrdu1YoLAmscEA9CY3TwvhAAGwC4DcHX63NxLAYV0AkMKZerfPJHfzphhAAzpeDaHiQGwywB8OFX+9sjyRS33rbe5L2VZt55J6W0nJvzNPHOAAciyx3DuRAQwAFYagHhMhC+rqfNEScBBWhM4NL362fVLHFzbj20yOhgArbudG8FhAOw0AOszAZreMtiNnpVOLfePx7u7J4Pf2SR81OXqbAUGIJ0+wlk6IIABsNcAqFvyjlWiAx2kBx8tkICawemaXHm+e0Ja9c0XA4ABKLBbUXQjAQyAvQbg6nqA6Lz6jX1jm/PcDAIHJoLjiOVVsbSRAzMAZvRDq6PEANhuANZ3CTzLokCzujGL/uwV/rqZGZ5fu8esrCRa6wis78Am7BfBD1fHx64+qh32/MX4Y9YlsIUVUpv93DtRu1IXCh7tNAMm3G7awu5FlRoJlJbCW10VRdfqPSZWf672329sf57rRaBnSn6RFf92Cn6zkTvyzMrn9Mo+onGOgL8ob3FNCJ2ubyX4KSZAz26uxF/tZNgsFLy20xD0HY8+pWcmEpUzBEYrlz7htCC6ePkDE6Bd/776zT9cQeztFPvN2vWh2fgm7RKRgNwicPTZ+EYMgHtrINTtg5kJ0KOvH5hcuZtpf3eEv24GWJOjR/9zOoqj4/ENGAD3DMB6m1fDX9hw90CTO3D3D2vdiL974q9MwK6YnTpN7rtWxK42G8EAOGoAhPqJYPCqugxkRTIbVgl1p8KuyeCD+jdCHt0yAoalK+HaSsAXcg0T4LQJeKu0dPnztua3bvVSl17Y5MctsW82dz1TtVi3vCQeRwn4QkoMgLsGwBdR7IvoPNsGZz8AHF6I9+yfqP1LsyDw2i1DgAHIvq9RQkICnpCXMAAuG4C/132tJKLvcRfBhB2nxcMOTK58pmtC/hmxd0vsN2vvg1O1tRbTh8MhkA0BX0TvYgD+LoLO7hZYzwFPRK/wE6V0+1rXRHCMxX4If90M3Hc8iNLNMM4GgTYJeCL6Y33w5xEjoHKgJKL3PCH720wpPvYhgSOzKzcx5Y/w14W//nj4hLxIJ4GAFgQ8Ic8g/Aj/JjlwpSSiU99cuLBHi0Q1LAi1p3/3RPB+fdDnESNQz4He6dp7hqUz4dpKYEyEL28y+Ds/FQ6Tq6aoJOS7zAYk7/3D0xdu7ZqUp+uDPY8If3MO9M3IPyXPKI6EQIYE1K5wiB0zADvlgLqZkLp7ZIapaPSp1aZa+yeCb3OtH8FvFvzm131l+YbRyU7w9hDwRLiw0+DP3zEIH+bAmsqXkeWLe+3pAZ3XpOu4HDgwKf+7eaDnNWZgsxzoK4e/7jzrOAMEUiBQEvIHCDwC31oOROe9Svidr83EH08hBY09xYdb+f5us0Ge9xD/rXJgoFx7ydikJ3C7CPjV8FutDf6IJbzqORCd96vhEy4tFFT7JKx/45+Qb241wPM+4r9dDgzOyUW7VITaGEvAW44eQdDqgsZjO7mgNpMaFUF5tBLdZmxH2CFwtYWv2r+/57h8Z7vBnb8h/jvlwMCcfGqHdOPPEMiHgCfC+9sZ9PkMZqE5B0pCrqnFgupXA7bcbvjQ9OpnuyaDp7sm5F93Gtj5O+KfJAf65oNj+YzulAKBHQh41fAfmgdyXiPuneaA2kxorBrOeMvySzukoHZ/HpyL93Y/VfvGV06EZ5MM6ByD8CfPARkPz8l92iU9AblJQE3bdjrY83kMw3Y5MCrkOWUGfBF1HT0d36BjT1N79R+Zld8/MCHfvHeidqV7QsZX/yNuycUNVklY6doHdOyXxJQxAZWMJSGvbDeA8zcEPq0cKAlZ86vhL0rV8HE1O1DkpQK1mO/QCflzpvcR7iTCncYx3AgoY0Hj9K0TUNO1aQ3wnAez0GIOSPVLlNaztvNPXB3QZdwzpb7tI4IwyD4HDk2HK51nLmeAQIoEfLH6RouDNlsFC4Q+rZzxKuHJFNM58akQvOwFD8YbGffOyP9KnKAcCIE8CKgp2bQGc86DMWg1BzAAG0UC0bSXR99M8Ic8xnTKgEBiAuqub60O2hyP0KeVAxgAewUPM7OxbY/My/+beGDmQAjkQaAkou+lNZhzHoxBqzmAAdgoEoimvTzYBTAPRaOMlgh4IhppddDmeIQ+rRzAANgreJiZjW07NB8+3tLgzMEQyJqAV13tSWsw5zwYg1ZzAAOwUSQQTXt5PLjwwV1Zj+ecHwItERitrN7R6qDN8Qh9WjmAAbBX8DAzG9u2yH0vWhIFDnaHgEpKT8jLaQ3onAdz0EoOYAA2igSiaSeP+44HkTuqQk2NIuCJ8GwrgzbHIvJp5QAGwE7Bw8hsbNfesnzHKFEgWHcIqLu4pTWgcx7MQSs5gAHYKBQIp508+mblGXcUhZoaRcCrhNOtDNoci8inlQMYADsFDyOzsV0HyvI5o0SBYN0hUFqSfloDOufBHLSSAxiAjUKBcNrJY3hOltxRFGpqFIGxSnRPK4M2xyLyaeUABsBOwcPIbGzXoycv3WGUKBCsOwT8RXlLWgM658EctJIDGICNQoFw2sejZ6p2xR01oaZGEvCEvNTKwM2xCH0aOYABsE/wMDEb25TbABspiW4FXRLR62kM6JwDY9BKDmAANooF4mkfj6+W5ZtuqQm1NY6AJ2SllYGbYxH6NHIAA2Cf4GFiNrZp/8nwx8YJAgG7RaBUDR9PY0DnHBiDVnIAA7BRLBBP+3j0zQfH3FITamscgdFK+OVWBm6ORejTyAEMgH2Ch4nZ2KaDc/Fe4wSBgN0icPTZ+MaSkFfSGNQ5B+YgaQ5gADaKBeJpFw/uAeCWjhpdW08EbyUduDkOkU8jBzAAdgkeBmZje/bNyD8ZLQoE7w4BvxL8NI1BnXNgDpLmAAZgo2AgoHbxGCjXXnJHQaip0QT8avhE0oGb4xD5NHIAA2CX4GFgNrbn0Hz4uNGiQPDuEHjk+eBgGoM658AcJM0BDMBGwUBA7eLRdzz6lDsKQk2NJvDoj2o3Jx24OQ6RTyMHMAB2CR4G5qP2PDhdWzNaEAjePQK+iN5NY2DnHBiEJDmAAfhIMBBPu1j0nZD/6Z6CUGOjCXjV8HSSgZtjEPg0cgADYJfoYWI+ak92ADRaCt0Mnh0BEfY0hD3pOTAAHwkG4mkXi6F52eemilBrYwn4i3Jf0sGb4zALneYABsAu0cPEXG3PnqlaPD4eX2+sEBC4mwRU0vpC1jod2Pk85iBJDmAAMAA2mobeGfkXNxWEWhtPwKvKf00yeHMMIt9pDmAAMAA2GoD+svyl8UJABdwkMFqNnux0YOfzmIMkOYABwADYaACGnpaPuqke1Np4AmOV6ECSwZtjEPlOcwADgAGw0QBwB0DjZdDdCnxtJv54Sci1Tgd3Po9B2CkHMAAYANsMwOET8qK76kHNrSBQEtHrOw3e/B2B7zQHMAAYANsMQN+sPGOFCFAJdwmMiqDc6eDO5zEIO+UABgADYJsB4AZA7uqmNTXnxkCI907incbfMQAYAJsMgPr9v78Yf8waIaAibhIYWY53+0LKNAZ5zoGZ2CoHMAAYAJsMQO907T03FYNaW0eA/QAQ7q2EO633MQAYAJsMQP987SfWCQEVcpOAVwm/k9ZAz3kwE5vlAAYAA2CTAXhgrrbfTbWg1tYRKL0Q3LnZoM17iHlaOYABwADYYgAOTtXWrBMBKuQ2gZKQ76Y12HMejENzDmAAMAC2GIC+meAPbqsFtbeOgCfkcvOgzWuEPK0cwABgAGwxAANz8inrBIAKuU2gVA0fTGuw5zwYh+YcwABgAGwxAPtPBJ90Wy2ovXUERiuXPlES8krzwM1r/cTcE8GrfjV8wqT/6r4TRXQaW0SHeuhhoHpPyPNF5DFlQiBzAr6Q/47g6yf4zW0yVg1nMk8GSwpAOPUQTlvaof9k+GNLugbVgMBGAn41/Faz2PBaP0OAAdiYt9u9skV4qIceRmZ4Tu7bLt/4GwSMJTBaiW7zuQwQ6256MADJuxjCqYdw2tAOh6bDleSZx5EQMJCAL1bf0F0AXY8PA5C8Y9kgPNRBDxPTX5b/nDzzOBICBhIoieh7rgus7vXHACTvWIinHuJpQzsMz6/dkzzzOBICBhLwnlv9jO4C6Hp8GIDkHcsG4aEOxZuY+44HUfKs40gIGEzAE+FZ10VW5/pjAJJ3LsSzePG0oQ36yuGvk2cdR0LAYAIlIX+gswC6HhsGIHnnskF8qEPxJqZ/fqU/edZxJAQMJuAvyn2ui6zO9ccAJO9ciGfx4ml6Gxyc5uY/yXscRxpPYHw8vm5UyHM6i6DLsWEAkncx08WH+Is2MDLuL8tfJs84joSABQS4DKDfBkB104MBSN7BENCiBdT88ln9n7y/caQlBEYrq3ewKZCeJgADkLyTYQDMF+Ai2/DwCXkxebZxJAQsIuBVw9fq3zp51McMYACSd7IixYOyzTcfR+ZlNXm2cSQELCLgV+VjCL8+wl9vCwxA8k6GCJsvwkW2Yd/x6FPJs40jIWARAXWLYE/Iy3Xh4VEPM4ABSN7JihQPyjbbfPSW5TvJM40jIWAhgTGx+nOEXw/hr7cDBiB5R0OEzRbhIttv4KR8MnmmcSQELCTgifD+uvDwqIcRwAAk72hFCghlm2s+eqZqV0bG493JM40jIWAhgaPj8Q0lEV1A/PUQf9UOGIDkHQ0RNleEi2y7vrJ8I3mWcSQELCZQEtEpDAAGwMQUL1JEKNtc88HWvyb2dmLOhEDpheBODAAGIJPkyvikiLC5IlxU2/Hb/4w7Jac3j0BJRK9jAvQwAVwCSN5/ihIRyjXXeAyWg7nkGcaREHCAgCeiEQwABsC0VEeIzRXiItpOLf47vBDvMS3PiRcCmRIYWY53+yI6jwko3gQwA5A81YsQEco013T0zcozybOLIyHgEAGvEp7EAGAATEp5xNhcMS6i7R44Gd1tUn4TKwRyI8ANgooXf2XAmAFInvJFiAhlmmk6emfkX5JnFkdCwEECYyL8DbMAxRoBDEDyjocYmynGRbTbkVn5/eSZxZEQcJDAWDV8AAOAATAl9YsQEso0z3QcnKqtHT0d32BKXhMnBAohMD4eX++L6F1MQHEmgBmA5KmPGJsnxkW02UC59lLyrOJICDhMwBfR9zAAGAATukARYkKZZpmOA1Pyb8PTF241IZ+JEQKFE1C3CS4JWcMEFGMCPBGe9arhaVP+q8tGRSUtYmyWGBfRXn1l+VpR+Um5EDCSgCfCBQxAMQbANO6j1aiw26oWISiUaZbpGJ6T+8bH4+uMHIgJGgJFEBitRLeVhFwzTYyIN3/TggEwSxBdMjB9M/JPRYyflAkB4wn4leCnCGr+gmoacwwABkBXUzH4THi/8QMxFYBAEQT8RbnPNDEi3vwNCwYAA6CjAeg9Ic8XMW5SJgSsIcDGQPkLqmkmBgOAAdDRAPSXg3+yZiCmIhAogsBYJThkmiARb76mBQOAAdDNABycDmQR4yVlQsAqAmr1rCeiPyKq+YqqSbwxABgA3QxA/1w4bdVATGUgUBSBUjV80CRBItZ8zQoGAAOgkwG473gQ7Yr52V9RekG5lhFgFiBfQTXNwGAAMAA6GYCheTlh2RBMdSBQLAFmATABWxkTDAAGQBcDwLf/YnWC0i0lcHUWIPz9ViLA++4aBAwABkAXAzAwJ5+ydAimWhAolgC3CnZX5LczeBgADIAOBmB95T/X/osVCUq3lwCzABiAzYwABgADoIMB4Nu/vdpDzTQhwCwAJqDZBGAAMABFGwC+/WsiEIRhNwFmATAAGAAEv2jBby7/yKz8vt0jL7WDgCYEPBHe3ywCvHbXGDADgCFoFuQ8Xx8+IS9qMjQSBgTcIOAJeQbRd1f0G9seA4AByFPwm8sanI8edmPUpZYQ0IRAaSm8yxfySqMQ8NxNQ4ABwAA0i3Jer3tng3OaDImEAQG3CHjV8DSi76boN7Y7BgADkJfgN5fz4MIHd7k16lJbCGhC4LHq6u2ekJcbxYDn7hkCDAAGoFmY83jdV5avaTIUEgYE3CTgi9U5RN890W9scwwABiAPwW8so2eqFh89eekON0ddag0BTQiMLF/c64vofKMg8NwtQ4ABwAA0inMezwfKtZc0GQIJAwJuE/Aq4XcQfbdEv7G9MQAYgDxEv17Gwana2uGFeI/boy61h4AmBI6OxzeMCnmuURR47o4hwABgAOrinMdj/1w4rcnQRxgQgIAi4InwHxF9d0S/sa0xABiAPIRfldF7Qp5nxIUABDQk4InolUZh4LkbhgADgAHIywA8sBAc1HDoIyQIQGC0snoHPwt0Q/QbzR0GAAOQhwE4Uq79llEWAhDQmIBXlZON4sDzQgxBrSSiC3n9V4tAi0rJPISHMoo3OGrh30Oz8U1F5RnlQgACCQiMLMe7fSHfRvgLEf5YcVe3bE7QVFYcgjgXL855tMHAnHzKioSlEhCwnYAnZD8GAAOQR57nIT6UUazJYOFfHj2JMiCQIoExEb6MCSjGBDADUKxgYRjS5T88v3ZPikMTp4IABLImoBYE+kJKTED+JgADkK4AIejF8ewrh7/Oeqzi/BCAQAYE1OpwDAAGIIPU+vspEefixDlr9vcdD6Kjz8Y3/r2xeQIBCJhD4Ojp+AZPRH/EBORrApgBsFcUsxZdnc7fNx8cM2e0I1IIQOAaAv6i3OcLuYYJyM8EYAAwADoJeTux9J2ocavfa0ZT3oCAgQS8SjiNAcAAZJG67YgLn9HbIB2clquDc/HeLPKFc0IAAjkTUDcL8kR4FhOQjwlgBkBvgcOAbN8+AydrX895iKI4CEAgSwKlpfAuLgVgANLOMcR0ezE1jU9fWb6Rdo5wPghAQAMCXiU8ySxA9iaAGQC7RNE0EW83XrXd79Cp+GYNhipCgAAE0ibgL8Yf80TwFiYgWxOAAcAAtCvCRX5uaD58PO0xh/NBAAIaERirRPeUhLyCCcjOBGAAMABFCnk7ZTP1r9EgTSgQyJLAWDWcwQBgANLIsXbEhs/oZZDUhj+s+k+jN3AOCBhAYHw8vr4kotcxAdmYAGYA9BI4DMf27TH4THi/AcMWIUIAAmkRUPcKKAlZwwSkbwIwANsLDoKsD5/+2eBnaY0pnAcCEDCIQGlJ+hgADEAnKYuY6yPmrbbF+m1+4/i6Ttqfz0IAAgYT8CvBTzEB6ZoAZgDMFcVWRdTU43umaleGTtW+YPDQRegQgECnBEaWL+71hXwbE5CeCcAAYAB0NwZHZuX3Ox07+DwEIGABAV9EXfw0EAPQTirrLnTEd60Z65sJ/tBOW/MZCEDAUgJeVU4yC5COCWAG4FrRQYj1YHJoOlw5vBDvsXQYo1oQgEA7BNRPAz0RvIoJ6NwEYAD0EDtMx8Z26JmqxQ+cjO5uZ3zgMxCAgOUEHv1R7WZfRO9iAjozARiAjcKDEOvBY+CkfNLyIYzqQQACnRBQdw30hLyMCWjfBGAA9BA8jMdH7dBXDn/dybjAZyEAAUcI+NXwWxgADECSdEdkPxJZXVn0zsi/qEt8SdqTYyAAAQjsYn8ADECSbqCr6BHXVWOibvF79OSlO5K0JcdAAAIQWCdw9Nn4Rk+EZ5kJaN0IcAlA/2/FrhiEwfnoYYY0CEAAAi0TKC1d/jz3C8AAbJc4rgipifU8Mi+r27Udf4MABCCwLQH1bdYX8gozAcmNADMAzAAUbRj6yvKNbTs2f4QABCCQhMBoNXoSA5DcAPjV8Al/Ue7L839pKbw1SVumfUzRQkf515otdZOfkfF4d9ptzfkgAAEHCYyPx9d5InwRE9CCCRD5HutVwpNFpCYCfK0AF8nkvuNBNDx9oRAzWET+USYEIJADgZHleLcn5BlMQL7CnpQ3BkAvIS7CBKzv9DdX25/DcEAREICAawSu7hTInQOTinKex2EAMABD8+Hjro1J1BcCEMiRgPplgCfkpTzFjbJ2nnXAALhtAPrL8oUchwGKggAEXCUwVgkO+UKuIcw7C3NejDAA7hqAvll5xtWxiHpDAAIFEGC7YH3EX5kMDICbBqC3LN9hm98CBkCKhIDrBDwRLuT1DZdytjccGAD3DMChafn+4YV4j+vjEPWHAAQKIHD154FyGXHeXpzz4IMBcMsAHJoOV/afCD5ZQLenSAhAAAJXCajpR09Er+QhcpSxtdHAALhjAA5O19aGTtW+wBgEAQhAoHAC/mL8MfYI2Fqc8zAuGAA3DEDPVO3K8ELQU3inJwAIQAACdQKjlUuf4O6BxZkADID9BuDAlPzb8Hz4YL3P8QgBCEBAGwJqP3pfsFFQHt/4m8vAANhvAIbngie06ewEAgEIQKCZgNooyBfR+WaB4nW2swMYALsNwNC8nGjua7yGAAQgoB2B0lJ4F7sFZiv4mxiqt30hf9Xqf/VTsk7+F7HnvWtlDpaDOe06OQFBAAIQ2IqAMgG+kLVNhCrmvdzNwZbMXRNT0+o7OCcXt+pjvA8BCEBAWwJeNfwHTIA+Yr+Z8TJNEF2KF/HXdmgjMAhAIAmB0Ur45RIzAVt+A99MlPN8zyVBNamu/SfDHyfpXxwDAQhAQGsCmAB9ZwFMEkVXYu2fr/1E6w5NcBCAAARaITBWie7hcoB+RsAVUTWlnv2zwc9a6VccCwEIQMAIAo88Hxz0hZR5TnFT1vamwxRhdCFOxN+IYYwgIQCBdgl41dUe1gRsL8p5mhYXhNWEOg6U5XPt9ik+BwEIQMAYAt6y/BKbBelhAkwQR9tj7J8Lp43pvAQKAQhAoFMCH+4Y+G6e33Yp61rTYbu46l6/ofngu532JT4PAQhAwDgCo5XoNk8EbyHM1wpzXkx0F0hb4+uZqsVDT8tHjeu0BAwBCEAgLQL+orzFE+Hv8xI8ytloNmwVWJ3rpW7pO/hMeH9afYjzQAACEDCWwMjyxb2ekGcQ543inAcPnYXSxtgOTtXWhheCHmM7K4FDAAIQSJvA0WfjG8dE+Js8RI8yPjIaNoqsrnW673gQDc/JfWn3Hc4HAQhAwHgC4+Px9X41+l8I9EcCnTULXcXStrjUHRdLS+GtxndSKgABCEAgSwKlavh4ScgrWYsf55exbUKrY336yuHZkfF4d5Z9hnNDAAIQsIbAWDV8gF0Ds58J0FEwbYrpSLn2W2s6JRWBAAQgkBeB0lJ4V0lE7/FNPTsjYJPY6laXwbJcyKuvUA4EIAAB6wg8Vl293RPhWUxANiZAN9G0IR71G/+Bk7WvW9cZqRAEIACBvAmMVi59whfy3zEB6ZsAGwRXpzqsr/SfX7sn7z5CeRCAAASsJXB0PL6hJKJFTEC6JkAn8TQ9lt6yfGfoVHyztZ2QikEAAhAoksBYNXqYxYHpmQDTRVeX+PvL8pe74vi6IvsGZUMAAhCwnoC/KPeNCnmO2YDOjYAuAmpqHOt7+nNDH+vHHCoIAQhoROCh2fgmX8hfYQI6MwGmCq8Ocavr/Q+cjO7WqFsQCgQgAAE3CKidA71KOO2zaVDcrhHSQUjNi0HGvbPBOWVC3ehp1BICEICApgRK1fBBX8hauyLo8ufME99a4bsXDpRrL2naFQgLAhCAgHsESkuXP89thVu/HIABSG4o1J38+uaDY+71LmoMAQhAQHMC6qeCnggXuCSQ3AhgAJIZgL4T8j/5iZ/mAwDhQQACEHjk+eAgWwgnMwEYgO0NgFrlPzgnF+lVEIAABCBgCIFHf1S72RPRKy5f309SdwzA1gbg4HQghxeCHkNSnjAhAAEIQKBOYHw8vk7dWtgT8nISMXTxGAzA5gagbyb4w+GFeE89l3iEAAQgAAEDCXjL8kueCN5yUeB3qjMGYKMB6JmqXRliYx8DezkhQwACENiCwMhyvPvDPQPWdhJFl/6OAfjIAKi9/AfnLn56ixTibQhAAAIQMJlAaSm8i9sLf7RAEANQi9W3/oE5+ZTJeU3sEIAABCCQgACzARiAuvHhW3+CDsMhEIAABGwjUHohuNP1zYPqQujaI9/6bevN1AcCEIBAiwTWNw+qysmSkE6uDXBN+FV9v1qWbw5PX7i1xVThcAhAAAIQsJFAaSm40xfy311aAKjq6pIBUHfvG56TJRvzlzpBAAIQgEAHBNS+AWMiOubSLoIuGAC1m5+6gc/R0/ENHaQHH4UABCAAAdsJfHPhwh51TwEXLgvYbgDUIr+hU7Uv2J6z1A8CEIAABFIk4MJlAVsNwMFpucqGPil2Bk4FAQhAwDUCtl8WsM0AqOn+/rJ82V+MP+ZarlJfCEAAAhDIgMDXZuKP+9XwCU/ISzYtFLTJAKjV/UeeWflcBs3PKSEAAQhAwHUCD83GN6kthW25wZANBkBd539grrbf9dyk/hCAAAQgkAMB77nVz3jV8LQv5BWTZwRMNgCHpsOVoaflozk0N0VAAAIQgAAENhJQdxocE+FvTDUBJhoAtcBvsBzMbWwJXkEAAhCAAAQKIHDsOUhBmtsAAAReSURBVNnni9U3TDMCJhmAg1O1tYGyfG5kPN5dQBNTJAQgAAEIQGBrAqOV8MsmzQiYYACU8PefDH+M8G+dd/wFAhCAAAQ0IfChEXhZ9xkBnQ2A2rp3cE4usoOfJklNGBCAAAQgkJyAVw3/YUyEyghouVhQRwOA8CfPL46EAAQgAAHNCfiLct+YWP15STMjoJMBUKv6++fC6V1xfJ3mzUl4EIAABCAAgdYI+IvyltFq9KQvovM6XB7QwQCo3/Fzl77W8oijIQABCEDAUAIjy/FudedBT0R/LNIIFGUA1Ja9fTPBHx5c+OAuQ5uQsCEAAQhAAAKdEVALBtWmQkXcfTBvA6B+w69uzat2VOyMGp+GAAQgAAEIWELgserq7WPVcKYkovfymhXIwwAcmJJ/650NzvWXg3/i+r4lyUo1IAABCEAgfQLj4/H1XnW1xxPhi76QMkszkKUBUKv5+8vyl4emVz+bPiXOCAEIQAACELCYwMjyxb2lJel7Qp7JwgikbQDUtX11V77B+ehhi5uFqkEAAhCAAATyI1B6IbhzVATlNC8RpGUAek/I84NluTA4F+/NjwglQQACEIAABBwiMD4eX7e+cHD9tsTBW53MDHRiANTv9tWCvqFTtS84hJ+qQgACEIAABPQgUFq6/Hm1t4AnwrOtmoFWDQCir0ebEwUEIAABCEBgA4H1ywRXzcDvk5iBJAZATe/3l+ULR09eumNDYbyAAAQgAAEIQEA/Ao/+qHbzWDV8oCSiRV9E725mCDYzAOrue+sL+crB3P4TwSf1qxkRQQACEIAABCCQmIDaZ2D9FwXV8LQvZE0ZgroBODQt31c/2Rsor/YmPiEHQgACEIAABCBgFoH1rYgr0QG1Oc/RZ+MbzYqeaCEAAQhAAAIQgAAEIAABCEAAAhCAAAQgAAEIQAACEIAABCAAAQhAAAIQgAAEIAABCEAAAhCAAAQgAAEIQAACEIAABCAAAQhAAAIQgAAEIAABCEAAAhCAAAQgAAEIQAACEIAABCAAAQhAAAIQgAAEIAABCEAAAhCAAAQgAAEIQAACEIAABCAAAQhAAAIQgAAEIAABCEAAAhCAAAQgAAEIQAACEIAABCAAAQhAAAIQgAAEIAABCEAAAhCAAAQgAAEIQAACEIAABCAAAQhAAAIQgAAEIAABCEAAAhCAAAQgAAEIQAACEIAABCAAAQhAAAIQgAAEIAABCEAAAhCAAAQgAAEIQAACEIAABCAAAQhAAAIQgAAEIAABCEAAAhCAAAQgAAEIQAACEIAABCAAAQhAAAIQgAAEIAABCEAAAhCAAAQgAAEIQAACEIAABCAAAQhAAAIQgAAEIAABCEAAAhCAAAQgAAEIQAACEIAABCAAAQhAAAIQgAAEIAABCEAAAhCAAAQgAAEIQAACEIAABCAAAQhAAAIQgAAEIAABCEAAAhCAAAQgAAEIQAACEIAABCAAAQhAAAIQgAAEIAABCEAAAhCAgAME/j98r/d0IscHVAAAAABJRU5ErkJggg==;" vertex="1" parent="1">
          <mxGeometry x="1236" y="79.75" width="42" height="42" as="geometry" />
        </mxCell>
        <mxCell id="Emlw189iFecIY5IHkh1l-20" style="edgeStyle=orthogonalEdgeStyle;rounded=0;orthogonalLoop=1;jettySize=auto;html=1;entryX=0.023;entryY=0.424;entryDx=0;entryDy=0;entryPerimeter=0;strokeColor=light-dark(#FFFFFF,#002E5C);dashed=1;" edge="1" parent="1" source="Emlw189iFecIY5IHkh1l-15" target="bZfns3RA5erKDMG97pNH-6">
          <mxGeometry relative="1" as="geometry">
            <Array as="points">
              <mxPoint x="1697" y="-15" />
              <mxPoint x="1697" y="75" />
            </Array>
          </mxGeometry>
        </mxCell>
        <mxCell id="Emlw189iFecIY5IHkh1l-24" style="edgeStyle=orthogonalEdgeStyle;rounded=0;orthogonalLoop=1;jettySize=auto;html=1;entryX=0;entryY=0.5;entryDx=0;entryDy=0;strokeColor=light-dark(#000000,#990000);align=center;verticalAlign=middle;fontFamily=Helvetica;fontSize=11;fontColor=default;labelBackgroundColor=default;endArrow=classic;" edge="1" parent="1" source="bZfns3RA5erKDMG97pNH-25" target="Emlw189iFecIY5IHkh1l-9">
          <mxGeometry relative="1" as="geometry" />
        </mxCell>
        <mxCell id="Emlw189iFecIY5IHkh1l-23" style="edgeStyle=orthogonalEdgeStyle;rounded=0;orthogonalLoop=1;jettySize=auto;html=1;entryX=0;entryY=0.25;entryDx=0;entryDy=0;dashed=1;strokeColor=light-dark(#FFFFFF,#002E5C);align=center;verticalAlign=middle;fontFamily=Helvetica;fontSize=11;fontColor=default;labelBackgroundColor=default;endArrow=classic;" edge="1" parent="1" source="Emlw189iFecIY5IHkh1l-7" target="zcXtujwmY136qcEb4Mnf-168">
          <mxGeometry relative="1" as="geometry">
            <Array as="points">
              <mxPoint x="985" y="-47" />
              <mxPoint x="881" y="-47" />
              <mxPoint x="881" y="-367" />
            </Array>
          </mxGeometry>
        </mxCell>
        <mxCell id="Emlw189iFecIY5IHkh1l-33" style="edgeStyle=orthogonalEdgeStyle;rounded=0;orthogonalLoop=1;jettySize=auto;html=1;entryX=0.5;entryY=1;entryDx=0;entryDy=0;strokeColor=light-dark(#000000,#00FF00);align=center;verticalAlign=middle;fontFamily=Helvetica;fontSize=11;fontColor=default;labelBackgroundColor=default;endArrow=classic;" edge="1" parent="1" source="Emlw189iFecIY5IHkh1l-30" target="zcXtujwmY136qcEb4Mnf-161">
          <mxGeometry relative="1" as="geometry">
            <Array as="points">
              <mxPoint x="1519" y="-235" />
              <mxPoint x="1010" y="-235" />
            </Array>
          </mxGeometry>
        </mxCell>
        <mxCell id="Emlw189iFecIY5IHkh1l-34" style="edgeStyle=orthogonalEdgeStyle;rounded=0;orthogonalLoop=1;jettySize=auto;html=1;strokeColor=light-dark(#000000,#CC6600);align=center;verticalAlign=middle;fontFamily=Helvetica;fontSize=11;fontColor=default;labelBackgroundColor=default;endArrow=classic;" edge="1" parent="1" source="Emlw189iFecIY5IHkh1l-30" target="bZfns3RA5erKDMG97pNH-3">
          <mxGeometry relative="1" as="geometry">
            <Array as="points">
              <mxPoint x="1697" y="-193" />
              <mxPoint x="1697" y="-287" />
            </Array>
          </mxGeometry>
        </mxCell>
        <mxCell id="Emlw189iFecIY5IHkh1l-35" style="edgeStyle=orthogonalEdgeStyle;rounded=0;orthogonalLoop=1;jettySize=auto;html=1;entryX=0.5;entryY=0;entryDx=0;entryDy=0;strokeColor=light-dark(#000000,#CC6600);align=center;verticalAlign=middle;fontFamily=Helvetica;fontSize=11;fontColor=default;labelBackgroundColor=default;endArrow=classic;" edge="1" parent="1" source="Emlw189iFecIY5IHkh1l-30" target="zcXtujwmY136qcEb4Mnf-41">
          <mxGeometry relative="1" as="geometry">
            <Array as="points">
              <mxPoint x="1659" y="-193" />
              <mxPoint x="1659" y="-72" />
              <mxPoint x="1545" y="-72" />
            </Array>
          </mxGeometry>
        </mxCell>
        <mxCell id="Emlw189iFecIY5IHkh1l-30" value="" style="fillColor=#ffffff;strokeColor=#dddddd;shadow=1;strokeWidth=1;rounded=1;absoluteArcSize=1;arcSize=2;" vertex="1" parent="1">
          <mxGeometry x="1434" y="-223" width="170" height="60" as="geometry" />
        </mxCell>
        <mxCell id="Emlw189iFecIY5IHkh1l-31" value="&lt;font color=&quot;#ededed&quot;&gt;Bastion&lt;/font&gt;&lt;div&gt;Compute Engine&lt;/div&gt;" style="editableCssRules=.*;html=1;fontColor=#999999;shape=image;verticalLabelPosition=middle;verticalAlign=middle;labelPosition=right;align=left;spacingLeft=20;part=1;points=[];imageAspect=0;image=data:image/svg+xml,PHN2ZyB4bWxucz0iaHR0cDovL3d3dy53My5vcmcvMjAwMC9zdmciIHhtbG5zOnY9Imh0dHBzOi8vdmVjdGEuaW8vbmFubyIgd2lkdGg9IjIwIiBoZWlnaHQ9IjIwIiB2aWV3Qm94PSIwIDAgMjAgMjAiPiYjeGE7CTxzdHlsZSB0eXBlPSJ0ZXh0L2NzcyI+JiN4YTsJLnN0MHtmaWxsOiM0Mjg1ZjQ7fSYjeGE7CS5zdDF7ZmlsbDojNjY5ZGY2O30mI3hhOwkuc3Qye2ZpbGw6I2FlY2JmYTt9JiN4YTsJPC9zdHlsZT4mI3hhOwk8cGF0aCBjbGFzcz0ic3QyIiBkPSJNNyA3aDZ2Nkg3eiIvPiYjeGE7CTxwYXRoIGNsYXNzPSJzdDEiIGQ9Ik05IDBoMnY0SDl6TTUgMGgydjRINXptOCAwaDJ2NGgtMnoiLz4mI3hhOwk8cGF0aCBjbGFzcz0ic3QwIiBkPSJNOSAxNmgydjRIOXptLTQgMGgydjRINXptOCAwaDJ2NGgtMnptMy01VjloNHYyem0wIDR2LTJoNHYyem0wLThWNWg0djJ6Ii8+JiN4YTsJPHBhdGggY2xhc3M9InN0MSIgZD0iTTAgMTFWOWg0djJ6bTAgNHYtMmg0djJ6bTAtOFY1aDR2MnoiLz4mI3hhOwk8cGF0aCBjbGFzcz0ic3QyIiBkPSJNMyAzdjE0aDE0VjN6bTEyIDEySDVWNWgxMHoiLz4mI3hhOwk8cGF0aCBjbGFzcz0ic3QxIiBkPSJNMTAgMTBsLTMgM2g2eiIvPiYjeGE7CTxwYXRoIGNsYXNzPSJzdDAiIGQ9Ik0xMyA3bC0zIDMgMyAzeiIvPiYjeGE7PC9zdmc+;" vertex="1" parent="Emlw189iFecIY5IHkh1l-30">
          <mxGeometry width="30" height="30" relative="1" as="geometry">
            <mxPoint x="15" y="15" as="offset" />
          </mxGeometry>
        </mxCell>
      </root>
    </mxGraphModel>
  </diagram>
</mxfile>
